G04*
G04 #@! TF.GenerationSoftware,Altium Limited,Altium Designer,22.11.1 (43)*
G04*
G04 Layer_Color=16711935*
%FSLAX44Y44*%
%MOMM*%
G71*
G04*
G04 #@! TF.SameCoordinates,2AA7A9AF-3E7F-4844-AC60-F76D4B8FDDD6*
G04*
G04*
G04 #@! TF.FilePolarity,Negative*
G04*
G01*
G75*
%ADD57C,3.4000*%
%ADD58C,1.9000*%
%ADD59R,1.9000X1.9000*%
%ADD60O,1.8000X2.2000*%
%ADD61R,1.8000X2.2000*%
%ADD62R,2.2000X1.8000*%
%ADD63O,2.2000X1.8000*%
%ADD64C,4.2040*%
%ADD65C,7.4600*%
%ADD66C,7.6000*%
%ADD67C,2.1000*%
%ADD68R,2.1000X2.1000*%
%ADD69C,2.0200*%
G04:AMPARAMS|DCode=70|XSize=2.2mm|YSize=1.4mm|CornerRadius=0.46mm|HoleSize=0mm|Usage=FLASHONLY|Rotation=0.000|XOffset=0mm|YOffset=0mm|HoleType=Round|Shape=RoundedRectangle|*
%AMROUNDEDRECTD70*
21,1,2.2000,0.4800,0,0,0.0*
21,1,1.2800,1.4000,0,0,0.0*
1,1,0.9200,0.6400,-0.2400*
1,1,0.9200,-0.6400,-0.2400*
1,1,0.9200,-0.6400,0.2400*
1,1,0.9200,0.6400,0.2400*
%
%ADD70ROUNDEDRECTD70*%
G36*
X352439Y309117D02*
X352407Y309148D01*
X352439Y309180D01*
X352470Y309148D01*
X352439Y309117D01*
D02*
G37*
G36*
X366227Y309879D02*
X366386Y309847D01*
X366227Y309816D01*
X366195Y309847D01*
X366227Y309879D01*
D02*
G37*
G36*
X369500Y313914D02*
X369531Y313946D01*
X369563Y313914D01*
X369531Y313882D01*
X369500Y313914D01*
D02*
G37*
G36*
X425774Y294368D02*
X425742Y294336D01*
X425729Y294310D01*
X425709Y294291D01*
X425618Y294251D01*
X425586Y294258D01*
X425599Y294362D01*
X425625Y294427D01*
X425612Y294622D01*
X425586Y294648D01*
X425573Y294674D01*
X425521Y294752D01*
X425508Y294778D01*
X425475Y294823D01*
X425449Y294836D01*
X425410Y294875D01*
X425384Y294888D01*
X425365Y294907D01*
X425352Y294933D01*
X425332Y294953D01*
X425307Y294966D01*
X425216Y295005D01*
X425073Y294992D01*
X425040Y294960D01*
X425014Y294856D01*
X425001Y294674D01*
X424988Y294635D01*
X424956Y294485D01*
X424943Y294420D01*
X424923Y294349D01*
X424910Y294297D01*
X424884Y294206D01*
X424845Y294141D01*
X424826Y294135D01*
X424806Y294154D01*
X424780Y294258D01*
X424761Y294537D01*
X424748Y294602D01*
X424689Y294791D01*
X424644Y295005D01*
X424612Y295050D01*
X424566Y295070D01*
X424462Y295005D01*
X424371Y294953D01*
X424300Y294882D01*
X424287Y294856D01*
X424248Y294765D01*
X424235Y294739D01*
X424170Y294648D01*
X424150Y294563D01*
X424118Y294271D01*
X424085Y294239D01*
X424007Y294251D01*
X423982Y294277D01*
X423955Y294291D01*
X423936Y294310D01*
X423910Y294375D01*
X423832Y294518D01*
X423793Y294609D01*
X423780Y294778D01*
X423793Y295050D01*
X423806Y295089D01*
X423819Y295141D01*
X423852Y295226D01*
X423917Y295369D01*
X423949Y295414D01*
X424624Y296090D01*
X424650Y296155D01*
X424689Y296427D01*
X424702Y296479D01*
X424728Y296544D01*
X424748Y296616D01*
X424761Y296668D01*
X424774Y296733D01*
X424787Y296811D01*
X424800Y296876D01*
X424839Y296980D01*
X424884Y297129D01*
X424910Y297311D01*
X424943Y297395D01*
X424969Y297460D01*
X424988Y297519D01*
X425014Y297623D01*
X425034Y297746D01*
X425047Y297824D01*
X425060Y297876D01*
X425125Y298019D01*
X425138Y298084D01*
X425164Y298253D01*
X425190Y298356D01*
X425222Y298441D01*
X425261Y298571D01*
X425274Y298623D01*
X425294Y298746D01*
X425307Y298798D01*
X425332Y298863D01*
X425378Y299013D01*
X425404Y299168D01*
X425417Y299220D01*
X425521Y299545D01*
X425534Y299636D01*
X425553Y299746D01*
X425599Y299818D01*
X425625Y299883D01*
X425612Y300000D01*
X425592Y300019D01*
X425553Y300006D01*
X425521Y299922D01*
X425508Y299857D01*
X425488Y299824D01*
X425462Y299811D01*
X425404Y299766D01*
X425378Y299675D01*
X425365Y299623D01*
X425313Y299532D01*
X425274Y299493D01*
X425248Y299428D01*
X425216Y299344D01*
X425183Y299311D01*
X425170Y299285D01*
X425144Y299220D01*
X425112Y299136D01*
X425060Y299058D01*
X425040Y299038D01*
X424982Y298876D01*
X424949Y298831D01*
X424923Y298805D01*
X424897Y298740D01*
X424852Y298616D01*
X424819Y298571D01*
X424793Y298545D01*
X424767Y298480D01*
X424754Y298428D01*
X424702Y298337D01*
X424650Y298259D01*
X424637Y298207D01*
X424605Y298123D01*
X424573Y298077D01*
X424547Y298051D01*
X424521Y297986D01*
X424475Y297863D01*
X424456Y297843D01*
X424443Y297817D01*
X424417Y297791D01*
X424391Y297726D01*
X424371Y297655D01*
X424326Y297584D01*
X424300Y297558D01*
X424248Y297441D01*
X424235Y297415D01*
X424157Y297298D01*
X424111Y297174D01*
X424066Y297103D01*
X424040Y297077D01*
X423982Y296915D01*
X423910Y296817D01*
X423891Y296746D01*
X423865Y296681D01*
X423819Y296609D01*
X423780Y296544D01*
X423735Y296421D01*
X423683Y296343D01*
X423663Y296324D01*
X423644Y296252D01*
X423618Y296187D01*
X423553Y296083D01*
X423533Y296038D01*
X423501Y295992D01*
X423449Y295979D01*
X423410Y295992D01*
X423377Y296012D01*
X423364Y296038D01*
X423293Y296109D01*
X423202Y296161D01*
X423137Y296226D01*
X423111Y296239D01*
X423040Y296297D01*
X423007Y296330D01*
X422981Y296343D01*
X422897Y296401D01*
X422884Y296427D01*
X422851Y296460D01*
X422734Y296525D01*
X422657Y296603D01*
X422566Y296655D01*
X422533Y296687D01*
X422527Y296707D01*
X422501Y296720D01*
X422475Y296746D01*
X422449Y296759D01*
X422416Y296778D01*
X422403Y296804D01*
X422384Y296824D01*
X422358Y296837D01*
X422267Y296901D01*
X422202Y296966D01*
X422111Y297019D01*
X422085Y297044D01*
X422059Y297057D01*
X422020Y297096D01*
X421994Y297109D01*
X421922Y297168D01*
X421877Y297213D01*
X421851Y297226D01*
X421780Y297285D01*
X421721Y297343D01*
X421630Y297395D01*
X421565Y297460D01*
X421539Y297473D01*
X421448Y297538D01*
X421384Y297603D01*
X421357Y297616D01*
X421286Y297675D01*
X421254Y297707D01*
X421228Y297720D01*
X421111Y297811D01*
X421085Y297837D01*
X421059Y297850D01*
X420942Y297941D01*
X420916Y297967D01*
X420825Y298019D01*
X420747Y298097D01*
X420721Y298110D01*
X420649Y298168D01*
X420591Y298227D01*
X420500Y298279D01*
X420487Y298305D01*
X420461Y298318D01*
X420422Y298356D01*
X420357Y298395D01*
X420305Y298447D01*
X420279Y298460D01*
X420162Y298551D01*
X420123Y298590D01*
X420097Y298603D01*
X420026Y298662D01*
X419994Y298694D01*
X419967Y298707D01*
X419851Y298798D01*
X419825Y298824D01*
X419799Y298837D01*
X419675Y298922D01*
X419662Y298948D01*
X419545Y299025D01*
X419532Y299051D01*
X419500Y299084D01*
X419474Y299097D01*
X419357Y299188D01*
X419331Y299214D01*
X419240Y299266D01*
X419208Y299285D01*
X419195Y299311D01*
X419175Y299331D01*
X419149Y299344D01*
X419058Y299409D01*
X418993Y299474D01*
X418928Y299513D01*
X418850Y299590D01*
X418785Y299629D01*
X418720Y299694D01*
X418694Y299708D01*
X418604Y299759D01*
X418513Y299850D01*
X418487Y299863D01*
X418415Y299922D01*
X418383Y299954D01*
X418357Y299967D01*
X418285Y300026D01*
X418227Y300084D01*
X418110Y300149D01*
X418045Y300214D01*
X418019Y300227D01*
X417948Y300285D01*
X417902Y300331D01*
X417876Y300344D01*
X417805Y300402D01*
X417759Y300448D01*
X417733Y300461D01*
X417642Y300526D01*
X417577Y300591D01*
X417486Y300643D01*
X417434Y300695D01*
X417408Y300708D01*
X417318Y300773D01*
X417253Y300838D01*
X417227Y300851D01*
X417155Y300909D01*
X417097Y300968D01*
X417006Y301019D01*
X416941Y301084D01*
X416915Y301097D01*
X416824Y301162D01*
X416759Y301227D01*
X416694Y301266D01*
X416629Y301331D01*
X416603Y301344D01*
X416486Y301435D01*
X416460Y301461D01*
X416395Y301500D01*
X416356Y301539D01*
X416330Y301552D01*
X416291Y301591D01*
X416200Y301643D01*
X416135Y301708D01*
X416070Y301747D01*
X416038Y301779D01*
X416025Y301805D01*
X415947Y301883D01*
X415953Y301929D01*
X416045Y301916D01*
X416070Y301890D01*
X416122Y301877D01*
X416213Y301851D01*
X416265Y301838D01*
X416356Y301825D01*
X416434Y301812D01*
X416473Y301799D01*
X416603Y301747D01*
X416688Y301727D01*
X416921Y301688D01*
X416993Y301669D01*
X417084Y301643D01*
X417214Y301604D01*
X417304Y301591D01*
X417356Y301578D01*
X417460Y301565D01*
X417590Y301513D01*
X417681Y301487D01*
X417733Y301474D01*
X417824Y301461D01*
X417934Y301442D01*
X417986Y301429D01*
X418051Y301403D01*
X418201Y301357D01*
X418253Y301344D01*
X418428Y301325D01*
X418493Y301312D01*
X418597Y301273D01*
X418708Y301240D01*
X418759Y301227D01*
X418850Y301214D01*
X419000Y301182D01*
X419227Y301110D01*
X419448Y301071D01*
X419500Y301058D01*
X419578Y301045D01*
X419721Y300980D01*
X419773Y300968D01*
X419981Y300980D01*
X420000Y301000D01*
X419987Y301052D01*
X419967Y301071D01*
X419877Y301097D01*
X419760Y301110D01*
X419636Y301195D01*
X419552Y301227D01*
X419467Y301247D01*
X419415Y301260D01*
X419253Y301344D01*
X419169Y301364D01*
X418954Y301461D01*
X418870Y301481D01*
X418785Y301513D01*
X418694Y301578D01*
X418623Y301597D01*
X418558Y301611D01*
X418493Y301637D01*
X418415Y301688D01*
X418331Y301721D01*
X418233Y301740D01*
X418188Y301760D01*
X418097Y301825D01*
X418013Y301844D01*
X417948Y301857D01*
X417883Y301883D01*
X417850Y301916D01*
X417824Y301929D01*
X417733Y301968D01*
X417649Y301987D01*
X417545Y302026D01*
X417525Y302046D01*
X417434Y302085D01*
X417350Y302104D01*
X417285Y302130D01*
X417240Y302163D01*
X417123Y302215D01*
X417038Y302234D01*
X416973Y302260D01*
X416876Y302318D01*
X416785Y302344D01*
X416733Y302358D01*
X416648Y302390D01*
X416571Y302442D01*
X416512Y302461D01*
X416460Y302474D01*
X416376Y302507D01*
X416298Y302559D01*
X416187Y302591D01*
X416103Y302611D01*
X416038Y302637D01*
X416018Y302656D01*
X415993Y302669D01*
X415902Y302708D01*
X415850Y302721D01*
X415778Y302741D01*
X415700Y302793D01*
X415642Y302825D01*
X415538Y302851D01*
X415466Y302871D01*
X415395Y302916D01*
X415278Y302968D01*
X415168Y302987D01*
X415064Y303052D01*
X415044Y303072D01*
X414888Y303111D01*
X414668Y303215D01*
X414583Y303234D01*
X414518Y303260D01*
X414440Y303312D01*
X414317Y303358D01*
X414245Y303416D01*
X414167Y303494D01*
X414154Y303520D01*
X414025Y303650D01*
X414011Y303676D01*
X413933Y303754D01*
X413921Y303780D01*
X413849Y303851D01*
X413823Y303864D01*
X413771Y303942D01*
X413700Y304014D01*
X413687Y304040D01*
X413615Y304111D01*
X413589Y304124D01*
X413518Y304235D01*
X413323Y304429D01*
X413258Y304546D01*
X413213Y304579D01*
X413141Y304650D01*
X413128Y304676D01*
X413063Y304741D01*
X413024Y304806D01*
X412992Y304839D01*
X412966Y304852D01*
X412920Y304897D01*
X412907Y304923D01*
X412842Y304988D01*
X412829Y305014D01*
X412771Y305085D01*
X412700Y305144D01*
X412608Y305261D01*
X412557Y305313D01*
X412544Y305339D01*
X412440Y305443D01*
X412427Y305469D01*
X412368Y305540D01*
X412297Y305611D01*
X412284Y305637D01*
X412180Y305741D01*
X412167Y305767D01*
X412108Y305839D01*
X412082Y305852D01*
X412018Y305930D01*
X411946Y306001D01*
X411933Y306027D01*
X411829Y306131D01*
X411816Y306183D01*
X411836Y306216D01*
X411965Y306203D01*
X412030Y306177D01*
X412102Y306157D01*
X412186Y306112D01*
X412277Y306086D01*
X412329Y306073D01*
X412414Y306053D01*
X412479Y306027D01*
X412615Y305969D01*
X412700Y305949D01*
X412764Y305936D01*
X412868Y305897D01*
X413005Y305839D01*
X413154Y305806D01*
X413219Y305780D01*
X413290Y305748D01*
X413355Y305722D01*
X413427Y305702D01*
X413505Y305690D01*
X413609Y305651D01*
X413745Y305592D01*
X413830Y305572D01*
X413895Y305560D01*
X413998Y305521D01*
X414109Y305475D01*
X414200Y305449D01*
X414284Y305430D01*
X414349Y305404D01*
X414486Y305345D01*
X414570Y305326D01*
X414635Y305313D01*
X414739Y305274D01*
X414875Y305215D01*
X415025Y305183D01*
X415090Y305157D01*
X415161Y305124D01*
X415226Y305098D01*
X415298Y305079D01*
X415375Y305066D01*
X415427Y305053D01*
X415564Y304981D01*
X415655Y304956D01*
X415707Y304942D01*
X415791Y304923D01*
X415928Y304852D01*
X416031Y304826D01*
X416142Y304806D01*
X416207Y304780D01*
X416226Y304761D01*
X416317Y304722D01*
X416519Y304676D01*
X416584Y304650D01*
X416746Y304579D01*
X416947Y304533D01*
X416993Y304501D01*
X417019Y304475D01*
X417071Y304462D01*
X417162Y304449D01*
X417240Y304475D01*
X417246Y304533D01*
X417201Y304579D01*
X417116Y304598D01*
X417051Y304624D01*
X416980Y304696D01*
X416889Y304735D01*
X416798Y304787D01*
X416720Y304839D01*
X416668Y304852D01*
X416545Y304936D01*
X416473Y304968D01*
X416356Y305033D01*
X416330Y305059D01*
X416239Y305098D01*
X416174Y305137D01*
X416135Y305176D01*
X416109Y305189D01*
X416045Y305215D01*
X415928Y305280D01*
X415889Y305319D01*
X415765Y305365D01*
X415720Y305397D01*
X415681Y305436D01*
X415590Y305475D01*
X415525Y305514D01*
X415434Y305579D01*
X415363Y305599D01*
X415285Y305651D01*
X415271Y305676D01*
X415200Y305709D01*
X415148Y305722D01*
X415083Y305761D01*
X415031Y305813D01*
X414966Y305839D01*
X414849Y305904D01*
X414810Y305943D01*
X414758Y305956D01*
X414641Y306021D01*
X414616Y306047D01*
X414590Y306060D01*
X414421Y306151D01*
X414382Y306190D01*
X414258Y306235D01*
X414213Y306268D01*
X414174Y306306D01*
X414109Y306332D01*
X414018Y306384D01*
X413927Y306449D01*
X413856Y306469D01*
X413810Y306488D01*
X413745Y306553D01*
X413654Y306592D01*
X413589Y306618D01*
X413518Y306677D01*
X413446Y306709D01*
X413330Y306774D01*
X413290Y306813D01*
X413226Y306839D01*
X413135Y306891D01*
X413109Y306917D01*
X413083Y306930D01*
X412992Y306969D01*
X412901Y307021D01*
X412862Y307060D01*
X412771Y307099D01*
X412680Y307151D01*
X412654Y307177D01*
X412563Y307216D01*
X412498Y307255D01*
X412407Y307320D01*
X412323Y307352D01*
X412251Y307398D01*
X412225Y307424D01*
X412199Y307437D01*
X412108Y307476D01*
X412082Y307489D01*
X412011Y307547D01*
X411992Y307567D01*
X411868Y307612D01*
X411823Y307645D01*
X411797Y307670D01*
X411771Y307684D01*
X411706Y307709D01*
X411615Y307761D01*
X411576Y307800D01*
X411550Y307813D01*
X411420Y307865D01*
X411348Y307924D01*
X411193Y308002D01*
X411173Y308021D01*
X411147Y308034D01*
X411121Y308060D01*
X410991Y308112D01*
X410946Y308145D01*
X410939Y308164D01*
X410913Y308177D01*
X410744Y308268D01*
X410718Y308294D01*
X410692Y308307D01*
X410628Y308333D01*
X410511Y308398D01*
X410472Y308437D01*
X410348Y308482D01*
X410303Y308515D01*
X410251Y308567D01*
X410199Y308580D01*
X410114Y308612D01*
X410056Y308671D01*
X409965Y308723D01*
X409933Y308755D01*
X409881Y308846D01*
X409829Y308924D01*
X409796Y309009D01*
X409731Y309112D01*
X409634Y309288D01*
X409582Y309366D01*
X409543Y309470D01*
X409484Y309541D01*
X409439Y309652D01*
X409400Y309716D01*
X409374Y309742D01*
X409361Y309768D01*
X409335Y309794D01*
X409322Y309846D01*
X409290Y309931D01*
X409218Y310002D01*
X409192Y310067D01*
X409173Y310139D01*
X409140Y310184D01*
X409101Y310223D01*
X409049Y310353D01*
X409036Y310379D01*
X409010Y310405D01*
X409004Y310424D01*
X408984Y310431D01*
X408971Y310457D01*
X408932Y310548D01*
X408880Y310639D01*
X408828Y310717D01*
X408796Y310801D01*
X408744Y310879D01*
X408725Y310898D01*
X408685Y310989D01*
X408633Y311080D01*
X408595Y311119D01*
X408549Y311243D01*
X408517Y311288D01*
X408491Y311314D01*
X408478Y311340D01*
X408439Y311431D01*
X408387Y311522D01*
X408348Y311561D01*
X408322Y311626D01*
X408309Y311678D01*
X408257Y311769D01*
X408205Y311821D01*
X408159Y311944D01*
X408101Y312003D01*
X408062Y312094D01*
X408030Y312178D01*
X407984Y312224D01*
X407932Y312341D01*
X407919Y312367D01*
X407861Y312438D01*
X407828Y312509D01*
X407796Y312594D01*
X407750Y312639D01*
X407737Y312665D01*
X407685Y312782D01*
X407646Y312847D01*
X407594Y312899D01*
X407568Y312990D01*
X407516Y313081D01*
X407464Y313133D01*
X407445Y313217D01*
X407380Y313321D01*
X407360Y313341D01*
X407347Y313367D01*
X407257Y313536D01*
X407218Y313562D01*
X407192Y313626D01*
X407179Y313678D01*
X407185Y313724D01*
X407263Y313711D01*
X407309Y313678D01*
X407322Y313652D01*
X407380Y313581D01*
X407406Y313555D01*
X407432Y313542D01*
X407464Y313510D01*
X407477Y313484D01*
X407542Y313419D01*
X407555Y313393D01*
X407653Y313295D01*
X407679Y313282D01*
X408276Y312685D01*
X408302Y312672D01*
X408406Y312568D01*
X408432Y312555D01*
X408504Y312496D01*
X408692Y312308D01*
X408718Y312295D01*
X408796Y312217D01*
X408822Y312204D01*
X408848Y312178D01*
X408874Y312165D01*
X408919Y312120D01*
X408932Y312094D01*
X408952Y312074D01*
X408978Y312061D01*
X409049Y312003D01*
X409108Y311944D01*
X409134Y311931D01*
X409179Y311886D01*
X409192Y311860D01*
X409225Y311827D01*
X409315Y311775D01*
X409335Y311756D01*
X409348Y311730D01*
X409393Y311697D01*
X409465Y311639D01*
X409523Y311581D01*
X409549Y311568D01*
X409575Y311542D01*
X409601Y311529D01*
X409666Y311464D01*
X409692Y311451D01*
X409777Y311392D01*
X409790Y311366D01*
X409835Y311321D01*
X409900Y311282D01*
X409978Y311204D01*
X410004Y311191D01*
X410075Y311132D01*
X410121Y311087D01*
X410147Y311074D01*
X410270Y310989D01*
X410277Y310970D01*
X410303Y310957D01*
X410394Y310892D01*
X410472Y310814D01*
X410537Y310775D01*
X410569Y310743D01*
X410576Y310723D01*
X410602Y310710D01*
X410692Y310645D01*
X410712Y310639D01*
X410725Y310613D01*
X410744Y310593D01*
X410770Y310580D01*
X410887Y310489D01*
X410913Y310463D01*
X410939Y310450D01*
X411030Y310385D01*
X411082Y310333D01*
X411173Y310282D01*
X411238Y310217D01*
X411264Y310204D01*
X411387Y310119D01*
X411420Y310087D01*
X411446Y310074D01*
X411537Y310009D01*
X411589Y309957D01*
X411615Y309944D01*
X411732Y309853D01*
X411758Y309827D01*
X411810Y309814D01*
X411881Y309755D01*
X411914Y309723D01*
X411940Y309710D01*
X412030Y309645D01*
X412095Y309580D01*
X412212Y309515D01*
X412264Y309463D01*
X412381Y309398D01*
X412446Y309333D01*
X412563Y309268D01*
X412615Y309216D01*
X412758Y309138D01*
X412810Y309086D01*
X412927Y309021D01*
X412992Y308957D01*
X413083Y308904D01*
X413122Y308866D01*
X413148Y308853D01*
X413265Y308788D01*
X413330Y308723D01*
X413472Y308645D01*
X413524Y308593D01*
X413589Y308567D01*
X413615Y308554D01*
X413687Y308495D01*
X413719Y308463D01*
X413836Y308398D01*
X413862Y308372D01*
X413888Y308359D01*
X414005Y308294D01*
X414037Y308274D01*
X414050Y308249D01*
X414070Y308229D01*
X414096Y308216D01*
X414239Y308138D01*
X414278Y308099D01*
X414421Y308021D01*
X414473Y307969D01*
X414564Y307930D01*
X414590Y307917D01*
X414661Y307859D01*
X414680Y307839D01*
X414745Y307813D01*
X414810Y307774D01*
X414849Y307735D01*
X414875Y307722D01*
X415018Y307645D01*
X415070Y307593D01*
X415155Y307560D01*
X415233Y307508D01*
X415265Y307476D01*
X415408Y307398D01*
X415447Y307359D01*
X415642Y307255D01*
X415681Y307216D01*
X415746Y307190D01*
X415837Y307138D01*
X415876Y307099D01*
X415941Y307073D01*
X416031Y307021D01*
X416083Y306969D01*
X416168Y306936D01*
X416213Y306917D01*
X416285Y306859D01*
X416304Y306839D01*
X416389Y306807D01*
X416460Y306761D01*
X416486Y306735D01*
X416512Y306722D01*
X416603Y306683D01*
X416629Y306670D01*
X416701Y306612D01*
X416720Y306592D01*
X416843Y306547D01*
X416889Y306514D01*
X416941Y306462D01*
X417012Y306443D01*
X417084Y306397D01*
X417175Y306332D01*
X417246Y306313D01*
X417318Y306268D01*
X417356Y306229D01*
X417421Y306203D01*
X417506Y306170D01*
X417577Y306099D01*
X417642Y306073D01*
X417714Y306053D01*
X417733Y306034D01*
X417759Y306021D01*
X417811Y305969D01*
X417934Y305923D01*
X418013Y305858D01*
X418084Y305826D01*
X418168Y305793D01*
X418188Y305774D01*
X418214Y305761D01*
X418240Y305735D01*
X418331Y305696D01*
X418422Y305644D01*
X418448Y305618D01*
X418539Y305579D01*
X418623Y305547D01*
X418681Y305488D01*
X418708Y305475D01*
X418772Y305449D01*
X418857Y305417D01*
X418902Y305384D01*
X418928Y305358D01*
X418993Y305332D01*
X419110Y305267D01*
X419149Y305228D01*
X419240Y305202D01*
X419324Y305170D01*
X419357Y305137D01*
X419383Y305124D01*
X419409Y305098D01*
X419480Y305079D01*
X419584Y305014D01*
X419617Y304981D01*
X419682Y304956D01*
X419753Y304936D01*
X419825Y304891D01*
X419903Y304839D01*
X419987Y304819D01*
X420091Y304754D01*
X420110Y304735D01*
X420273Y304676D01*
X420351Y304624D01*
X420370Y304605D01*
X420552Y304540D01*
X420604Y304488D01*
X420721Y304436D01*
X420786Y304397D01*
X420864Y304345D01*
X421000Y304312D01*
X421072Y304267D01*
X421150Y304215D01*
X421234Y304196D01*
X421338Y304131D01*
X421357Y304111D01*
X421520Y304053D01*
X421598Y304001D01*
X421617Y303981D01*
X421747Y303942D01*
X421864Y303877D01*
X421929Y303851D01*
X422020Y303838D01*
X422189Y303851D01*
X426950Y303845D01*
X427015Y303871D01*
X427054Y303910D01*
X427132Y304079D01*
X427164Y304228D01*
X427229Y304371D01*
X427262Y304455D01*
X427275Y304507D01*
X427294Y304592D01*
X427365Y304754D01*
X427391Y304845D01*
X427404Y304897D01*
X427417Y304975D01*
X427482Y305079D01*
X427508Y305170D01*
X427534Y305274D01*
X427554Y305345D01*
X427625Y305482D01*
X427645Y305566D01*
X427658Y305644D01*
X427671Y305696D01*
X427697Y305761D01*
X427716Y305780D01*
X427729Y305806D01*
X427768Y305897D01*
X427781Y306001D01*
X427872Y306196D01*
X427885Y306248D01*
X427898Y306339D01*
X427911Y306391D01*
X428015Y306612D01*
X428035Y306709D01*
X428060Y306774D01*
X428119Y306910D01*
X428132Y306963D01*
X428164Y307099D01*
X428190Y307164D01*
X428262Y307326D01*
X428294Y307463D01*
X428314Y307508D01*
X428366Y307625D01*
X428392Y307716D01*
X428424Y307852D01*
X428496Y308002D01*
X428535Y308158D01*
X428567Y308242D01*
X428625Y308340D01*
X428638Y308391D01*
X428658Y308476D01*
X428690Y308521D01*
X428697Y308528D01*
X428729Y308495D01*
X428742Y308443D01*
X428716Y308028D01*
X428729Y307547D01*
X428723Y298928D01*
X428729Y298818D01*
X428671Y298746D01*
X428554Y298655D01*
X428515Y298616D01*
X428424Y298564D01*
X428359Y298499D01*
X428242Y298434D01*
X428216Y298395D01*
X428190Y298382D01*
X428099Y298330D01*
X428035Y298265D01*
X428008Y298253D01*
X427918Y298201D01*
X427840Y298123D01*
X427749Y298071D01*
X427684Y298006D01*
X427541Y297928D01*
X427476Y297863D01*
X427411Y297824D01*
X427359Y297772D01*
X427333Y297759D01*
X427242Y297707D01*
X427190Y297655D01*
X427164Y297642D01*
X427138Y297616D01*
X427047Y297564D01*
X426982Y297499D01*
X426891Y297447D01*
X426826Y297382D01*
X426710Y297317D01*
X426645Y297252D01*
X426528Y297187D01*
X426463Y297122D01*
X426346Y297057D01*
X426294Y297006D01*
X426268Y296992D01*
X426177Y296928D01*
X426151Y296901D01*
X426125Y296889D01*
X426002Y296804D01*
X425982Y296772D01*
X425956Y296759D01*
X425865Y296707D01*
X425800Y296642D01*
X425664Y296570D01*
X425651Y296544D01*
X425618Y296512D01*
X425592Y296499D01*
X425501Y296434D01*
X425449Y296382D01*
X425307Y296304D01*
X425255Y296252D01*
X425229Y296239D01*
X425138Y296174D01*
X425099Y296135D01*
X425008Y296083D01*
X424988Y296064D01*
X425001Y295986D01*
X425073Y295914D01*
X425099Y295901D01*
X425164Y295836D01*
X425190Y295823D01*
X425267Y295745D01*
X425294Y295732D01*
X425365Y295674D01*
X425391Y295648D01*
X425397Y295629D01*
X425423Y295616D01*
X425521Y295544D01*
X425534Y295518D01*
X425566Y295486D01*
X425592Y295473D01*
X425664Y295414D01*
X425696Y295382D01*
X425722Y295369D01*
X425794Y295297D01*
X425807Y295271D01*
X425846Y295232D01*
X425872Y295167D01*
X425885Y295115D01*
X425898Y295025D01*
X425885Y294570D01*
X425859Y294505D01*
X425846Y294479D01*
X425781Y294388D01*
Y294375D01*
X425774Y294368D01*
D02*
G37*
G36*
X443389Y305345D02*
X443415Y305358D01*
X443558Y305423D01*
X443681Y305443D01*
X443733Y305456D01*
X443870Y305527D01*
X443974Y305553D01*
X444064Y305566D01*
X444149Y305599D01*
X444246Y305657D01*
X444331Y305676D01*
X444474Y305702D01*
X444539Y305728D01*
X444558Y305748D01*
X444584Y305761D01*
X444649Y305787D01*
X444701Y305800D01*
X444792Y305813D01*
X444844Y305826D01*
X445039Y305917D01*
X445195Y305943D01*
X445279Y305975D01*
X445299Y305995D01*
X445389Y306034D01*
X445493Y306060D01*
X445610Y306073D01*
X445701Y306138D01*
X445753Y306151D01*
X445844Y306190D01*
X445935Y306177D01*
X445942Y306131D01*
X445883Y306073D01*
X445857Y306060D01*
X445721Y305923D01*
X445708Y305897D01*
X445682Y305871D01*
X445669Y305845D01*
X445649Y305826D01*
X445623Y305813D01*
X445604Y305793D01*
X445591Y305767D01*
X445565Y305741D01*
X445552Y305715D01*
X445461Y305625D01*
X445448Y305599D01*
X445422Y305572D01*
X445409Y305547D01*
X445318Y305456D01*
X445279Y305391D01*
X445188Y305300D01*
X445175Y305274D01*
X445143Y305241D01*
X445117Y305228D01*
X445084Y305196D01*
X445071Y305170D01*
X445013Y305098D01*
X444954Y305040D01*
X444941Y305014D01*
X444909Y304981D01*
X444883Y304968D01*
X444837Y304923D01*
X444798Y304858D01*
X444720Y304780D01*
X444707Y304754D01*
X444675Y304722D01*
X444649Y304709D01*
X444591Y304650D01*
X444539Y304559D01*
X444370Y304390D01*
X444357Y304364D01*
X444266Y304247D01*
X444233Y304215D01*
X444214Y304209D01*
X444201Y304183D01*
X444110Y304092D01*
X444097Y304066D01*
X444039Y303994D01*
X443999Y303955D01*
X443980Y303949D01*
X443967Y303923D01*
X443941Y303897D01*
X443928Y303871D01*
X443837Y303780D01*
X443824Y303754D01*
X443707Y303637D01*
X443694Y303611D01*
X443590Y303507D01*
X443577Y303481D01*
X443551Y303455D01*
X443538Y303429D01*
X443493Y303384D01*
X443311Y303319D01*
X443233Y303267D01*
X443142Y303241D01*
X443058Y303221D01*
X442993Y303195D01*
X442973Y303176D01*
X442947Y303163D01*
X442921Y303137D01*
X442850Y303117D01*
X442746Y303091D01*
X442681Y303065D01*
X442622Y303020D01*
X442558Y302994D01*
X442506Y302981D01*
X442428Y302968D01*
X442337Y302903D01*
X442272Y302877D01*
X442220Y302864D01*
X442135Y302845D01*
X442090Y302825D01*
X441999Y302760D01*
X441908Y302734D01*
X441824Y302715D01*
X441778Y302695D01*
X441700Y302643D01*
X441609Y302617D01*
X441557Y302604D01*
X441473Y302572D01*
X441337Y302500D01*
X441233Y302474D01*
X441142Y302422D01*
X441116Y302396D01*
X441025Y302370D01*
X440940Y302351D01*
X440875Y302325D01*
X440778Y302267D01*
X440706Y302247D01*
X440602Y302221D01*
X440544Y302176D01*
X440518Y302163D01*
X440427Y302124D01*
X440291Y302091D01*
X440187Y302026D01*
X440102Y301994D01*
X440005Y301974D01*
X439940Y301948D01*
X439908Y301916D01*
X439882Y301903D01*
X439791Y301864D01*
X439693Y301844D01*
X439648Y301825D01*
X439622Y301799D01*
X439596Y301786D01*
X439505Y301747D01*
X439414Y301734D01*
X439329Y301702D01*
X439252Y301649D01*
X439232Y301630D01*
X439161Y301611D01*
X439096Y301597D01*
X439031Y301572D01*
X439011Y301552D01*
X438985Y301539D01*
X438894Y301500D01*
X438790Y301474D01*
X438570Y301370D01*
X438485Y301351D01*
X438381Y301286D01*
X438297Y301253D01*
X438186Y301234D01*
X438121Y301208D01*
X438089Y301175D01*
X437998Y301136D01*
X437946Y301123D01*
X437842Y301110D01*
X437771Y301052D01*
X437732Y300987D01*
X437712Y300968D01*
X437621Y300954D01*
X437550Y300922D01*
X437563Y300883D01*
X437621Y300864D01*
X437725Y300877D01*
X437764Y300916D01*
X437868Y300942D01*
X438102Y300954D01*
X438271Y301032D01*
X438323Y301045D01*
X438479Y301071D01*
X438628Y301104D01*
X438732Y301143D01*
X438842Y301175D01*
X438894Y301188D01*
X439135Y301221D01*
X439187Y301234D01*
X439252Y301260D01*
X439323Y301292D01*
X439427Y301318D01*
X439602Y301338D01*
X439654Y301351D01*
X439758Y301390D01*
X439843Y301422D01*
X439895Y301435D01*
X439986Y301448D01*
X440148Y301468D01*
X440213Y301481D01*
X440356Y301546D01*
X440421Y301559D01*
X440596Y301578D01*
X440648Y301591D01*
X440719Y301611D01*
X440895Y301682D01*
X441174Y301714D01*
X441239Y301727D01*
X441414Y301799D01*
X441538Y301818D01*
X441590Y301831D01*
X441655Y301844D01*
X441726Y301851D01*
X441733Y301805D01*
X441674Y301734D01*
X441648Y301721D01*
X441577Y301663D01*
X441557Y301643D01*
X441531Y301630D01*
X441460Y301572D01*
X441401Y301513D01*
X441311Y301461D01*
X441233Y301383D01*
X441207Y301370D01*
X441116Y301305D01*
X441064Y301253D01*
X441038Y301240D01*
X440966Y301182D01*
X440908Y301123D01*
X440882Y301110D01*
X440810Y301052D01*
X440765Y301007D01*
X440739Y300993D01*
X440667Y300935D01*
X440622Y300889D01*
X440596Y300877D01*
X440505Y300812D01*
X440440Y300747D01*
X440375Y300708D01*
X440284Y300617D01*
X440258Y300604D01*
X440200Y300558D01*
X440187Y300532D01*
X440076Y300461D01*
X440044Y300441D01*
X440031Y300415D01*
X439953Y300364D01*
X439882Y300318D01*
X439862Y300299D01*
X439849Y300273D01*
X439732Y300195D01*
X439719Y300169D01*
X439674Y300123D01*
X439609Y300084D01*
X439531Y300006D01*
X439440Y299954D01*
X439375Y299889D01*
X439284Y299837D01*
X439206Y299759D01*
X439180Y299746D01*
X439109Y299688D01*
X439037Y299617D01*
X438972Y299578D01*
X438894Y299500D01*
X438803Y299448D01*
X438738Y299383D01*
X438647Y299331D01*
X438557Y299240D01*
X438492Y299201D01*
X438472Y299181D01*
X438459Y299155D01*
X438427Y299123D01*
X438362Y299084D01*
X438284Y299006D01*
X438193Y298954D01*
X438154Y298915D01*
X438128Y298902D01*
X438102Y298876D01*
X438076Y298863D01*
X438004Y298805D01*
X437946Y298746D01*
X437881Y298707D01*
X437803Y298629D01*
X437777Y298616D01*
X437706Y298558D01*
X437647Y298499D01*
X437556Y298447D01*
X437504Y298395D01*
X437478Y298382D01*
X437407Y298324D01*
X437349Y298265D01*
X437323Y298253D01*
X437238Y298194D01*
X437225Y298168D01*
X437193Y298136D01*
X437167Y298123D01*
X437095Y298064D01*
X437050Y298019D01*
X436959Y297967D01*
X436920Y297928D01*
X436894Y297915D01*
X436855Y297876D01*
X436790Y297837D01*
X436712Y297759D01*
X436686Y297746D01*
X436614Y297687D01*
X436556Y297629D01*
X436530Y297616D01*
X436459Y297558D01*
X436413Y297512D01*
X436322Y297460D01*
X436257Y297395D01*
X436140Y297330D01*
X436075Y297265D01*
X435984Y297213D01*
X435952Y297181D01*
X435946Y297161D01*
X435919Y297148D01*
X435829Y297096D01*
X435757Y297038D01*
X435725Y297006D01*
X435634Y296954D01*
X435569Y296889D01*
X435478Y296837D01*
X435413Y296772D01*
X435296Y296707D01*
X435231Y296642D01*
X435140Y296590D01*
X435088Y296538D01*
X435062Y296525D01*
X434939Y296440D01*
X434893Y296395D01*
X434776Y296330D01*
X434744Y296285D01*
X434646Y296226D01*
X434621Y296213D01*
X434556Y296148D01*
X434439Y296083D01*
X434406Y296038D01*
X434374Y296005D01*
X434283Y296018D01*
X434263Y296038D01*
X434250Y296090D01*
X434198Y296181D01*
X434172Y296207D01*
X434146Y296271D01*
X434127Y296356D01*
X434075Y296434D01*
X434043Y296466D01*
X434016Y296557D01*
X433984Y296642D01*
X433938Y296687D01*
X433926Y296713D01*
X433900Y296778D01*
X433854Y296901D01*
X433796Y296960D01*
X433770Y297051D01*
X433737Y297135D01*
X433718Y297155D01*
X433705Y297181D01*
X433666Y297220D01*
X433640Y297311D01*
X433607Y297395D01*
X433549Y297454D01*
X433490Y297616D01*
X433458Y297649D01*
X433445Y297675D01*
X433419Y297700D01*
X433393Y297765D01*
X433380Y297817D01*
X433289Y297947D01*
X433276Y297999D01*
X433244Y298084D01*
X433211Y298129D01*
X433185Y298155D01*
X433159Y298220D01*
X433146Y298272D01*
X433081Y298389D01*
X433055Y298415D01*
X433029Y298480D01*
X433016Y298532D01*
X432964Y298623D01*
X432912Y298701D01*
X432893Y298772D01*
X432867Y298837D01*
X432834Y298883D01*
X432808Y298909D01*
X432782Y298974D01*
X432769Y299025D01*
X432717Y299116D01*
X432665Y299194D01*
X432640Y299285D01*
X432588Y299376D01*
X432562Y299402D01*
X432497Y299584D01*
X432458Y299623D01*
X432445Y299649D01*
X432406Y299740D01*
X432373Y299824D01*
X432347Y299850D01*
X432321Y299863D01*
X432276Y299909D01*
X432256Y299993D01*
X432243Y300045D01*
X432204Y300097D01*
X432165Y300084D01*
X432133Y300052D01*
X432120Y299961D01*
X432133Y299857D01*
X432211Y299779D01*
X432230Y299578D01*
X432256Y299474D01*
X432295Y299370D01*
X432341Y299220D01*
X432354Y299168D01*
X432373Y299045D01*
X432386Y298980D01*
X432425Y298876D01*
X432458Y298792D01*
X432471Y298701D01*
X432484Y298649D01*
X432497Y298545D01*
X432575Y298350D01*
X432588Y298298D01*
X432601Y298207D01*
X432620Y298084D01*
X432633Y298019D01*
X432685Y297889D01*
X432705Y297869D01*
X432724Y297785D01*
X432737Y297655D01*
X432750Y297590D01*
X432763Y297538D01*
X432815Y297408D01*
X432834Y297350D01*
X432847Y297298D01*
X432860Y297207D01*
X432873Y297103D01*
X432951Y296908D01*
X432964Y296856D01*
X432977Y296765D01*
X433010Y296616D01*
X433042Y296505D01*
X433055Y296427D01*
X433081Y296362D01*
X433094Y296311D01*
X433114Y296135D01*
X433133Y296116D01*
X433146Y296090D01*
X433192Y296057D01*
X433224Y296012D01*
X433244Y295979D01*
X433270Y295966D01*
X433672Y295564D01*
X433692Y295557D01*
X433705Y295531D01*
X433848Y295388D01*
X433867Y295317D01*
X433893Y295252D01*
X433965Y295089D01*
X433978Y294960D01*
X433965Y294921D01*
X433951Y294557D01*
X433861Y294414D01*
X433848Y294362D01*
X433809Y294297D01*
X433789Y294277D01*
X433724Y294251D01*
X433692Y294271D01*
X433679Y294362D01*
X433666Y294492D01*
X433653Y294531D01*
X433640Y294622D01*
X433627Y294674D01*
X433614Y294700D01*
X433562Y294752D01*
X433549Y294778D01*
X433484Y294895D01*
X433458Y294921D01*
X433451Y294940D01*
X433425Y294953D01*
X433373Y295005D01*
X433231Y295070D01*
X433140Y295057D01*
X433107Y294986D01*
X433088Y294862D01*
X433062Y294758D01*
X433042Y294687D01*
X433016Y294583D01*
X432990Y294362D01*
X432971Y294213D01*
X432945Y294174D01*
X432919Y294187D01*
X432899Y294206D01*
X432886Y294297D01*
X432873Y294349D01*
X432860Y294544D01*
X432834Y294609D01*
X432795Y294739D01*
X432782Y294791D01*
X432763Y294979D01*
X432743Y295025D01*
X432711Y295057D01*
X432620Y295044D01*
X432529Y295005D01*
X432464Y294979D01*
X432393Y294921D01*
X432360Y294888D01*
X432334Y294875D01*
X432263Y294817D01*
X432146Y294570D01*
X432139Y294511D01*
X432152Y294407D01*
X432165Y294355D01*
X432172Y294297D01*
X432126Y294291D01*
X432055Y294349D01*
X432029Y294375D01*
X432016Y294401D01*
X431964Y294492D01*
X431925Y294557D01*
X431899Y294661D01*
X431886Y294933D01*
X431899Y294972D01*
X431912Y295141D01*
X432023Y295304D01*
X432061Y295343D01*
X432087Y295356D01*
X432133Y295388D01*
X432146Y295414D01*
X432191Y295460D01*
X432256Y295499D01*
X432334Y295576D01*
X432360Y295590D01*
X432464Y295693D01*
X432490Y295706D01*
X432562Y295765D01*
X432607Y295810D01*
X432633Y295823D01*
X432724Y295888D01*
X432769Y295934D01*
X432782Y295960D01*
X432808Y296025D01*
X432795Y296090D01*
X432763Y296122D01*
X432672Y296174D01*
X432607Y296239D01*
X432516Y296291D01*
X432451Y296356D01*
X432360Y296408D01*
X432289Y296466D01*
X432178Y296525D01*
X432087Y296616D01*
X431996Y296668D01*
X431931Y296733D01*
X431867Y296759D01*
X431841Y296772D01*
X431763Y296850D01*
X431646Y296915D01*
X431594Y296980D01*
X431477Y297044D01*
X431412Y297109D01*
X431347Y297135D01*
X431321Y297148D01*
X431230Y297239D01*
X431139Y297291D01*
X431074Y297356D01*
X430983Y297408D01*
X430957Y297434D01*
X430931Y297447D01*
X430905Y297473D01*
X430788Y297538D01*
X430769Y297558D01*
X430756Y297584D01*
X430658Y297642D01*
X430633Y297655D01*
X430600Y297687D01*
X430594Y297707D01*
X430568Y297720D01*
X430451Y297785D01*
X430386Y297850D01*
X430295Y297902D01*
X430217Y297980D01*
X430100Y298045D01*
X430035Y298110D01*
X429970Y298136D01*
X429899Y298194D01*
X429853Y298239D01*
X429762Y298291D01*
X429697Y298356D01*
X429606Y298408D01*
X429554Y298460D01*
X429437Y298525D01*
X429405Y298545D01*
X429392Y298571D01*
X429372Y298590D01*
X429347Y298603D01*
X429236Y298675D01*
X429223Y298701D01*
X429204Y298720D01*
X429178Y298733D01*
X429132Y298779D01*
X429119Y298831D01*
X429126Y308372D01*
X429113Y308424D01*
X429106Y308495D01*
X429139Y308541D01*
X429217Y308554D01*
X429333Y308489D01*
X429424Y308450D01*
X429515Y308437D01*
X429665Y308404D01*
X429814Y308333D01*
X429918Y308307D01*
X430022Y308294D01*
X430243Y308190D01*
X430366Y308171D01*
X430418Y308158D01*
X430522Y308119D01*
X430633Y308073D01*
X430685Y308060D01*
X430775Y308047D01*
X430827Y308034D01*
X431022Y307943D01*
X431074Y307930D01*
X431178Y307917D01*
X431243Y307878D01*
X431321Y307826D01*
X431412Y307813D01*
X431464Y307800D01*
X431542Y307787D01*
X431659Y307722D01*
X431724Y307696D01*
X431776Y307684D01*
X431873Y307664D01*
X432061Y307567D01*
X432198Y307534D01*
X432243Y307502D01*
X432282Y307463D01*
X432347Y307437D01*
X432432Y307417D01*
X432477Y307385D01*
X432542Y307320D01*
X432659Y307255D01*
X432834Y307079D01*
X432860Y306989D01*
X432847Y306807D01*
X432834Y306768D01*
X432821Y306742D01*
X432756Y306651D01*
X432743Y306508D01*
X432698Y306462D01*
X432659Y306475D01*
X432581Y306631D01*
X432555Y306644D01*
X432529Y306670D01*
X432464Y306696D01*
X432399Y306709D01*
X432360Y306696D01*
X432087Y306683D01*
X432023Y306657D01*
X431931Y306631D01*
X431828Y306605D01*
X431704Y306586D01*
X431639Y306560D01*
X431529Y306501D01*
X431405Y306456D01*
X431386Y306436D01*
X431360Y306423D01*
X431308Y306371D01*
X431191Y306306D01*
X431126Y306242D01*
X431035Y306190D01*
X431016Y306170D01*
X431003Y306144D01*
X430964Y306105D01*
X430957Y306086D01*
X430931Y306073D01*
X430886Y306027D01*
X430873Y306001D01*
X430821Y305910D01*
X430756Y305845D01*
X430717Y305754D01*
X430678Y305690D01*
X430652Y305664D01*
X430639Y305637D01*
X430613Y305572D01*
X430594Y305475D01*
X430574Y305430D01*
X430496Y305261D01*
X430477Y305098D01*
X430464Y305020D01*
X430451Y304916D01*
X430405Y304806D01*
X430418Y304702D01*
X430444Y304676D01*
X430470Y304585D01*
X430483Y304533D01*
X430496Y304429D01*
X430600Y304209D01*
X430620Y304098D01*
X430645Y304033D01*
X430698Y303955D01*
X430723Y303890D01*
X430762Y303838D01*
X430814Y303825D01*
X430879Y303812D01*
X430918Y303825D01*
X435919Y303838D01*
X435946Y303864D01*
X435971Y303877D01*
X436011Y303916D01*
X436101Y303942D01*
X436173Y303962D01*
X436218Y303994D01*
X436296Y304046D01*
X436381Y304066D01*
X436446Y304092D01*
X436465Y304111D01*
X436491Y304124D01*
X436530Y304163D01*
X436582Y304176D01*
X436706Y304222D01*
X436764Y304280D01*
X436894Y304319D01*
X436985Y304371D01*
X437024Y304410D01*
X437115Y304436D01*
X437199Y304468D01*
X437244Y304514D01*
X437271Y304527D01*
X437336Y304553D01*
X437387Y304566D01*
X437478Y304618D01*
X437517Y304657D01*
X437608Y304683D01*
X437693Y304715D01*
X437712Y304735D01*
X437738Y304748D01*
X437777Y304787D01*
X437868Y304813D01*
X437959Y304865D01*
X438011Y304916D01*
X438063Y304930D01*
X438167Y304968D01*
X438238Y305027D01*
X438323Y305059D01*
X438394Y305079D01*
X438440Y305111D01*
X438466Y305137D01*
X438492Y305150D01*
X438582Y305189D01*
X438674Y305241D01*
X438713Y305280D01*
X438777Y305306D01*
X438829Y305319D01*
X438946Y305384D01*
X438972Y305410D01*
X438998Y305423D01*
X439063Y305449D01*
X439128Y305488D01*
X439206Y305540D01*
X439329Y305585D01*
X439401Y305657D01*
X439466Y305683D01*
X439537Y305702D01*
X439583Y305735D01*
X439635Y305787D01*
X439700Y305813D01*
X439771Y305832D01*
X439817Y305865D01*
X439895Y305917D01*
X439959Y305943D01*
X440051Y305995D01*
X440089Y306034D01*
X440154Y306060D01*
X440271Y306125D01*
X440297Y306151D01*
X440362Y306177D01*
X440447Y306209D01*
X440518Y306280D01*
X440583Y306306D01*
X440700Y306371D01*
X440726Y306397D01*
X440817Y306436D01*
X440882Y306462D01*
X440908Y306488D01*
X440934Y306501D01*
X440973Y306540D01*
X441057Y306573D01*
X441135Y306625D01*
X441168Y306657D01*
X441233Y306683D01*
X441324Y306735D01*
X441362Y306774D01*
X441427Y306800D01*
X441512Y306833D01*
X441557Y306865D01*
X441609Y306917D01*
X441713Y306956D01*
X441785Y307014D01*
X441843Y307047D01*
X441934Y307099D01*
X441973Y307138D01*
X441999Y307151D01*
X442090Y307190D01*
X442155Y307229D01*
X442207Y307281D01*
X442272Y307307D01*
X442363Y307359D01*
X442402Y307398D01*
X442571Y307489D01*
X442609Y307528D01*
X442674Y307554D01*
X442739Y307593D01*
X442804Y307658D01*
X442928Y307703D01*
X442973Y307735D01*
X443012Y307787D01*
X443136Y307833D01*
X443181Y307865D01*
X443220Y307904D01*
X443246Y307917D01*
X443337Y307969D01*
X443402Y308034D01*
X443532Y308086D01*
X443597Y308151D01*
X443623Y308164D01*
X443740Y308229D01*
X443792Y308281D01*
X443935Y308359D01*
X443987Y308411D01*
X444103Y308476D01*
X444155Y308528D01*
X444220Y308554D01*
X444285Y308593D01*
X444337Y308645D01*
X444363Y308658D01*
X444480Y308723D01*
X444532Y308775D01*
X444675Y308853D01*
X444727Y308904D01*
X444844Y308969D01*
X444922Y309047D01*
X445006Y309080D01*
X445052Y309112D01*
X445091Y309151D01*
X445117Y309164D01*
X445208Y309216D01*
X445227Y309236D01*
X445240Y309262D01*
X445260Y309281D01*
X445377Y309346D01*
X445428Y309398D01*
X445545Y309463D01*
X445597Y309515D01*
X445623Y309528D01*
X445714Y309580D01*
X445792Y309658D01*
X445909Y309723D01*
X445961Y309775D01*
X446078Y309840D01*
X446110Y309872D01*
X446123Y309898D01*
X446253Y309976D01*
X446273Y310009D01*
X446299Y310022D01*
X446390Y310074D01*
X446468Y310152D01*
X446559Y310204D01*
X446637Y310282D01*
X446662Y310294D01*
X446753Y310359D01*
X446792Y310398D01*
X446818Y310411D01*
X446909Y310476D01*
X446961Y310528D01*
X447078Y310593D01*
X447111Y310639D01*
X447130Y310658D01*
X447156Y310671D01*
X447253Y310743D01*
X447260Y310762D01*
X447286Y310775D01*
X447409Y310860D01*
X447455Y310905D01*
X447481Y310918D01*
X447552Y310977D01*
X447611Y311035D01*
X447702Y311087D01*
X447721Y311106D01*
X447734Y311132D01*
X447767Y311165D01*
X447793Y311178D01*
X447864Y311236D01*
X447897Y311269D01*
X447923Y311282D01*
X447994Y311340D01*
X448052Y311399D01*
X448078Y311412D01*
X448150Y311470D01*
X448195Y311516D01*
X448221Y311529D01*
X448332Y311613D01*
X448345Y311639D01*
X448364Y311658D01*
X448390Y311672D01*
X448462Y311730D01*
X448533Y311801D01*
X448559Y311814D01*
X448650Y311905D01*
X448676Y311918D01*
X448702Y311944D01*
X448728Y311957D01*
X448760Y312003D01*
X448793Y312035D01*
X448819Y312048D01*
X448890Y312107D01*
X448936Y312152D01*
X448962Y312165D01*
X449079Y312282D01*
X449105Y312295D01*
X449131Y312321D01*
X449157Y312334D01*
X449248Y312425D01*
X449273Y312438D01*
X449520Y312685D01*
X449546Y312698D01*
X449637Y312789D01*
X449663Y312802D01*
X449696Y312821D01*
X449709Y312847D01*
X449735Y312873D01*
X449748Y312899D01*
X449793Y312931D01*
X449865Y313003D01*
X449878Y313029D01*
X449923Y313061D01*
X449955Y313081D01*
X449968Y313107D01*
X450053Y313191D01*
X450079Y313204D01*
X450111Y313250D01*
X450319Y313458D01*
X450332Y313484D01*
X450378Y313529D01*
X450404Y313542D01*
X450449Y313587D01*
X450462Y313613D01*
X450495Y313659D01*
X450547Y313672D01*
X450566Y313652D01*
X450553Y313575D01*
X450508Y313529D01*
X450488Y313523D01*
X450475Y313497D01*
X450449Y313432D01*
X450371Y313289D01*
X450319Y313237D01*
X450300Y313152D01*
X450254Y313081D01*
X450202Y313029D01*
X450176Y312938D01*
X450137Y312873D01*
X450072Y312782D01*
X450060Y312730D01*
X450008Y312639D01*
X449955Y312587D01*
X449910Y312464D01*
X449878Y312418D01*
X449852Y312392D01*
X449813Y312302D01*
X449748Y312185D01*
X449709Y312146D01*
X449689Y312074D01*
X449650Y311996D01*
X449631Y311977D01*
X449618Y311951D01*
X449579Y311912D01*
X449533Y311788D01*
X449514Y311769D01*
X449501Y311743D01*
X449462Y311704D01*
X449416Y311581D01*
X449352Y311503D01*
X449319Y311431D01*
X449306Y311379D01*
X449254Y311288D01*
X449215Y311249D01*
X449189Y311184D01*
X449131Y311074D01*
X449111Y311067D01*
X449098Y311041D01*
X449046Y310924D01*
X449033Y310898D01*
X448968Y310808D01*
X448929Y310717D01*
X448916Y310691D01*
X448858Y310619D01*
X448825Y310548D01*
X448793Y310463D01*
X448760Y310418D01*
X448708Y310366D01*
X448689Y310282D01*
X448670Y310236D01*
X448643Y310210D01*
X448637Y310191D01*
X448611Y310178D01*
X448591Y310158D01*
X448565Y310067D01*
X448540Y310002D01*
X448520Y309970D01*
X448494Y309957D01*
X448462Y309924D01*
X448403Y309762D01*
X448345Y309703D01*
X448319Y309639D01*
X448286Y309554D01*
X448228Y309496D01*
X448215Y309470D01*
X448189Y309405D01*
X448124Y309288D01*
X448098Y309262D01*
X448046Y309132D01*
X448033Y309106D01*
X447981Y309054D01*
X447968Y309028D01*
X447942Y308963D01*
X447910Y308879D01*
X447864Y308833D01*
X447851Y308807D01*
X447793Y308723D01*
X447767Y308710D01*
X447676Y308658D01*
X447650Y308632D01*
X447559Y308593D01*
X447468Y308541D01*
X447429Y308502D01*
X447364Y308476D01*
X447247Y308411D01*
X447221Y308385D01*
X447130Y308346D01*
X447065Y308307D01*
X446994Y308249D01*
X446909Y308216D01*
X446818Y308164D01*
X446779Y308125D01*
X446714Y308099D01*
X446662Y308086D01*
X446591Y308028D01*
X446559Y307995D01*
X446396Y307937D01*
X446325Y307865D01*
X446240Y307833D01*
X446169Y307787D01*
X446143Y307761D01*
X446052Y307722D01*
X445987Y307696D01*
X445948Y307658D01*
X445922Y307645D01*
X445896Y307619D01*
X445773Y307573D01*
X445701Y307502D01*
X445578Y307456D01*
X445506Y307411D01*
X445467Y307372D01*
X445383Y307339D01*
X445337Y307320D01*
X445272Y307255D01*
X445208Y307229D01*
X445136Y307209D01*
X445091Y307177D01*
X445065Y307138D01*
X445039Y307125D01*
X444974Y307099D01*
X444889Y307066D01*
X444818Y306995D01*
X444766Y306982D01*
X444649Y306917D01*
X444597Y306865D01*
X444526Y306846D01*
X444422Y306781D01*
X444389Y306748D01*
X444266Y306703D01*
X444188Y306638D01*
X444116Y306605D01*
X443999Y306540D01*
X443960Y306501D01*
X443889Y306482D01*
X443785Y306417D01*
X443753Y306384D01*
X443662Y306346D01*
X443571Y306294D01*
X443493Y306242D01*
X443408Y306209D01*
X443363Y306177D01*
X443324Y306138D01*
X443194Y306086D01*
X443168Y306073D01*
X443097Y306014D01*
X443025Y305982D01*
X442908Y305917D01*
X442882Y305891D01*
X442856Y305878D01*
X442687Y305787D01*
X442609Y305735D01*
X442558Y305722D01*
X442486Y305664D01*
X442454Y305631D01*
X442389Y305605D01*
X442337Y305592D01*
X442272Y305553D01*
X442220Y305501D01*
X442090Y305449D01*
X442019Y305391D01*
X441947Y305358D01*
X441882Y305332D01*
X441811Y305274D01*
X441791Y305254D01*
X441648Y305202D01*
X441570Y305124D01*
X441447Y305079D01*
X441369Y305014D01*
X441297Y304981D01*
X441207Y304930D01*
X441181Y304904D01*
X441155Y304891D01*
X441090Y304865D01*
X441005Y304832D01*
X440934Y304761D01*
X440843Y304735D01*
X440752Y304683D01*
X440719Y304637D01*
X440661Y304618D01*
X440609Y304605D01*
X440538Y304585D01*
X440512Y304559D01*
X440479Y304475D01*
X440453Y304449D01*
X440401Y304436D01*
X440369Y304403D01*
X440382Y304377D01*
X440401Y304358D01*
X440466Y304371D01*
X440486Y304390D01*
X440499Y304416D01*
X440557Y304436D01*
X440752Y304449D01*
X440869Y304527D01*
X440921Y304540D01*
X441070Y304572D01*
X441135Y304598D01*
X441297Y304670D01*
X441453Y304696D01*
X441648Y304787D01*
X441700Y304800D01*
X441791Y304813D01*
X441843Y304826D01*
X442038Y304916D01*
X442194Y304942D01*
X442278Y304975D01*
X442376Y305033D01*
X442460Y305053D01*
X442538Y305066D01*
X442603Y305079D01*
X442668Y305105D01*
X442687Y305124D01*
X442778Y305163D01*
X442830Y305176D01*
X442921Y305189D01*
X442973Y305202D01*
X443168Y305293D01*
X443324Y305319D01*
X443382Y305339D01*
X443389Y305345D01*
D02*
G37*
D57*
X152400Y508000D02*
D03*
D58*
X76200Y497840D02*
D03*
X50800D02*
D03*
X25400D02*
D03*
X76200Y472440D02*
D03*
X50800D02*
D03*
Y386080D02*
D03*
X76200D02*
D03*
X25400Y411480D02*
D03*
X50800D02*
D03*
X76200D02*
D03*
X25400Y342000D02*
D03*
X50800Y316600D02*
D03*
X25400D02*
D03*
D59*
Y472440D02*
D03*
Y386080D02*
D03*
X50800Y342000D02*
D03*
D60*
X533400Y25400D02*
D03*
X635000D02*
D03*
X609600D02*
D03*
X584200D02*
D03*
X558800D02*
D03*
X142240Y86360D02*
D03*
X116840D02*
D03*
X330200Y25400D02*
D03*
X355600D02*
D03*
X381000D02*
D03*
X406400D02*
D03*
X431800D02*
D03*
X457200D02*
D03*
X304800D02*
D03*
X609600Y508000D02*
D03*
X457200D02*
D03*
X482600D02*
D03*
X508000D02*
D03*
X533400D02*
D03*
X558800D02*
D03*
X584200D02*
D03*
X391160D02*
D03*
X187960D02*
D03*
X213360D02*
D03*
X238760D02*
D03*
X264160D02*
D03*
X289560D02*
D03*
X314960D02*
D03*
X340360D02*
D03*
X365760D02*
D03*
X290450Y125730D02*
D03*
X315850D02*
D03*
X341250D02*
D03*
X366650D02*
D03*
X392050D02*
D03*
X417450D02*
D03*
X442850D02*
D03*
X468250D02*
D03*
X493650D02*
D03*
X519050D02*
D03*
X544450D02*
D03*
X569850D02*
D03*
X595250D02*
D03*
X620650D02*
D03*
X290450Y201930D02*
D03*
X315850D02*
D03*
X341250D02*
D03*
X366650D02*
D03*
X392050D02*
D03*
X417450D02*
D03*
X442850D02*
D03*
X468250D02*
D03*
X493650D02*
D03*
X519050D02*
D03*
X544450D02*
D03*
X569850D02*
D03*
X595250D02*
D03*
D61*
X508000Y25400D02*
D03*
X167640Y86360D02*
D03*
X279400Y25400D02*
D03*
X635000Y508000D02*
D03*
X416560D02*
D03*
X620650Y201930D02*
D03*
D62*
X662000Y469000D02*
D03*
X146000Y446000D02*
D03*
D63*
X662000Y418200D02*
D03*
Y443600D02*
D03*
X146000Y420600D02*
D03*
Y369800D02*
D03*
Y395200D02*
D03*
D64*
X22000Y23000D02*
D03*
X24000Y132000D02*
D03*
D65*
X139700Y25400D02*
D03*
D66*
X660400Y76200D02*
D03*
Y355600D02*
D03*
D67*
X612500Y316500D02*
D03*
X547500D02*
D03*
Y271500D02*
D03*
X252500Y61500D02*
D03*
Y16500D02*
D03*
D68*
X612500Y271500D02*
D03*
X187500Y61500D02*
D03*
D69*
Y16500D02*
D03*
D70*
X21995Y168000D02*
D03*
Y234000D02*
D03*
M02*
