G04*
G04 #@! TF.GenerationSoftware,Altium Limited,Altium Designer,22.11.1 (43)*
G04*
G04 Layer_Color=65535*
%FSLAX44Y44*%
%MOMM*%
G71*
G04*
G04 #@! TF.SameCoordinates,2AA7A9AF-3E7F-4844-AC60-F76D4B8FDDD6*
G04*
G04*
G04 #@! TF.FilePolarity,Positive*
G04*
G01*
G75*
%ADD10C,0.2000*%
%ADD11C,0.5000*%
%ADD12C,0.4000*%
%ADD13C,0.3540*%
%ADD14C,0.2540*%
%ADD15C,0.1000*%
D10*
X119746Y525398D02*
G03*
X187152Y495300I32655J-17398D01*
G01*
X634620Y170180D02*
G03*
X634620Y157480I0J-6350D01*
G01*
X611280Y334280D02*
Y348160D01*
X575720Y327840D02*
X604000D01*
X575720D02*
Y348160D01*
X611280D01*
X49780Y511840D02*
Y532160D01*
X14220Y511840D02*
X49780D01*
X14220D02*
Y532160D01*
X49780D01*
X114500Y114500D02*
Y169500D01*
X129500D01*
X154500D02*
X169500D01*
Y114500D02*
Y169500D01*
X119500Y109500D02*
X129500D01*
X114500Y114500D02*
X119500Y109500D01*
X154500D02*
X164500D01*
X169500Y114500D01*
X12700Y510540D02*
X88900D01*
Y459740D02*
Y510540D01*
X12700Y459740D02*
X88900D01*
X12700D02*
Y510540D01*
X265990Y427020D02*
X299010D01*
X265990Y406700D02*
X299010D01*
X265990D02*
Y427020D01*
X299010Y406700D02*
Y427020D01*
X299510Y383700D02*
Y404020D01*
X266490Y383700D02*
Y404020D01*
Y383700D02*
X299510D01*
X266490Y404020D02*
X299510D01*
X166840Y374490D02*
Y407510D01*
X187160Y374490D02*
Y407510D01*
X166840Y374490D02*
X187160D01*
X166840Y407510D02*
X187160D01*
X151130Y200660D02*
Y220980D01*
X118110Y200660D02*
Y220980D01*
Y200660D02*
X151130D01*
X118110Y220980D02*
X151130D01*
X63500Y247650D02*
Y280670D01*
X83820Y247650D02*
Y280670D01*
X63500Y247650D02*
X83820D01*
X63500Y280670D02*
X83820D01*
X77470Y347980D02*
Y368300D01*
X110490Y347980D02*
Y368300D01*
X77470D02*
X110490D01*
X77470Y347980D02*
X110490D01*
X78130Y226060D02*
X111150D01*
X78130Y205740D02*
X111150D01*
X78130D02*
Y226060D01*
X111150Y205740D02*
Y226060D01*
X110490Y182880D02*
Y203200D01*
X77470Y182880D02*
Y203200D01*
Y182880D02*
X110490D01*
X77470Y203200D02*
X110490D01*
X77490Y180160D02*
X110510D01*
X77490Y159840D02*
X110510D01*
X77490D02*
Y180160D01*
X110510Y159840D02*
Y180160D01*
X244510Y249840D02*
Y270160D01*
X211490Y249840D02*
Y270160D01*
Y249840D02*
X244510D01*
X211490Y270160D02*
X244510D01*
X602840Y446490D02*
Y479510D01*
X623160Y446490D02*
Y479510D01*
X602840Y446490D02*
X623160D01*
X602840Y479510D02*
X623160D01*
X579840D02*
X600160D01*
X579840Y446490D02*
X600160D01*
Y479510D01*
X579840Y446490D02*
Y479510D01*
X625840Y408490D02*
Y441510D01*
X646160Y408490D02*
Y441510D01*
X625840Y408490D02*
X646160D01*
X625840Y441510D02*
X646160D01*
X332740Y59690D02*
X353060D01*
X332740Y92710D02*
X353060D01*
X332740Y59690D02*
Y92710D01*
X353060Y59690D02*
Y92710D01*
Y41910D02*
Y74930D01*
X332740Y41910D02*
Y74930D01*
X353060D01*
X332740Y41910D02*
X353060D01*
X388490Y88840D02*
Y109160D01*
X421510Y88840D02*
Y109160D01*
X388490D02*
X421510D01*
X388490Y88840D02*
X421510D01*
X230490Y427840D02*
X263510D01*
X230490Y448160D02*
X263510D01*
Y427840D02*
Y448160D01*
X230490Y427840D02*
Y448160D01*
X575310Y353060D02*
Y373380D01*
X608330Y353060D02*
Y373380D01*
X575310D02*
X608330D01*
X575310Y353060D02*
X608330D01*
X583490Y239160D02*
X616510D01*
X583490Y218840D02*
X616510D01*
X583490D02*
Y239160D01*
X616510Y218840D02*
Y239160D01*
X399990Y219840D02*
Y240160D01*
X433010Y219840D02*
Y240160D01*
X399990D02*
X433010D01*
X399990Y219840D02*
X433010D01*
X64770Y297180D02*
X97790D01*
X64770Y317500D02*
X97790D01*
Y297180D02*
Y317500D01*
X64770Y297180D02*
Y317500D01*
X85840Y230490D02*
X106160D01*
X85840Y263510D02*
X106160D01*
X85840Y230490D02*
Y263510D01*
X106160Y230490D02*
Y263510D01*
X680160Y246490D02*
Y279510D01*
X659840Y246490D02*
Y279510D01*
X680160D01*
X659840Y246490D02*
X680160D01*
X266700Y41910D02*
X287020D01*
X266700Y74930D02*
X287020D01*
X266700Y41910D02*
Y74930D01*
X287020Y41910D02*
Y74930D01*
X660840Y208990D02*
Y242010D01*
X681160Y208990D02*
Y242010D01*
X660840Y208990D02*
X681160D01*
X660840Y242010D02*
X681160D01*
X354990Y88900D02*
Y109220D01*
X388010Y88900D02*
Y109220D01*
X354990D02*
X388010D01*
X354990Y88900D02*
X388010D01*
X270817Y100685D02*
X303837D01*
X270817Y80365D02*
X303837D01*
X270817D02*
Y100685D01*
X303837Y80365D02*
Y100685D01*
X637840Y246490D02*
X658160D01*
X637840Y279510D02*
X658160D01*
X637840Y246490D02*
Y279510D01*
X658160Y246490D02*
Y279510D01*
X68580Y283210D02*
X95250D01*
X68580Y295910D02*
X95250D01*
Y283210D02*
Y295910D01*
X619970Y242650D02*
Y255350D01*
X593300D02*
X619970D01*
X593300Y242650D02*
X619970D01*
X650240Y12700D02*
Y38100D01*
X492760Y12700D02*
Y38100D01*
X650240D01*
X492760Y12700D02*
X650240D01*
X649300Y405500D02*
X674700D01*
X649300D02*
Y481700D01*
X674700Y405500D02*
Y481700D01*
X649300D02*
X674700D01*
X180340Y73660D02*
Y99060D01*
X104140Y73660D02*
X180340D01*
X104140Y99060D02*
X180340D01*
X104140Y73660D02*
Y99060D01*
X230220Y385380D02*
X232760D01*
X230220Y400620D02*
X232760D01*
X263240D01*
Y385380D02*
Y400620D01*
X232760Y385380D02*
X263240D01*
X232760D02*
Y400620D01*
X230220Y385380D02*
Y400620D01*
Y366380D02*
Y381620D01*
X232760Y366380D02*
Y381620D01*
Y366380D02*
X263240D01*
Y381620D01*
X232760D02*
X263240D01*
X230220D02*
X232760D01*
X230220Y366380D02*
X232760D01*
X230220Y410380D02*
X232760D01*
X230220Y425620D02*
X232760D01*
X263240D01*
Y410380D02*
Y425620D01*
X232760Y410380D02*
X263240D01*
X232760D02*
Y425620D01*
X230220Y410380D02*
Y425620D01*
X575220Y376380D02*
Y391620D01*
X577760Y376380D02*
Y391620D01*
Y376380D02*
X608240D01*
Y391620D01*
X577760D02*
X608240D01*
X575220D02*
X577760D01*
X575220Y376380D02*
X577760D01*
X133300Y357100D02*
X158700D01*
Y458700D01*
X133300Y357100D02*
Y458700D01*
X158700D01*
X264160Y12700D02*
X472440D01*
X264160Y38100D02*
X472440D01*
X264160Y12700D02*
Y38100D01*
X472440Y12700D02*
Y38100D01*
X441960Y495300D02*
Y520700D01*
X650240Y495300D02*
Y520700D01*
X441960Y495300D02*
X650240D01*
X441960Y520700D02*
X650240D01*
X431800Y495300D02*
Y520700D01*
X172720Y495300D02*
X431800D01*
X172720Y520700D02*
X431800D01*
X172720Y495300D02*
Y520700D01*
X12700Y373380D02*
Y424180D01*
Y373380D02*
X88900D01*
Y424180D01*
X12700D02*
X88900D01*
X63500Y303900D02*
Y354700D01*
X12700D02*
X63500D01*
X12700Y303900D02*
Y354700D01*
Y303900D02*
X63500D01*
X196000Y122000D02*
Y160000D01*
X210000D01*
X250000D02*
X264000D01*
Y122000D02*
Y160000D01*
X261000Y122000D02*
X264000D01*
X196000D02*
X199000D01*
X246950Y241590D02*
X285050D01*
X246950D02*
Y325410D01*
X285050D01*
Y241590D02*
Y325410D01*
X478910Y267950D02*
Y306050D01*
X395090Y267950D02*
X478910D01*
X395090D02*
Y306050D01*
X478910D01*
X276480Y215900D02*
X634620D01*
X276480Y111760D02*
Y215900D01*
X634620Y111760D02*
Y157480D01*
X276480Y111760D02*
X634620D01*
Y170180D02*
Y215900D01*
X194000Y426000D02*
Y432000D01*
X176000Y445000D02*
X194000D01*
X176000Y413000D02*
X194000D01*
X38000Y272000D02*
X44000D01*
X25000Y254000D02*
Y272000D01*
X57000Y254000D02*
Y272000D01*
X659000Y170000D02*
X665000D01*
X678000D02*
Y188000D01*
X646000Y170000D02*
Y188000D01*
X366920Y63040D02*
Y69040D01*
Y50040D02*
X384920D01*
X366920Y82040D02*
X384920D01*
X97500Y89000D02*
X102500Y94000D01*
X87500Y89000D02*
X97500D01*
X47500Y94000D02*
X52500Y89000D01*
X62500D01*
X102500Y94000D02*
Y149000D01*
X87500D02*
X102500D01*
X47500D02*
X62500D01*
X47500Y94000D02*
Y149000D01*
X6860Y105960D02*
X38860D01*
X6860Y47960D02*
Y105960D01*
Y47960D02*
X38860D01*
Y105960D01*
X559680Y263520D02*
X600320D01*
X559680Y324480D02*
X600320D01*
X610480Y285110D02*
Y302890D01*
X546980Y285110D02*
Y302890D01*
X253020Y30110D02*
Y47890D01*
X189520Y30110D02*
Y47890D01*
X199680Y8520D02*
X240320D01*
X199680Y69480D02*
X240320D01*
X-16630Y197000D02*
X-12630Y201000D01*
X-16630Y205000D02*
X-12630Y201000D01*
X-16630Y205000D02*
X-12630Y201000D01*
X-25630D02*
X-12630D01*
X-26630Y146000D02*
X-12630D01*
X-25630Y256000D02*
X-12630D01*
Y146000D02*
Y256000D01*
X7370Y162000D02*
Y240000D01*
X1370Y162000D02*
Y240000D01*
X32710Y161169D02*
X36710D01*
X32370Y241000D02*
X36370D01*
X51370Y219000D02*
Y222000D01*
Y181000D02*
Y184000D01*
X-4630Y240000D02*
X10370D01*
X-4630Y162000D02*
Y240000D01*
Y162000D02*
X10370D01*
X-12630Y233000D02*
X-8630D01*
X-12630Y170000D02*
X-8630D01*
X189560Y334290D02*
Y336830D01*
X187020D02*
X189560D01*
X118440Y334290D02*
Y336830D01*
X120980D01*
X117170Y264440D02*
X119710D01*
X117170D02*
Y266980D01*
X188290Y263170D02*
X190830Y265710D01*
X75580Y201900D02*
Y229900D01*
X61580Y201900D02*
X75580D01*
X61580D02*
Y229900D01*
X75580D01*
X61580Y171540D02*
Y199540D01*
X75580D01*
Y171540D02*
Y199540D01*
X61580Y171540D02*
X75580D01*
X231160Y207220D02*
Y242780D01*
X210840D02*
X231160D01*
X210840Y207220D02*
Y242780D01*
Y207220D02*
X231160D01*
X208160D02*
Y242780D01*
X187840D02*
X208160D01*
X187840Y207220D02*
Y242780D01*
Y207220D02*
X208160D01*
X239160Y273220D02*
Y308780D01*
X218840D02*
X239160D01*
X218840Y273220D02*
Y308780D01*
Y273220D02*
X239160D01*
X185160Y207220D02*
Y242780D01*
X164840D02*
X185160D01*
X164840Y207220D02*
Y242780D01*
Y207220D02*
X185160D01*
X116840Y243840D02*
X152400D01*
X116840Y223520D02*
Y243840D01*
Y223520D02*
X152400D01*
Y243840D01*
X15220Y449160D02*
X50780D01*
X15220Y428840D02*
Y449160D01*
Y428840D02*
X50780D01*
Y449160D01*
X248220Y327840D02*
X283780D01*
Y348160D01*
X248220D02*
X283780D01*
X248220Y327840D02*
Y348160D01*
Y219840D02*
X283780D01*
Y240160D01*
X248220D02*
X283780D01*
X248220Y219840D02*
Y240160D01*
X646160Y444220D02*
Y479780D01*
X625840D02*
X646160D01*
X625840Y444220D02*
Y479780D01*
Y444220D02*
X646160D01*
X433220Y62160D02*
X468780D01*
X433220Y41840D02*
Y62160D01*
Y41840D02*
X468780D01*
Y62160D01*
X287020Y40640D02*
Y76200D01*
Y40640D02*
X307340D01*
Y76200D01*
X287020D02*
X307340D01*
X398780Y63500D02*
X434340D01*
X398780Y43180D02*
Y63500D01*
Y43180D02*
X434340D01*
Y63500D01*
X173840Y124220D02*
Y159780D01*
Y124220D02*
X194160D01*
Y159780D01*
X173840D02*
X194160D01*
X231720Y74840D02*
X267280D01*
Y95160D01*
X231720D02*
X267280D01*
X231720Y74840D02*
Y95160D01*
X233220Y490160D02*
X268780D01*
X233220Y469840D02*
Y490160D01*
Y469840D02*
X268780D01*
Y490160D01*
X493220Y64840D02*
X528780D01*
Y85160D01*
X493220D02*
X528780D01*
X493220Y64840D02*
Y85160D01*
X437220Y219840D02*
X472780D01*
Y240160D01*
X437220D02*
X472780D01*
X437220Y219840D02*
Y240160D01*
X500220Y109160D02*
X535780D01*
X500220Y88840D02*
Y109160D01*
Y88840D02*
X535780D01*
Y109160D01*
X424220Y88840D02*
X459780D01*
Y109160D01*
X424220D02*
X459780D01*
X424220Y88840D02*
Y109160D01*
X462220D02*
X497780D01*
X462220Y88840D02*
Y109160D01*
Y88840D02*
X497780D01*
Y109160D01*
X227160Y411220D02*
Y446780D01*
X206840D02*
X227160D01*
X206840Y411220D02*
Y446780D01*
Y411220D02*
X227160D01*
X397720Y264160D02*
X433280D01*
X397720Y243840D02*
Y264160D01*
Y243840D02*
X433280D01*
Y264160D01*
X437220D02*
X472780D01*
X437220Y243840D02*
Y264160D01*
Y243840D02*
X472780D01*
Y264160D01*
X19660Y284480D02*
X55220D01*
Y304800D01*
X19660D02*
X55220D01*
X19660Y284480D02*
Y304800D01*
X2540Y244500D02*
Y280060D01*
Y244500D02*
X22860D01*
Y280060D01*
X2540D02*
X22860D01*
X642220Y151160D02*
X677780D01*
X642220Y130840D02*
Y151160D01*
Y130840D02*
X677780D01*
Y151160D01*
X309880Y40640D02*
Y76200D01*
Y40640D02*
X330200D01*
Y76200D01*
X309880D02*
X330200D01*
X659160Y207220D02*
Y242780D01*
X638840D02*
X659160D01*
X638840Y207220D02*
Y242780D01*
Y207220D02*
X659160D01*
X401320Y86360D02*
X436880D01*
X401320Y66040D02*
Y86360D01*
Y66040D02*
X436880D01*
Y86360D01*
X208160Y168720D02*
Y204280D01*
X187840D02*
X208160D01*
X187840Y168720D02*
Y204280D01*
Y168720D02*
X208160D01*
X493220Y42840D02*
X528780D01*
Y63160D01*
X493220D02*
X528780D01*
X493220Y42840D02*
Y63160D01*
X491160Y46220D02*
Y81780D01*
X470840D02*
X491160D01*
X470840Y46220D02*
Y81780D01*
Y46220D02*
X491160D01*
X29750Y452850D02*
Y456182D01*
Y454516D01*
X19753D01*
X21419Y452850D01*
X514890Y4540D02*
Y7872D01*
Y6206D01*
X504893D01*
X506559Y4540D01*
X678000Y468000D02*
X681332D01*
X679666D01*
Y477997D01*
X678000Y476331D01*
X165000Y106000D02*
Y102668D01*
Y104334D01*
X174997D01*
X173331Y106000D01*
X125140Y439110D02*
X128472D01*
X126806D01*
Y449107D01*
X125140Y447441D01*
X286290Y4540D02*
Y7872D01*
Y6206D01*
X276293D01*
X277959Y4540D01*
X628110Y528860D02*
Y525528D01*
Y527194D01*
X638107D01*
X636441Y528860D01*
X409670D02*
Y525528D01*
Y527194D01*
X419667D01*
X418001Y528860D01*
X29750Y366490D02*
Y369822D01*
Y368156D01*
X19753D01*
X21419Y366490D01*
X72000Y342000D02*
X75332D01*
X73666D01*
Y351997D01*
X72000Y350331D01*
X220000Y388000D02*
Y397997D01*
X224998D01*
X226665Y396331D01*
Y392998D01*
X224998Y391332D01*
X220000D01*
X223332D02*
X226665Y388000D01*
X267000Y378997D02*
X273664D01*
X270332D01*
Y369000D01*
X552000Y97664D02*
Y91000D01*
X545336Y97664D01*
X543669D01*
X542003Y95998D01*
Y92666D01*
X543669Y91000D01*
X542003Y107661D02*
Y100997D01*
X547002D01*
X545336Y104329D01*
Y105995D01*
X547002Y107661D01*
X550334D01*
X552000Y105995D01*
Y102663D01*
X550334Y100997D01*
X321000Y93000D02*
Y96332D01*
Y94666D01*
X311003D01*
X312669Y93000D01*
X311003Y107995D02*
X312669Y104663D01*
X316002Y101331D01*
X319334D01*
X321000Y102997D01*
Y106329D01*
X319334Y107995D01*
X317668D01*
X316002Y106329D01*
Y101331D01*
X297000Y219000D02*
Y222332D01*
Y220666D01*
X287003D01*
X288669Y219000D01*
X297000Y232329D02*
X287003D01*
X292002Y227331D01*
Y233995D01*
X395000Y220000D02*
Y223332D01*
Y221666D01*
X385003D01*
X386669Y220000D01*
Y228331D02*
X385003Y229997D01*
Y233329D01*
X386669Y234995D01*
X393334D01*
X395000Y233329D01*
Y229997D01*
X393334Y228331D01*
X386669D01*
X513003Y226665D02*
Y220000D01*
X518002D01*
X516335Y223332D01*
Y224998D01*
X518002Y226665D01*
X521334D01*
X523000Y224998D01*
Y221666D01*
X521334Y220000D01*
X7998Y312000D02*
Y321997D01*
X3000Y316998D01*
X9664D01*
X3000Y345331D02*
X4666Y346997D01*
X7998D01*
X9664Y345331D01*
Y343665D01*
X7998Y341998D01*
X6332D01*
X7998D01*
X9664Y340332D01*
Y338666D01*
X7998Y337000D01*
X4666D01*
X3000Y338666D01*
X56000Y437997D02*
X59332D01*
X57666D01*
Y428000D01*
X56000D01*
X59332D01*
X70995Y436331D02*
X69329Y437997D01*
X65997D01*
X64331Y436331D01*
Y429666D01*
X65997Y428000D01*
X69329D01*
X70995Y429666D01*
X80992Y436331D02*
X79326Y437997D01*
X75993D01*
X74327Y436331D01*
Y434664D01*
X75993Y432998D01*
X79326D01*
X80992Y431332D01*
Y429666D01*
X79326Y428000D01*
X75993D01*
X74327Y429666D01*
X84324Y428000D02*
Y437997D01*
X89323D01*
X90989Y436331D01*
Y432998D01*
X89323Y431332D01*
X84324D01*
X94321Y428000D02*
X97653D01*
X95987D01*
Y437997D01*
X94321Y436331D01*
X56000Y525997D02*
X59332D01*
X57666D01*
Y516000D01*
X56000D01*
X59332D01*
X70995Y524331D02*
X69329Y525997D01*
X65997D01*
X64331Y524331D01*
Y517666D01*
X65997Y516000D01*
X69329D01*
X70995Y517666D01*
X80992Y524331D02*
X79326Y525997D01*
X75993D01*
X74327Y524331D01*
Y522664D01*
X75993Y520998D01*
X79326D01*
X80992Y519332D01*
Y517666D01*
X79326Y516000D01*
X75993D01*
X74327Y517666D01*
X84324Y516000D02*
Y525997D01*
X89323D01*
X90989Y524331D01*
Y520998D01*
X89323Y519332D01*
X84324D01*
X189000Y86997D02*
Y78666D01*
X190666Y77000D01*
X193998D01*
X195665Y78666D01*
Y86997D01*
X205661Y85331D02*
X203995Y86997D01*
X200663D01*
X198997Y85331D01*
Y83665D01*
X200663Y81998D01*
X203995D01*
X205661Y80332D01*
Y78666D01*
X203995Y77000D01*
X200663D01*
X198997Y78666D01*
X215658Y86997D02*
X208994D01*
Y77000D01*
X215658D01*
X208994Y81998D02*
X212326D01*
X218990Y77000D02*
Y86997D01*
X223989D01*
X225655Y85331D01*
Y81998D01*
X223989Y80332D01*
X218990D01*
X222323D02*
X225655Y77000D01*
X532000Y271000D02*
X522003D01*
Y275998D01*
X523669Y277665D01*
X527002D01*
X528668Y275998D01*
Y271000D01*
Y274332D02*
X532000Y277665D01*
X522003Y287661D02*
Y280997D01*
X532000D01*
Y287661D01*
X527002Y280997D02*
Y284329D01*
X523669Y297658D02*
X522003Y295992D01*
Y292660D01*
X523669Y290994D01*
X525336D01*
X527002Y292660D01*
Y295992D01*
X528668Y297658D01*
X530334D01*
X532000Y295992D01*
Y292660D01*
X530334Y290994D01*
X522003Y307655D02*
Y300990D01*
X532000D01*
Y307655D01*
X527002Y300990D02*
Y304323D01*
X522003Y310987D02*
Y317652D01*
Y314319D01*
X532000D01*
X169335Y367998D02*
X166003D01*
X167669D01*
Y359668D01*
X166003Y358002D01*
X164337D01*
X162671Y359668D01*
X172668Y358002D02*
Y367998D01*
X177666D01*
X179332Y366332D01*
Y363000D01*
X177666Y361334D01*
X172668D01*
X182665Y366332D02*
X184331Y367998D01*
X187663D01*
X189329Y366332D01*
Y364666D01*
X187663Y363000D01*
X185997D01*
X187663D01*
X189329Y361334D01*
Y359668D01*
X187663Y358002D01*
X184331D01*
X182665Y359668D01*
X41336Y369998D02*
X38003D01*
X39669D01*
Y361668D01*
X38003Y360002D01*
X36337D01*
X34671Y361668D01*
X44668Y360002D02*
Y369998D01*
X49666D01*
X51332Y368332D01*
Y365000D01*
X49666Y363334D01*
X44668D01*
X61329Y360002D02*
X54665D01*
X61329Y366666D01*
Y368332D01*
X59663Y369998D01*
X56331D01*
X54665Y368332D01*
X659002Y494998D02*
X655669D01*
X657336D01*
Y486668D01*
X655669Y485002D01*
X654003D01*
X652337Y486668D01*
X662334Y485002D02*
Y494998D01*
X667332D01*
X668998Y493332D01*
Y490000D01*
X667332Y488334D01*
X662334D01*
X672331Y485002D02*
X675663D01*
X673997D01*
Y494998D01*
X672331Y493332D01*
X60334Y164998D02*
X57002D01*
X58668D01*
Y156668D01*
X57002Y155002D01*
X55335D01*
X53669Y156668D01*
X63666Y164998D02*
X70331D01*
Y163332D01*
X63666Y156668D01*
Y155002D01*
X100334Y418998D02*
X97002D01*
X98668D01*
Y410668D01*
X97002Y409002D01*
X95336D01*
X93669Y410668D01*
X110331Y418998D02*
X106998Y417332D01*
X103666Y414000D01*
Y410668D01*
X105332Y409002D01*
X108665D01*
X110331Y410668D01*
Y412334D01*
X108665Y414000D01*
X103666D01*
X93002Y467334D02*
Y464002D01*
Y465668D01*
X101332D01*
X102998Y464002D01*
Y462336D01*
X101332Y460669D01*
X93002Y477331D02*
Y470666D01*
X98000D01*
X96334Y473998D01*
Y475664D01*
X98000Y477331D01*
X101332D01*
X102998Y475664D01*
Y472332D01*
X101332Y470666D01*
X194334Y491998D02*
X191002D01*
X192668D01*
Y483668D01*
X191002Y482002D01*
X189335D01*
X187669Y483668D01*
X202665Y482002D02*
Y491998D01*
X197666Y487000D01*
X204331D01*
X468334Y491998D02*
X465002D01*
X466668D01*
Y483668D01*
X465002Y482002D01*
X463335D01*
X461669Y483668D01*
X471666Y490332D02*
X473332Y491998D01*
X476665D01*
X478331Y490332D01*
Y488666D01*
X476665Y487000D01*
X474998D01*
X476665D01*
X478331Y485334D01*
Y483668D01*
X476665Y482002D01*
X473332D01*
X471666Y483668D01*
X544334Y52998D02*
X541002D01*
X542668D01*
Y44668D01*
X541002Y43002D01*
X539336D01*
X537669Y44668D01*
X554331Y43002D02*
X547666D01*
X554331Y49666D01*
Y51332D01*
X552664Y52998D01*
X549332D01*
X547666Y51332D01*
X483000Y30998D02*
X479668D01*
X481334D01*
Y22668D01*
X479668Y21002D01*
X478002D01*
X476335Y22668D01*
X486332Y21002D02*
X489664D01*
X487998D01*
Y30998D01*
X486332Y29332D01*
D11*
X200246Y263170D02*
G03*
X200246Y263170I-1796J0D01*
G01*
D12*
X67310Y288290D02*
Y290830D01*
X592030Y247730D02*
Y250270D01*
D13*
X308540Y332775D02*
Y317540D01*
Y322618D01*
X318697Y332775D01*
X311079Y325158D01*
X318697Y317540D01*
X323775Y332775D02*
X328853D01*
X326314D01*
Y317540D01*
X323775D01*
X328853D01*
X346628Y330236D02*
X344089Y332775D01*
X339010D01*
X336471Y330236D01*
Y327697D01*
X339010Y325158D01*
X344089D01*
X346628Y322618D01*
Y320079D01*
X344089Y317540D01*
X339010D01*
X336471Y320079D01*
X351706Y332775D02*
Y317540D01*
Y325158D01*
X361863D01*
Y332775D01*
Y317540D01*
X366941D02*
Y327697D01*
X372019Y332775D01*
X377098Y327697D01*
Y317540D01*
Y325158D01*
X366941D01*
X382176Y317540D02*
Y332775D01*
X392333Y317540D01*
Y332775D01*
X412646D02*
Y317540D01*
Y322618D01*
X422803Y332775D01*
X415186Y325158D01*
X422803Y317540D01*
X427881Y332775D02*
Y320079D01*
X430421Y317540D01*
X435499D01*
X438038Y320079D01*
Y332775D01*
X443116Y317540D02*
Y332775D01*
X448195Y327697D01*
X453273Y332775D01*
Y317540D01*
X458352D02*
Y327697D01*
X463430Y332775D01*
X468508Y327697D01*
Y317540D01*
Y325158D01*
X458352D01*
X473587Y317540D02*
Y332775D01*
X481204D01*
X483743Y330236D01*
Y325158D01*
X481204Y322618D01*
X473587D01*
X478665D02*
X483743Y317540D01*
X361540Y420775D02*
Y405540D01*
Y410618D01*
X371697Y420775D01*
X364079Y413158D01*
X371697Y405540D01*
X376775Y420775D02*
Y408079D01*
X379314Y405540D01*
X384393D01*
X386932Y408079D01*
Y420775D01*
X392010D02*
X397089D01*
X394549D01*
Y405540D01*
X392010D01*
X397089D01*
X404706D02*
Y420775D01*
X414863Y405540D01*
Y420775D01*
X427559D02*
X422480D01*
X419941Y418236D01*
Y408079D01*
X422480Y405540D01*
X427559D01*
X430098Y408079D01*
Y418236D01*
X427559Y420775D01*
D14*
X358540Y343872D02*
Y353869D01*
X361872Y350537D01*
X365205Y353869D01*
Y343872D01*
X370203Y350537D02*
X373535D01*
X375201Y348871D01*
Y343872D01*
X370203D01*
X368537Y345538D01*
X370203Y347205D01*
X375201D01*
X385198Y353869D02*
Y343872D01*
X380200D01*
X378534Y345538D01*
Y348871D01*
X380200Y350537D01*
X385198D01*
X393529Y343872D02*
X390196D01*
X388530Y345538D01*
Y348871D01*
X390196Y350537D01*
X393529D01*
X395195Y348871D01*
Y347205D01*
X388530D01*
X408524Y353869D02*
Y343872D01*
X413522D01*
X415188Y345538D01*
Y347205D01*
X413522Y348871D01*
X408524D01*
X413522D01*
X415188Y350537D01*
Y352203D01*
X413522Y353869D01*
X408524D01*
X418521Y350537D02*
Y345538D01*
X420187Y343872D01*
X425185D01*
Y342206D01*
X423519Y340540D01*
X421853D01*
X425185Y343872D02*
Y350537D01*
X302540Y374537D02*
Y364540D01*
X307538D01*
X309205Y366206D01*
Y367872D01*
X307538Y369538D01*
X302540D01*
X307538D01*
X309205Y371204D01*
Y372871D01*
X307538Y374537D01*
X302540D01*
X314203Y371204D02*
X317535D01*
X319201Y369538D01*
Y364540D01*
X314203D01*
X312537Y366206D01*
X314203Y367872D01*
X319201D01*
X322534Y364540D02*
X327532D01*
X329198Y366206D01*
X327532Y367872D01*
X324200D01*
X322534Y369538D01*
X324200Y371204D01*
X329198D01*
X337529Y364540D02*
X334197D01*
X332530Y366206D01*
Y369538D01*
X334197Y371204D01*
X337529D01*
X339195Y369538D01*
Y367872D01*
X332530D01*
X349192Y374537D02*
Y364540D01*
X344193D01*
X342527Y366206D01*
Y369538D01*
X344193Y371204D01*
X349192D01*
X364187Y364540D02*
X367519D01*
X369185Y366206D01*
Y369538D01*
X367519Y371204D01*
X364187D01*
X362521Y369538D01*
Y366206D01*
X364187Y364540D01*
X372518D02*
Y371204D01*
X377516D01*
X379182Y369538D01*
Y364540D01*
X392511D02*
Y371204D01*
X395843Y374537D01*
X399175Y371204D01*
Y364540D01*
Y369538D01*
X392511D01*
X402508Y371204D02*
Y364540D01*
Y367872D01*
X404174Y369538D01*
X405840Y371204D01*
X407506D01*
X419169Y374537D02*
Y364540D01*
X414171D01*
X412505Y366206D01*
Y369538D01*
X414171Y371204D01*
X419169D01*
X422501D02*
Y366206D01*
X424168Y364540D01*
X429166D01*
Y371204D01*
X432498Y364540D02*
X435830D01*
X434164D01*
Y371204D01*
X432498D01*
X440829Y364540D02*
Y371204D01*
X445827D01*
X447493Y369538D01*
Y364540D01*
X452492D02*
X455824D01*
X457490Y366206D01*
Y369538D01*
X455824Y371204D01*
X452492D01*
X450826Y369538D01*
Y366206D01*
X452492Y364540D01*
X470819Y374537D02*
Y366206D01*
X472485Y364540D01*
X475817D01*
X477484Y366206D01*
Y374537D01*
X480816Y364540D02*
Y371204D01*
X485814D01*
X487480Y369538D01*
Y364540D01*
X492479D02*
X495811D01*
X497477Y366206D01*
Y369538D01*
X495811Y371204D01*
X492479D01*
X490813Y369538D01*
Y366206D01*
X492479Y364540D01*
X321540Y391869D02*
Y381872D01*
X326538D01*
X328204Y383538D01*
Y390203D01*
X326538Y391869D01*
X321540D01*
X336535Y381872D02*
X333203D01*
X331537Y383538D01*
Y386871D01*
X333203Y388537D01*
X336535D01*
X338201Y386871D01*
Y385205D01*
X331537D01*
X341534Y388537D02*
X344866Y381872D01*
X348198Y388537D01*
X356529Y381872D02*
X353196D01*
X351530Y383538D01*
Y386871D01*
X353196Y388537D01*
X356529D01*
X358195Y386871D01*
Y385205D01*
X351530D01*
X361527Y381872D02*
X364859D01*
X363193D01*
Y391869D01*
X361527D01*
X371524Y381872D02*
X374856D01*
X376522Y383538D01*
Y386871D01*
X374856Y388537D01*
X371524D01*
X369858Y386871D01*
Y383538D01*
X371524Y381872D01*
X379855Y378540D02*
Y388537D01*
X384853D01*
X386519Y386871D01*
Y383538D01*
X384853Y381872D01*
X379855D01*
X389851D02*
Y388537D01*
X391517D01*
X393184Y386871D01*
Y381872D01*
Y386871D01*
X394850Y388537D01*
X396516Y386871D01*
Y381872D01*
X404846D02*
X401514D01*
X399848Y383538D01*
Y386871D01*
X401514Y388537D01*
X404846D01*
X406513Y386871D01*
Y385205D01*
X399848D01*
X409845Y381872D02*
Y388537D01*
X414843D01*
X416509Y386871D01*
Y381872D01*
X421508Y390203D02*
Y388537D01*
X419842D01*
X423174D01*
X421508D01*
Y383538D01*
X423174Y381872D01*
X438169Y391869D02*
Y381872D01*
X443167D01*
X444834Y383538D01*
Y385205D01*
X443167Y386871D01*
X438169D01*
X443167D01*
X444834Y388537D01*
Y390203D01*
X443167Y391869D01*
X438169D01*
X449832Y381872D02*
X453164D01*
X454830Y383538D01*
Y386871D01*
X453164Y388537D01*
X449832D01*
X448166Y386871D01*
Y383538D01*
X449832Y381872D01*
X459829Y388537D02*
X463161D01*
X464827Y386871D01*
Y381872D01*
X459829D01*
X458163Y383538D01*
X459829Y385205D01*
X464827D01*
X468159Y388537D02*
Y381872D01*
Y385205D01*
X469826Y386871D01*
X471492Y388537D01*
X473158D01*
X484821Y391869D02*
Y381872D01*
X479822D01*
X478156Y383538D01*
Y386871D01*
X479822Y388537D01*
X484821D01*
D15*
X108335Y70499D02*
X106002D01*
X107169D01*
Y64667D01*
X106002Y63501D01*
X104836D01*
X103670Y64667D01*
X110667Y63501D02*
Y70499D01*
X114166D01*
X115333Y69333D01*
Y67000D01*
X114166Y65834D01*
X110667D01*
X121164Y63501D02*
Y70499D01*
X117665Y67000D01*
X122330D01*
M02*
