G04*
G04 #@! TF.GenerationSoftware,Altium Limited,Altium Designer,22.11.1 (43)*
G04*
G04 Layer_Color=8388736*
%FSLAX44Y44*%
%MOMM*%
G71*
G04*
G04 #@! TF.SameCoordinates,2AA7A9AF-3E7F-4844-AC60-F76D4B8FDDD6*
G04*
G04*
G04 #@! TF.FilePolarity,Negative*
G04*
G01*
G75*
%ADD36R,1.1000X1.5000*%
%ADD37R,1.8000X3.2000*%
%ADD38R,0.9000X1.5000*%
%ADD39R,1.5000X0.9000*%
%ADD40R,0.7588X0.8858*%
%ADD41R,1.0000X1.0000*%
%ADD42R,3.7000X2.4000*%
%ADD43R,0.8000X2.4000*%
%ADD44R,2.8000X2.7000*%
%ADD45R,2.7000X2.8000*%
%ADD46R,1.3000X0.8000*%
%ADD47R,0.8000X1.3000*%
%ADD48C,3.0480*%
%ADD49R,2.9000X2.2000*%
%ADD50R,1.6000X1.8000*%
%ADD51R,1.4500X0.5000*%
%ADD52R,2.1000X2.1000*%
%ADD53R,0.6700X1.6200*%
%ADD54R,1.6200X0.6700*%
%ADD55R,1.1000X0.8000*%
%ADD56R,1.5000X1.1000*%
%ADD57C,3.4000*%
%ADD58C,1.9000*%
%ADD59R,1.9000X1.9000*%
%ADD60O,1.8000X2.2000*%
%ADD61R,1.8000X2.2000*%
%ADD62R,2.2000X1.8000*%
%ADD63O,2.2000X1.8000*%
%ADD64C,4.2040*%
%ADD65C,7.4600*%
%ADD66C,7.6000*%
%ADD67C,2.1000*%
%ADD68R,2.1000X2.1000*%
%ADD69C,2.0200*%
G04:AMPARAMS|DCode=70|XSize=2.2mm|YSize=1.4mm|CornerRadius=0.46mm|HoleSize=0mm|Usage=FLASHONLY|Rotation=0.000|XOffset=0mm|YOffset=0mm|HoleType=Round|Shape=RoundedRectangle|*
%AMROUNDEDRECTD70*
21,1,2.2000,0.4800,0,0,0.0*
21,1,1.2800,1.4000,0,0,0.0*
1,1,0.9200,0.6400,-0.2400*
1,1,0.9200,-0.6400,-0.2400*
1,1,0.9200,-0.6400,0.2400*
1,1,0.9200,0.6400,0.2400*
%
%ADD70ROUNDEDRECTD70*%
D36*
X584000Y338000D02*
D03*
X603000D02*
D03*
X22500Y522000D02*
D03*
X41500D02*
D03*
X144120Y233680D02*
D03*
X125120D02*
D03*
X42500Y439000D02*
D03*
X23500D02*
D03*
X256500Y338000D02*
D03*
X275500D02*
D03*
X256500Y230000D02*
D03*
X275500D02*
D03*
X460500Y52000D02*
D03*
X441500D02*
D03*
X426060Y53340D02*
D03*
X407060D02*
D03*
X240000Y85000D02*
D03*
X259000D02*
D03*
X260500Y480000D02*
D03*
X241500D02*
D03*
X501500Y75000D02*
D03*
X520500D02*
D03*
X445500Y230000D02*
D03*
X464500D02*
D03*
X527500Y99000D02*
D03*
X508500D02*
D03*
X432500D02*
D03*
X451500D02*
D03*
X489500D02*
D03*
X470500D02*
D03*
X425000Y254000D02*
D03*
X406000D02*
D03*
X464500D02*
D03*
X445500D02*
D03*
X27940Y294640D02*
D03*
X46940D02*
D03*
X669500Y141000D02*
D03*
X650500D02*
D03*
X428600Y76200D02*
D03*
X409600D02*
D03*
X501500Y53000D02*
D03*
X520500D02*
D03*
D37*
X142000Y121500D02*
D03*
Y162500D02*
D03*
X75000Y142000D02*
D03*
Y101000D02*
D03*
D38*
X292000Y416860D02*
D03*
X273000D02*
D03*
X273500Y393860D02*
D03*
X292500D02*
D03*
X125120Y210820D02*
D03*
X144120D02*
D03*
X103480Y358140D02*
D03*
X84480D02*
D03*
X104140Y215900D02*
D03*
X85140D02*
D03*
X84480Y193040D02*
D03*
X103480D02*
D03*
X103500Y170000D02*
D03*
X84500D02*
D03*
X218500Y260000D02*
D03*
X237500D02*
D03*
X414500Y99000D02*
D03*
X395500D02*
D03*
X237500Y438000D02*
D03*
X256500D02*
D03*
X601320Y363220D02*
D03*
X582320D02*
D03*
X609500Y229000D02*
D03*
X590500D02*
D03*
X426000Y230000D02*
D03*
X407000D02*
D03*
X71780Y307340D02*
D03*
X90780D02*
D03*
X381000Y99060D02*
D03*
X362000D02*
D03*
X296827Y90525D02*
D03*
X277827D02*
D03*
D39*
X177000Y400500D02*
D03*
Y381500D02*
D03*
X73660Y273660D02*
D03*
Y254660D02*
D03*
X613000Y472500D02*
D03*
Y453500D02*
D03*
X590000D02*
D03*
Y472500D02*
D03*
X636000Y434500D02*
D03*
Y415500D02*
D03*
X342900Y85700D02*
D03*
Y66700D02*
D03*
Y48920D02*
D03*
Y67920D02*
D03*
X96000Y256500D02*
D03*
Y237500D02*
D03*
X670000Y253500D02*
D03*
Y272500D02*
D03*
X276860Y67920D02*
D03*
Y48920D02*
D03*
X671000Y235000D02*
D03*
Y216000D02*
D03*
X648000Y272500D02*
D03*
Y253500D02*
D03*
D40*
X73660Y289560D02*
D03*
X88900D02*
D03*
X613620Y249000D02*
D03*
X598380D02*
D03*
D41*
X240000Y393000D02*
D03*
X256000D02*
D03*
Y374000D02*
D03*
X240000D02*
D03*
Y418000D02*
D03*
X256000D02*
D03*
X601000Y384000D02*
D03*
X585000D02*
D03*
D42*
X230000Y172000D02*
D03*
D43*
X255400Y110000D02*
D03*
X242700D02*
D03*
X230000D02*
D03*
X217300D02*
D03*
X204600D02*
D03*
D44*
X266000Y308000D02*
D03*
Y259000D02*
D03*
D45*
X412500Y287000D02*
D03*
X461500D02*
D03*
D46*
X171500Y438500D02*
D03*
Y429000D02*
D03*
Y419500D02*
D03*
X198500Y438500D02*
D03*
Y419500D02*
D03*
X389420Y56540D02*
D03*
Y66040D02*
D03*
Y75540D02*
D03*
X362420Y56540D02*
D03*
Y75540D02*
D03*
D47*
X31500Y249500D02*
D03*
X41000D02*
D03*
X50500D02*
D03*
X31500Y276500D02*
D03*
X50500D02*
D03*
X671500Y192500D02*
D03*
X662000D02*
D03*
X652500D02*
D03*
X671500Y165500D02*
D03*
X652500D02*
D03*
D48*
X106000Y448000D02*
D03*
X669000Y18000D02*
D03*
X76000Y23000D02*
D03*
X668000Y509000D02*
D03*
D49*
X22860Y92960D02*
D03*
Y60960D02*
D03*
D50*
X46495Y233000D02*
D03*
Y169000D02*
D03*
D51*
X48745Y214000D02*
D03*
Y207500D02*
D03*
Y201000D02*
D03*
Y194500D02*
D03*
Y188000D02*
D03*
D52*
X21995Y213000D02*
D03*
Y189000D02*
D03*
D53*
X182000Y258000D02*
D03*
X174000D02*
D03*
X166000D02*
D03*
X158000D02*
D03*
X150000D02*
D03*
X142000D02*
D03*
X134000D02*
D03*
X126000D02*
D03*
Y342000D02*
D03*
X134000D02*
D03*
X142000D02*
D03*
X150000D02*
D03*
X158000D02*
D03*
X166000D02*
D03*
X174000D02*
D03*
X182000D02*
D03*
D54*
X112000Y272000D02*
D03*
Y280000D02*
D03*
Y288000D02*
D03*
Y296000D02*
D03*
Y304000D02*
D03*
Y312000D02*
D03*
Y320000D02*
D03*
Y328000D02*
D03*
X196000D02*
D03*
Y320000D02*
D03*
Y312000D02*
D03*
Y304000D02*
D03*
Y296000D02*
D03*
Y288000D02*
D03*
Y280000D02*
D03*
Y272000D02*
D03*
D55*
X68580Y208400D02*
D03*
Y223400D02*
D03*
Y193040D02*
D03*
Y178040D02*
D03*
D56*
X221000Y215500D02*
D03*
Y234500D02*
D03*
X198000Y215500D02*
D03*
Y234500D02*
D03*
X229000Y281500D02*
D03*
Y300500D02*
D03*
X175000Y215500D02*
D03*
Y234500D02*
D03*
X636000Y452500D02*
D03*
Y471500D02*
D03*
X297180Y67920D02*
D03*
Y48920D02*
D03*
X184000Y151500D02*
D03*
Y132500D02*
D03*
X217000Y419500D02*
D03*
Y438500D02*
D03*
X12700Y271780D02*
D03*
Y252780D02*
D03*
X320040Y67920D02*
D03*
Y48920D02*
D03*
X649000Y215500D02*
D03*
Y234500D02*
D03*
X198000Y177000D02*
D03*
Y196000D02*
D03*
X481000Y54500D02*
D03*
Y73500D02*
D03*
D57*
X152400Y508000D02*
D03*
D58*
X76200Y497840D02*
D03*
X50800D02*
D03*
X25400D02*
D03*
X76200Y472440D02*
D03*
X50800D02*
D03*
Y386080D02*
D03*
X76200D02*
D03*
X25400Y411480D02*
D03*
X50800D02*
D03*
X76200D02*
D03*
X25400Y342000D02*
D03*
X50800Y316600D02*
D03*
X25400D02*
D03*
D59*
Y472440D02*
D03*
Y386080D02*
D03*
X50800Y342000D02*
D03*
D60*
X533400Y25400D02*
D03*
X635000D02*
D03*
X609600D02*
D03*
X584200D02*
D03*
X558800D02*
D03*
X142240Y86360D02*
D03*
X116840D02*
D03*
X330200Y25400D02*
D03*
X355600D02*
D03*
X381000D02*
D03*
X406400D02*
D03*
X431800D02*
D03*
X457200D02*
D03*
X304800D02*
D03*
X609600Y508000D02*
D03*
X457200D02*
D03*
X482600D02*
D03*
X508000D02*
D03*
X533400D02*
D03*
X558800D02*
D03*
X584200D02*
D03*
X391160D02*
D03*
X187960D02*
D03*
X213360D02*
D03*
X238760D02*
D03*
X264160D02*
D03*
X289560D02*
D03*
X314960D02*
D03*
X340360D02*
D03*
X365760D02*
D03*
X290450Y125730D02*
D03*
X315850D02*
D03*
X341250D02*
D03*
X366650D02*
D03*
X392050D02*
D03*
X417450D02*
D03*
X442850D02*
D03*
X468250D02*
D03*
X493650D02*
D03*
X519050D02*
D03*
X544450D02*
D03*
X569850D02*
D03*
X595250D02*
D03*
X620650D02*
D03*
X290450Y201930D02*
D03*
X315850D02*
D03*
X341250D02*
D03*
X366650D02*
D03*
X392050D02*
D03*
X417450D02*
D03*
X442850D02*
D03*
X468250D02*
D03*
X493650D02*
D03*
X519050D02*
D03*
X544450D02*
D03*
X569850D02*
D03*
X595250D02*
D03*
D61*
X508000Y25400D02*
D03*
X167640Y86360D02*
D03*
X279400Y25400D02*
D03*
X635000Y508000D02*
D03*
X416560D02*
D03*
X620650Y201930D02*
D03*
D62*
X662000Y469000D02*
D03*
X146000Y446000D02*
D03*
D63*
X662000Y418200D02*
D03*
Y443600D02*
D03*
X146000Y420600D02*
D03*
Y369800D02*
D03*
Y395200D02*
D03*
D64*
X22000Y23000D02*
D03*
X24000Y132000D02*
D03*
D65*
X139700Y25400D02*
D03*
D66*
X660400Y76200D02*
D03*
Y355600D02*
D03*
D67*
X612500Y316500D02*
D03*
X547500D02*
D03*
Y271500D02*
D03*
X252500Y61500D02*
D03*
Y16500D02*
D03*
D68*
X612500Y271500D02*
D03*
X187500Y61500D02*
D03*
D69*
Y16500D02*
D03*
D70*
X21995Y168000D02*
D03*
Y234000D02*
D03*
M02*
