G04*
G04 #@! TF.GenerationSoftware,Altium Limited,Altium Designer,22.11.1 (43)*
G04*
G04 Layer_Color=8421504*
%FSLAX44Y44*%
%MOMM*%
G71*
G04*
G04 #@! TF.SameCoordinates,2AA7A9AF-3E7F-4844-AC60-F76D4B8FDDD6*
G04*
G04*
G04 #@! TF.FilePolarity,Positive*
G04*
G01*
G75*
%ADD16R,0.9000X1.3000*%
%ADD17R,1.6000X3.0000*%
%ADD18R,0.7000X1.3000*%
%ADD19R,1.3000X0.7000*%
%ADD20R,0.5588X0.6858*%
%ADD21R,0.8000X0.8000*%
%ADD22R,3.5000X2.2000*%
%ADD23R,0.6000X2.2000*%
%ADD24R,2.6000X2.5000*%
%ADD25R,2.5000X2.6000*%
%ADD26R,1.1000X0.6000*%
%ADD27R,0.6000X1.1000*%
%ADD28R,2.7000X2.0000*%
%ADD29R,1.4000X1.6000*%
%ADD30R,1.3500X0.4000*%
%ADD31R,1.9000X1.9000*%
%ADD32R,0.5500X1.5000*%
%ADD33R,1.5000X0.5500*%
%ADD34R,0.9000X0.6000*%
%ADD35R,1.3000X0.9000*%
D16*
X584000Y338000D02*
D03*
X603000D02*
D03*
X22500Y522000D02*
D03*
X41500D02*
D03*
X144120Y233680D02*
D03*
X125120D02*
D03*
X42500Y439000D02*
D03*
X23500D02*
D03*
X256500Y338000D02*
D03*
X275500D02*
D03*
X256500Y230000D02*
D03*
X275500D02*
D03*
X460500Y52000D02*
D03*
X441500D02*
D03*
X426060Y53340D02*
D03*
X407060D02*
D03*
X240000Y85000D02*
D03*
X259000D02*
D03*
X260500Y480000D02*
D03*
X241500D02*
D03*
X501500Y75000D02*
D03*
X520500D02*
D03*
X445500Y230000D02*
D03*
X464500D02*
D03*
X527500Y99000D02*
D03*
X508500D02*
D03*
X432500D02*
D03*
X451500D02*
D03*
X489500D02*
D03*
X470500D02*
D03*
X425000Y254000D02*
D03*
X406000D02*
D03*
X464500D02*
D03*
X445500D02*
D03*
X27940Y294640D02*
D03*
X46940D02*
D03*
X669500Y141000D02*
D03*
X650500D02*
D03*
X428600Y76200D02*
D03*
X409600D02*
D03*
X501500Y53000D02*
D03*
X520500D02*
D03*
D17*
X142000Y121500D02*
D03*
Y162500D02*
D03*
X75000Y142000D02*
D03*
Y101000D02*
D03*
D18*
X292000Y416860D02*
D03*
X273000D02*
D03*
X273500Y393860D02*
D03*
X292500D02*
D03*
X125120Y210820D02*
D03*
X144120D02*
D03*
X103480Y358140D02*
D03*
X84480D02*
D03*
X104140Y215900D02*
D03*
X85140D02*
D03*
X84480Y193040D02*
D03*
X103480D02*
D03*
X103500Y170000D02*
D03*
X84500D02*
D03*
X218500Y260000D02*
D03*
X237500D02*
D03*
X414500Y99000D02*
D03*
X395500D02*
D03*
X237500Y438000D02*
D03*
X256500D02*
D03*
X601320Y363220D02*
D03*
X582320D02*
D03*
X609500Y229000D02*
D03*
X590500D02*
D03*
X426000Y230000D02*
D03*
X407000D02*
D03*
X71780Y307340D02*
D03*
X90780D02*
D03*
X381000Y99060D02*
D03*
X362000D02*
D03*
X296827Y90525D02*
D03*
X277827D02*
D03*
D19*
X177000Y400500D02*
D03*
Y381500D02*
D03*
X73660Y273660D02*
D03*
Y254660D02*
D03*
X613000Y472500D02*
D03*
Y453500D02*
D03*
X590000D02*
D03*
Y472500D02*
D03*
X636000Y434500D02*
D03*
Y415500D02*
D03*
X342900Y85700D02*
D03*
Y66700D02*
D03*
Y48920D02*
D03*
Y67920D02*
D03*
X96000Y256500D02*
D03*
Y237500D02*
D03*
X670000Y253500D02*
D03*
Y272500D02*
D03*
X276860Y67920D02*
D03*
Y48920D02*
D03*
X671000Y235000D02*
D03*
Y216000D02*
D03*
X648000Y272500D02*
D03*
Y253500D02*
D03*
D20*
X73660Y289560D02*
D03*
X88900D02*
D03*
X613620Y249000D02*
D03*
X598380D02*
D03*
D21*
X240000Y393000D02*
D03*
X256000D02*
D03*
Y374000D02*
D03*
X240000D02*
D03*
Y418000D02*
D03*
X256000D02*
D03*
X601000Y384000D02*
D03*
X585000D02*
D03*
D22*
X230000Y172000D02*
D03*
D23*
X255400Y110000D02*
D03*
X242700D02*
D03*
X230000D02*
D03*
X217300D02*
D03*
X204600D02*
D03*
D24*
X266000Y308000D02*
D03*
Y259000D02*
D03*
D25*
X412500Y287000D02*
D03*
X461500D02*
D03*
D26*
X171500Y438500D02*
D03*
Y429000D02*
D03*
Y419500D02*
D03*
X198500Y438500D02*
D03*
Y419500D02*
D03*
X389420Y56540D02*
D03*
Y66040D02*
D03*
Y75540D02*
D03*
X362420Y56540D02*
D03*
Y75540D02*
D03*
D27*
X31500Y249500D02*
D03*
X41000D02*
D03*
X50500D02*
D03*
X31500Y276500D02*
D03*
X50500D02*
D03*
X671500Y192500D02*
D03*
X662000D02*
D03*
X652500D02*
D03*
X671500Y165500D02*
D03*
X652500D02*
D03*
D28*
X22860Y92960D02*
D03*
Y60960D02*
D03*
D29*
X46495Y233000D02*
D03*
Y169000D02*
D03*
D30*
X48745Y214000D02*
D03*
Y207500D02*
D03*
Y201000D02*
D03*
Y194500D02*
D03*
Y188000D02*
D03*
D31*
X21995Y213000D02*
D03*
Y189000D02*
D03*
D32*
X182000Y258000D02*
D03*
X174000D02*
D03*
X166000D02*
D03*
X158000D02*
D03*
X150000D02*
D03*
X142000D02*
D03*
X134000D02*
D03*
X126000D02*
D03*
Y342000D02*
D03*
X134000D02*
D03*
X142000D02*
D03*
X150000D02*
D03*
X158000D02*
D03*
X166000D02*
D03*
X174000D02*
D03*
X182000D02*
D03*
D33*
X112000Y272000D02*
D03*
Y280000D02*
D03*
Y288000D02*
D03*
Y296000D02*
D03*
Y304000D02*
D03*
Y312000D02*
D03*
Y320000D02*
D03*
Y328000D02*
D03*
X196000D02*
D03*
Y320000D02*
D03*
Y312000D02*
D03*
Y304000D02*
D03*
Y296000D02*
D03*
Y288000D02*
D03*
Y280000D02*
D03*
Y272000D02*
D03*
D34*
X68580Y208400D02*
D03*
Y223400D02*
D03*
Y193040D02*
D03*
Y178040D02*
D03*
D35*
X221000Y215500D02*
D03*
Y234500D02*
D03*
X198000Y215500D02*
D03*
Y234500D02*
D03*
X229000Y281500D02*
D03*
Y300500D02*
D03*
X175000Y215500D02*
D03*
Y234500D02*
D03*
X636000Y452500D02*
D03*
Y471500D02*
D03*
X297180Y67920D02*
D03*
Y48920D02*
D03*
X184000Y151500D02*
D03*
Y132500D02*
D03*
X217000Y419500D02*
D03*
Y438500D02*
D03*
X12700Y271780D02*
D03*
Y252780D02*
D03*
X320040Y67920D02*
D03*
Y48920D02*
D03*
X649000Y215500D02*
D03*
Y234500D02*
D03*
X198000Y177000D02*
D03*
Y196000D02*
D03*
X481000Y54500D02*
D03*
Y73500D02*
D03*
M02*
