M48
;Layer_Color=9474304
;FILE_FORMAT=2:4
METRIC,LZ
;TYPE=PLATED
T1F00S00C0.3000
T3F00S00C1.0000
T4F00S00C1.1000
T5F00S00C1.5000
T6F00S00C3.2000
;TYPE=NON_PLATED
T7F00S00C3.2000
%
T01
X34544Y05742
X36068Y048
X378Y054
X370887Y06369
X37592Y07366
X37084Y08302
X37338Y09652
X34Y096
X328Y081
X3937Y03302
X48006Y04318
X50038
X51054Y06604
X50546Y0865
X53454Y08128
X46482
X4572Y06858
X441875Y158986
X448063Y179317
X36322Y18034
X337174Y229247
X32258Y22352
X43434Y27178
X47752Y254
X57405Y27164
X599Y271
X61654Y294
X64516Y18288
X663598Y178458
X66294Y1651
X645Y157821
X63246Y16256
X5969Y1651
X68072Y15748
X648Y122
X64262Y11684
X31496Y08128
X28Y059
X224Y091
X21082Y14732
X18034Y1651
X167Y173
X154Y179
X145Y18
X144Y172
X155Y164
X166Y153
X172347Y192224
X17272Y20104
X152532Y203386
X15748Y21082
X19812Y2055
X20777Y20377
X21844Y19812
X229Y188
X28448Y14478
X300075Y220625
X2921Y23876
X28956Y25654
X18476Y286068
X168785Y290017
X14986Y27432
X09652Y27178
X098331Y297909
X09928Y309043
X0762Y26416
X03302Y26162
X015Y296
X06096Y23368
X05842Y22098
X11176Y2159
Y19304
X0889Y10668
X04318Y1143
X0762Y04318
X1835Y31
X20574Y34544
X20828Y36949
X218468Y370812
X224739Y37846
X170488Y391169
X182447Y426618
X203Y4275
X20066Y44704
X20828Y46808
X22098Y47752
X263Y49
X28194Y48768
X29972Y37592
X303298Y368765
X11938Y36322
X11684Y37592
X094795Y32811
X07366Y44196
X095Y498
X06858Y5207
X3175Y47244
X36322Y48006
X52Y49
Y497
X545Y418
X553791Y405793
X55372Y39116
X56896Y39624
X571Y383
X567Y375
X59113Y317
X61214Y43942
X47Y354
Y345
T03
X5475Y2715
X6125
X2525Y0615
Y0165
X1875
Y0615
X5475Y3165
X6125
T04
X3302Y0254
X3556
X381
X4064
X4318
X4572
X508
X5334
X5588
X5842
X6096
X635
X62065Y12573
X59525
X56985
X54445
X51905
X49365
X46825
X44285
X41745
X39205
X36665
X34125
Y20193
X36665
X39205
X41745
X44285
X46825
X49365
X51905
X54445
X56985
X59525
X62065
X31585
X29045
Y12573
X31585
X3048Y0254
X2794
X16764Y08636
X14224
X11684
X0508Y3166
Y342
X0254
Y3166
Y38608
X0508
X0762
Y41148
X0508
X0254
Y47244
Y49784
X0508
X0762
Y47244
X0508
X146Y446
Y4206
Y3952
Y3698
X18796Y508
X21336
X23876
X26416
X28956
X31496
X34036
X36576
X39116
X41656
X4572
X4826
X508
X5334
X5588
X5842
X6096
X635
X662Y469
Y4436
Y4182
T05
X022Y023
X024Y132
T06
X6604Y0762
X1397Y0254
X6604Y3556
T07
X1524Y508
M30
