G04*
G04 #@! TF.GenerationSoftware,Altium Limited,Altium Designer,22.11.1 (43)*
G04*
G04 Layer_Color=16777215*
%FSLAX44Y44*%
%MOMM*%
G71*
G04*
G04 #@! TF.SameCoordinates,2AA7A9AF-3E7F-4844-AC60-F76D4B8FDDD6*
G04*
G04*
G04 #@! TF.FilePolarity,Positive*
G04*
G01*
G75*
%ADD10C,0.2000*%
%ADD86C,0.3810*%
%ADD87C,0.5080*%
D10*
X0Y-400000D02*
X940000D01*
Y-870000D02*
Y-400000D01*
X-10000Y-870000D02*
X940000D01*
X-10000D02*
Y-400000D01*
X0D01*
X-10000Y-490000D02*
X940000D01*
X-10000Y-650000D02*
X940000D01*
X620000Y-490000D02*
Y-400000D01*
X440000Y-650000D02*
Y-490000D01*
D86*
X-232648Y1304123D02*
X-246190D01*
Y1293967D01*
X-239419D01*
X-246190D01*
Y1283810D01*
X-225877D02*
X-219105D01*
X-222491D01*
Y1297352D01*
X-225877D01*
X-208949Y1283810D02*
X-202178D01*
X-205563D01*
Y1304123D01*
X-208949D01*
X-181864Y1283810D02*
X-188635D01*
X-192021Y1287196D01*
Y1293967D01*
X-188635Y1297352D01*
X-181864D01*
X-178479Y1293967D01*
Y1290581D01*
X-192021D01*
X-171707Y1283810D02*
X-161551D01*
X-158165Y1287196D01*
X-161551Y1290581D01*
X-168322D01*
X-171707Y1293967D01*
X-168322Y1297352D01*
X-158165D01*
X-246190Y1257509D02*
X-232648Y1243967D01*
X-246190D02*
X-232648Y1257509D01*
X-246190Y1250738D02*
X-232648D01*
X-239419Y1243967D02*
Y1257509D01*
X-225877Y1240581D02*
Y1243967D01*
X-222491D01*
Y1240581D01*
X-225877D01*
X-195406Y1257509D02*
X-198792Y1260895D01*
X-205563D01*
X-208949Y1257509D01*
Y1243967D01*
X-205563Y1240581D01*
X-198792D01*
X-195406Y1243967D01*
Y1250738D01*
X-202178D01*
X-188635Y1260895D02*
X-175093D01*
X-181864D01*
Y1240581D01*
X-158165Y1260895D02*
X-164936D01*
X-168322Y1257509D01*
Y1243967D01*
X-164936Y1240581D01*
X-158165D01*
X-154780Y1243967D01*
Y1257509D01*
X-158165Y1260895D01*
X-127695Y1250738D02*
X-114153D01*
X-87068Y1260895D02*
X-73526D01*
X-80297D01*
Y1240581D01*
X-63369D02*
X-56598D01*
X-53212Y1243967D01*
Y1250738D01*
X-56598Y1254123D01*
X-63369D01*
X-66755Y1250738D01*
Y1243967D01*
X-63369Y1240581D01*
X-46441Y1233810D02*
Y1254123D01*
X-36285D01*
X-32899Y1250738D01*
Y1243967D01*
X-36285Y1240581D01*
X-46441D01*
X4342Y1260895D02*
X-2429D01*
X-5814Y1257509D01*
Y1243967D01*
X-2429Y1240581D01*
X4342D01*
X7728Y1243967D01*
Y1257509D01*
X4342Y1260895D01*
X14499Y1254123D02*
X21270Y1240581D01*
X28041Y1254123D01*
X44969Y1240581D02*
X38198D01*
X34812Y1243967D01*
Y1250738D01*
X38198Y1254123D01*
X44969D01*
X48355Y1250738D01*
Y1247352D01*
X34812D01*
X55126Y1254123D02*
Y1240581D01*
Y1247352D01*
X58511Y1250738D01*
X61897Y1254123D01*
X65283D01*
X75439Y1240581D02*
X82210D01*
X78825D01*
Y1260895D01*
X75439D01*
X95753Y1254123D02*
X102524D01*
X105909Y1250738D01*
Y1240581D01*
X95753D01*
X92367Y1243967D01*
X95753Y1247352D01*
X105909D01*
X112680Y1254123D02*
Y1243967D01*
X116066Y1240581D01*
X126223D01*
Y1237196D01*
X122837Y1233810D01*
X119452D01*
X126223Y1240581D02*
Y1254123D01*
X-246190Y1217509D02*
X-232648Y1203967D01*
X-246190D02*
X-232648Y1217509D01*
X-246190Y1210738D02*
X-232648D01*
X-239419Y1203967D02*
Y1217509D01*
X-225877Y1200581D02*
Y1203967D01*
X-222491D01*
Y1200581D01*
X-225877D01*
X-195406Y1217509D02*
X-198792Y1220895D01*
X-205563D01*
X-208949Y1217509D01*
Y1203967D01*
X-205563Y1200581D01*
X-198792D01*
X-195406Y1203967D01*
Y1210738D01*
X-202178D01*
X-188635Y1220895D02*
X-175093D01*
X-181864D01*
Y1200581D01*
X-168322D02*
Y1220895D01*
X-158165D01*
X-154780Y1217509D01*
Y1210738D01*
X-158165Y1207352D01*
X-168322D01*
X-127695Y1210738D02*
X-114153D01*
X-87068Y1220895D02*
X-73526D01*
X-80297D01*
Y1200581D01*
X-63369D02*
X-56598D01*
X-53212Y1203967D01*
Y1210738D01*
X-56598Y1214123D01*
X-63369D01*
X-66755Y1210738D01*
Y1203967D01*
X-63369Y1200581D01*
X-46441Y1193810D02*
Y1214123D01*
X-36285D01*
X-32899Y1210738D01*
Y1203967D01*
X-36285Y1200581D01*
X-46441D01*
X-5814D02*
Y1220895D01*
X4342D01*
X7728Y1217509D01*
Y1210738D01*
X4342Y1207352D01*
X-5814D01*
X17885Y1214123D02*
X24656D01*
X28041Y1210738D01*
Y1200581D01*
X17885D01*
X14499Y1203967D01*
X17885Y1207352D01*
X28041D01*
X34812Y1200581D02*
X44969D01*
X48355Y1203967D01*
X44969Y1207352D01*
X38198D01*
X34812Y1210738D01*
X38198Y1214123D01*
X48355D01*
X58511Y1217509D02*
Y1214123D01*
X55126D01*
X61897D01*
X58511D01*
Y1203967D01*
X61897Y1200581D01*
X82210D02*
X75439D01*
X72054Y1203967D01*
Y1210738D01*
X75439Y1214123D01*
X82210D01*
X85596Y1210738D01*
Y1207352D01*
X72054D01*
X-246190Y1177509D02*
X-232648Y1163967D01*
X-246190D02*
X-232648Y1177509D01*
X-246190Y1170738D02*
X-232648D01*
X-239419Y1163967D02*
Y1177509D01*
X-225877Y1160581D02*
Y1163967D01*
X-222491D01*
Y1160581D01*
X-225877D01*
X-195406Y1177509D02*
X-198792Y1180895D01*
X-205563D01*
X-208949Y1177509D01*
Y1163967D01*
X-205563Y1160581D01*
X-198792D01*
X-195406Y1163967D01*
Y1170738D01*
X-202178D01*
X-188635Y1180895D02*
X-175093D01*
X-181864D01*
Y1160581D01*
X-154780Y1177509D02*
X-158165Y1180895D01*
X-164936D01*
X-168322Y1177509D01*
Y1174123D01*
X-164936Y1170738D01*
X-158165D01*
X-154780Y1167352D01*
Y1163967D01*
X-158165Y1160581D01*
X-164936D01*
X-168322Y1163967D01*
X-127695Y1170738D02*
X-114153D01*
X-87068Y1180895D02*
X-73526D01*
X-80297D01*
Y1160581D01*
X-63369D02*
X-56598D01*
X-53212Y1163967D01*
Y1170738D01*
X-56598Y1174123D01*
X-63369D01*
X-66755Y1170738D01*
Y1163967D01*
X-63369Y1160581D01*
X-46441Y1153810D02*
Y1174123D01*
X-36285D01*
X-32899Y1170738D01*
Y1163967D01*
X-36285Y1160581D01*
X-46441D01*
X7728Y1177509D02*
X4342Y1180895D01*
X-2429D01*
X-5814Y1177509D01*
Y1174123D01*
X-2429Y1170738D01*
X4342D01*
X7728Y1167352D01*
Y1163967D01*
X4342Y1160581D01*
X-2429D01*
X-5814Y1163967D01*
X17885Y1160581D02*
X24656D01*
X28041Y1163967D01*
Y1170738D01*
X24656Y1174123D01*
X17885D01*
X14499Y1170738D01*
Y1163967D01*
X17885Y1160581D01*
X34812D02*
X41583D01*
X38198D01*
Y1180895D01*
X34812D01*
X65283D02*
Y1160581D01*
X55126D01*
X51740Y1163967D01*
Y1170738D01*
X55126Y1174123D01*
X65283D01*
X82210Y1160581D02*
X75439D01*
X72054Y1163967D01*
Y1170738D01*
X75439Y1174123D01*
X82210D01*
X85596Y1170738D01*
Y1167352D01*
X72054D01*
X92367Y1174123D02*
Y1160581D01*
Y1167352D01*
X95753Y1170738D01*
X99138Y1174123D01*
X102524D01*
X-246190Y1140738D02*
X-232648Y1127196D01*
X-246190D02*
X-232648Y1140738D01*
X-246190Y1133967D02*
X-232648D01*
X-239419Y1127196D02*
Y1140738D01*
X-225877Y1123810D02*
Y1127196D01*
X-222491D01*
Y1123810D01*
X-225877D01*
X-195406Y1140738D02*
X-198792Y1144123D01*
X-205563D01*
X-208949Y1140738D01*
Y1127196D01*
X-205563Y1123810D01*
X-198792D01*
X-195406Y1127196D01*
Y1133967D01*
X-202178D01*
X-188635Y1144123D02*
X-175093D01*
X-181864D01*
Y1123810D01*
X-168322Y1144123D02*
Y1123810D01*
X-154780D01*
X-127695Y1133967D02*
X-114153D01*
X-87068Y1144123D02*
Y1123810D01*
X-73526D01*
X-66755D02*
X-59984D01*
X-63369D01*
Y1144123D01*
X-66755Y1140738D01*
X-22742Y1123810D02*
X-29513Y1130581D01*
Y1137352D01*
X-22742Y1144123D01*
X-12586Y1123810D02*
Y1144123D01*
X-2429D01*
X957Y1140738D01*
Y1133967D01*
X-2429Y1130581D01*
X-12586D01*
X11113Y1123810D02*
X17885D01*
X21270Y1127196D01*
Y1133967D01*
X17885Y1137352D01*
X11113D01*
X7728Y1133967D01*
Y1127196D01*
X11113Y1123810D01*
X28041D02*
X38198D01*
X41583Y1127196D01*
X38198Y1130581D01*
X31427D01*
X28041Y1133967D01*
X31427Y1137352D01*
X41583D01*
X48355Y1123810D02*
X55126D01*
X51740D01*
Y1137352D01*
X48355D01*
X68668Y1140738D02*
Y1137352D01*
X65283D01*
X72054D01*
X68668D01*
Y1127196D01*
X72054Y1123810D01*
X82210D02*
X88982D01*
X85596D01*
Y1137352D01*
X82210D01*
X99138D02*
X105909Y1123810D01*
X112681Y1137352D01*
X129608Y1123810D02*
X122837D01*
X119452Y1127196D01*
Y1133967D01*
X122837Y1137352D01*
X129608D01*
X132994Y1133967D01*
Y1130581D01*
X119452D01*
X139765Y1123810D02*
X146536Y1130581D01*
Y1137352D01*
X139765Y1144123D01*
X-246190Y1100738D02*
X-232648Y1087196D01*
X-246190D02*
X-232648Y1100738D01*
X-246190Y1093967D02*
X-232648D01*
X-239419Y1087196D02*
Y1100738D01*
X-225877Y1083810D02*
Y1087196D01*
X-222491D01*
Y1083810D01*
X-225877D01*
X-195406Y1100738D02*
X-198792Y1104123D01*
X-205563D01*
X-208949Y1100738D01*
Y1087196D01*
X-205563Y1083810D01*
X-198792D01*
X-195406Y1087196D01*
Y1093967D01*
X-202178D01*
X-188635Y1104123D02*
Y1083810D01*
X-178479D01*
X-175093Y1087196D01*
Y1090581D01*
X-178479Y1093967D01*
X-188635D01*
X-178479D01*
X-175093Y1097352D01*
Y1100738D01*
X-178479Y1104123D01*
X-188635D01*
X-168322D02*
Y1083810D01*
X-154780D01*
X-127695Y1093967D02*
X-114153D01*
X-87068Y1104123D02*
Y1083810D01*
X-73526D01*
X-53212D02*
X-66755D01*
X-53212Y1097352D01*
Y1100738D01*
X-56598Y1104123D01*
X-63369D01*
X-66755Y1100738D01*
X-19357Y1083810D02*
X-26128Y1090581D01*
Y1097352D01*
X-19357Y1104123D01*
X-9200Y1083810D02*
Y1104123D01*
X957D01*
X4342Y1100738D01*
Y1093967D01*
X957Y1090581D01*
X-9200D01*
X14499Y1083810D02*
X21270D01*
X24656Y1087196D01*
Y1093967D01*
X21270Y1097352D01*
X14499D01*
X11113Y1093967D01*
Y1087196D01*
X14499Y1083810D01*
X31427D02*
X41583D01*
X44969Y1087196D01*
X41583Y1090581D01*
X34812D01*
X31427Y1093967D01*
X34812Y1097352D01*
X44969D01*
X51740Y1083810D02*
X58511D01*
X55126D01*
Y1097352D01*
X51740D01*
X72054Y1100738D02*
Y1097352D01*
X68668D01*
X75439D01*
X72054D01*
Y1087196D01*
X75439Y1083810D01*
X85596D02*
X92367D01*
X88982D01*
Y1097352D01*
X85596D01*
X102524D02*
X109295Y1083810D01*
X116066Y1097352D01*
X132994Y1083810D02*
X126223D01*
X122837Y1087196D01*
Y1093967D01*
X126223Y1097352D01*
X132994D01*
X136379Y1093967D01*
Y1090581D01*
X122837D01*
X143151Y1083810D02*
X149922Y1090581D01*
Y1097352D01*
X143151Y1104123D01*
X-246190Y1060738D02*
X-232648Y1047196D01*
X-246190D02*
X-232648Y1060738D01*
X-246190Y1053967D02*
X-232648D01*
X-239419Y1047196D02*
Y1060738D01*
X-225877Y1043810D02*
Y1047196D01*
X-222491D01*
Y1043810D01*
X-225877D01*
X-195406Y1060738D02*
X-198792Y1064123D01*
X-205563D01*
X-208949Y1060738D01*
Y1047196D01*
X-205563Y1043810D01*
X-198792D01*
X-195406Y1047196D01*
Y1053967D01*
X-202178D01*
X-188635Y1064123D02*
Y1043810D01*
X-178479D01*
X-175093Y1047196D01*
Y1050581D01*
X-178479Y1053967D01*
X-188635D01*
X-178479D01*
X-175093Y1057352D01*
Y1060738D01*
X-178479Y1064123D01*
X-188635D01*
X-154780Y1060738D02*
X-158165Y1064123D01*
X-164936D01*
X-168322Y1060738D01*
Y1057352D01*
X-164936Y1053967D01*
X-158165D01*
X-154780Y1050581D01*
Y1047196D01*
X-158165Y1043810D01*
X-164936D01*
X-168322Y1047196D01*
X-127695Y1053967D02*
X-114153D01*
X-87068Y1064123D02*
Y1043810D01*
X-76912D01*
X-73526Y1047196D01*
Y1050581D01*
X-76912Y1053967D01*
X-87068D01*
X-76912D01*
X-73526Y1057352D01*
Y1060738D01*
X-76912Y1064123D01*
X-87068D01*
X-63369Y1043810D02*
X-56598D01*
X-53212Y1047196D01*
Y1053967D01*
X-56598Y1057352D01*
X-63369D01*
X-66755Y1053967D01*
Y1047196D01*
X-63369Y1043810D01*
X-43056Y1060738D02*
Y1057352D01*
X-46441D01*
X-39670D01*
X-43056D01*
Y1047196D01*
X-39670Y1043810D01*
X-26128Y1060738D02*
Y1057352D01*
X-29513D01*
X-22742D01*
X-26128D01*
Y1047196D01*
X-22742Y1043810D01*
X-9200D02*
X-2429D01*
X957Y1047196D01*
Y1053967D01*
X-2429Y1057352D01*
X-9200D01*
X-12586Y1053967D01*
Y1047196D01*
X-9200Y1043810D01*
X7728D02*
Y1057352D01*
X11113D01*
X14499Y1053967D01*
Y1043810D01*
Y1053967D01*
X17885Y1057352D01*
X21270Y1053967D01*
Y1043810D01*
X61897Y1060738D02*
X58511Y1064123D01*
X51740D01*
X48355Y1060738D01*
Y1057352D01*
X51740Y1053967D01*
X58511D01*
X61897Y1050581D01*
Y1047196D01*
X58511Y1043810D01*
X51740D01*
X48355Y1047196D01*
X72054Y1043810D02*
X78825D01*
X82210Y1047196D01*
Y1053967D01*
X78825Y1057352D01*
X72054D01*
X68668Y1053967D01*
Y1047196D01*
X72054Y1043810D01*
X88982D02*
X95753D01*
X92367D01*
Y1064123D01*
X88982D01*
X119452D02*
Y1043810D01*
X109295D01*
X105909Y1047196D01*
Y1053967D01*
X109295Y1057352D01*
X119452D01*
X136379Y1043810D02*
X129608D01*
X126223Y1047196D01*
Y1053967D01*
X129608Y1057352D01*
X136379D01*
X139765Y1053967D01*
Y1050581D01*
X126223D01*
X146536Y1057352D02*
Y1043810D01*
Y1050581D01*
X149922Y1053967D01*
X153307Y1057352D01*
X156693D01*
X-246190Y1017509D02*
X-232648Y1003967D01*
X-246190D02*
X-232648Y1017509D01*
X-246190Y1010738D02*
X-232648D01*
X-239419Y1003967D02*
Y1017509D01*
X-225877Y1000581D02*
Y1003967D01*
X-222491D01*
Y1000581D01*
X-225877D01*
X-195406Y1017509D02*
X-198792Y1020895D01*
X-205563D01*
X-208949Y1017509D01*
Y1003967D01*
X-205563Y1000581D01*
X-198792D01*
X-195406Y1003967D01*
Y1010738D01*
X-202178D01*
X-188635Y1020895D02*
Y1000581D01*
X-178479D01*
X-175093Y1003967D01*
Y1007352D01*
X-178479Y1010738D01*
X-188635D01*
X-178479D01*
X-175093Y1014123D01*
Y1017509D01*
X-178479Y1020895D01*
X-188635D01*
X-158165D02*
X-164936D01*
X-168322Y1017509D01*
Y1003967D01*
X-164936Y1000581D01*
X-158165D01*
X-154780Y1003967D01*
Y1017509D01*
X-158165Y1020895D01*
X-127695Y1010738D02*
X-114153D01*
X-87068Y1020895D02*
Y1000581D01*
X-76912D01*
X-73526Y1003967D01*
Y1007352D01*
X-76912Y1010738D01*
X-87068D01*
X-76912D01*
X-73526Y1014123D01*
Y1017509D01*
X-76912Y1020895D01*
X-87068D01*
X-63369Y1000581D02*
X-56598D01*
X-53212Y1003967D01*
Y1010738D01*
X-56598Y1014123D01*
X-63369D01*
X-66755Y1010738D01*
Y1003967D01*
X-63369Y1000581D01*
X-43056Y1017509D02*
Y1014123D01*
X-46441D01*
X-39670D01*
X-43056D01*
Y1003967D01*
X-39670Y1000581D01*
X-26128Y1017509D02*
Y1014123D01*
X-29513D01*
X-22742D01*
X-26128D01*
Y1003967D01*
X-22742Y1000581D01*
X-9200D02*
X-2429D01*
X957Y1003967D01*
Y1010738D01*
X-2429Y1014123D01*
X-9200D01*
X-12586Y1010738D01*
Y1003967D01*
X-9200Y1000581D01*
X7728D02*
Y1014123D01*
X11113D01*
X14499Y1010738D01*
Y1000581D01*
Y1010738D01*
X17885Y1014123D01*
X21270Y1010738D01*
Y1000581D01*
X58511Y1020895D02*
X51740D01*
X48355Y1017509D01*
Y1003967D01*
X51740Y1000581D01*
X58511D01*
X61897Y1003967D01*
Y1017509D01*
X58511Y1020895D01*
X68668Y1014123D02*
X75439Y1000581D01*
X82210Y1014123D01*
X99138Y1000581D02*
X92367D01*
X88982Y1003967D01*
Y1010738D01*
X92367Y1014123D01*
X99138D01*
X102524Y1010738D01*
Y1007352D01*
X88982D01*
X109295Y1014123D02*
Y1000581D01*
Y1007352D01*
X112680Y1010738D01*
X116066Y1014123D01*
X119452D01*
X129608Y1000581D02*
X136379D01*
X132994D01*
Y1020895D01*
X129608D01*
X149922Y1014123D02*
X156693D01*
X160078Y1010738D01*
Y1000581D01*
X149922D01*
X146536Y1003967D01*
X149922Y1007352D01*
X160078D01*
X166850Y1014123D02*
Y1003967D01*
X170235Y1000581D01*
X180392D01*
Y997196D01*
X177006Y993810D01*
X173621D01*
X180392Y1000581D02*
Y1014123D01*
X-246190Y977509D02*
X-232648Y963967D01*
X-246190D02*
X-232648Y977509D01*
X-246190Y970738D02*
X-232648D01*
X-239419Y963967D02*
Y977509D01*
X-225877Y960581D02*
Y963967D01*
X-222491D01*
Y960581D01*
X-225877D01*
X-195406Y977509D02*
X-198792Y980895D01*
X-205563D01*
X-208949Y977509D01*
Y963967D01*
X-205563Y960581D01*
X-198792D01*
X-195406Y963967D01*
Y970738D01*
X-202178D01*
X-188635Y960581D02*
Y980895D01*
X-181864Y974123D01*
X-175093Y980895D01*
Y960581D01*
X-154780Y980895D02*
X-168322D01*
Y970738D01*
X-161551Y974123D01*
X-158165D01*
X-154780Y970738D01*
Y963967D01*
X-158165Y960581D01*
X-164936D01*
X-168322Y963967D01*
X-127695Y970738D02*
X-114153D01*
X-87068Y960581D02*
Y980895D01*
X-80297Y974123D01*
X-73526Y980895D01*
Y960581D01*
X-56598D02*
X-63369D01*
X-66755Y963967D01*
Y970738D01*
X-63369Y974123D01*
X-56598D01*
X-53212Y970738D01*
Y967352D01*
X-66755D01*
X-32899Y974123D02*
X-43056D01*
X-46441Y970738D01*
Y963967D01*
X-43056Y960581D01*
X-32899D01*
X-26128Y980895D02*
Y960581D01*
Y970738D01*
X-22742Y974123D01*
X-15971D01*
X-12586Y970738D01*
Y960581D01*
X-2429Y974123D02*
X4342D01*
X7728Y970738D01*
Y960581D01*
X-2429D01*
X-5814Y963967D01*
X-2429Y967352D01*
X7728D01*
X14499Y960581D02*
Y974123D01*
X24656D01*
X28041Y970738D01*
Y960581D01*
X34812D02*
X41583D01*
X38198D01*
Y974123D01*
X34812D01*
X65283D02*
X55126D01*
X51740Y970738D01*
Y963967D01*
X55126Y960581D01*
X65283D01*
X75439Y974123D02*
X82210D01*
X85596Y970738D01*
Y960581D01*
X75439D01*
X72054Y963967D01*
X75439Y967352D01*
X85596D01*
X92367Y960581D02*
X99138D01*
X95753D01*
Y980895D01*
X92367D01*
X129608D02*
Y960581D01*
X139765D01*
X143151Y963967D01*
Y977509D01*
X139765Y980895D01*
X129608D01*
X149922Y974123D02*
Y960581D01*
Y967352D01*
X153307Y970738D01*
X156693Y974123D01*
X160078D01*
X173621D02*
X180392D01*
X183777Y970738D01*
Y960581D01*
X173621D01*
X170235Y963967D01*
X173621Y967352D01*
X183777D01*
X190549Y974123D02*
Y963967D01*
X193934Y960581D01*
X197320Y963967D01*
X200705Y960581D01*
X204091Y963967D01*
Y974123D01*
X210862Y960581D02*
X217633D01*
X214248D01*
Y974123D01*
X210862D01*
X227790Y960581D02*
Y974123D01*
X237947D01*
X241332Y970738D01*
Y960581D01*
X254874Y953810D02*
X258260D01*
X261646Y957196D01*
Y974123D01*
X251489D01*
X248103Y970738D01*
Y963967D01*
X251489Y960581D01*
X261646D01*
X-246190Y937509D02*
X-232648Y923967D01*
X-246190D02*
X-232648Y937509D01*
X-246190Y930738D02*
X-232648D01*
X-239419Y923967D02*
Y937509D01*
X-225877Y920581D02*
Y923967D01*
X-222491D01*
Y920581D01*
X-225877D01*
X-195406Y937509D02*
X-198792Y940894D01*
X-205563D01*
X-208949Y937509D01*
Y923967D01*
X-205563Y920581D01*
X-198792D01*
X-195406Y923967D01*
Y930738D01*
X-202178D01*
X-188635Y920581D02*
Y940894D01*
X-181864Y934123D01*
X-175093Y940894D01*
Y920581D01*
X-168322Y937509D02*
X-164936Y940894D01*
X-158165D01*
X-154780Y937509D01*
Y934123D01*
X-158165Y930738D01*
X-161551D01*
X-158165D01*
X-154780Y927352D01*
Y923967D01*
X-158165Y920581D01*
X-164936D01*
X-168322Y923967D01*
X-127695Y930738D02*
X-114153D01*
X-87068Y920581D02*
Y940894D01*
X-80297Y934123D01*
X-73526Y940894D01*
Y920581D01*
X-63369Y934123D02*
X-56598D01*
X-53212Y930738D01*
Y920581D01*
X-63369D01*
X-66755Y923967D01*
X-63369Y927352D01*
X-53212D01*
X-46441Y920581D02*
Y934123D01*
X-36285D01*
X-32899Y930738D01*
Y920581D01*
X-26128Y934123D02*
Y923967D01*
X-22742Y920581D01*
X-12586D01*
Y934123D01*
X-2429Y920581D02*
Y937509D01*
Y930738D01*
X-5814D01*
X957D01*
X-2429D01*
Y937509D01*
X957Y940894D01*
X14499Y934123D02*
X21270D01*
X24656Y930738D01*
Y920581D01*
X14499D01*
X11113Y923967D01*
X14499Y927352D01*
X24656D01*
X44969Y934123D02*
X34812D01*
X31427Y930738D01*
Y923967D01*
X34812Y920581D01*
X44969D01*
X55126Y937509D02*
Y934123D01*
X51740D01*
X58511D01*
X55126D01*
Y923967D01*
X58511Y920581D01*
X68668Y934123D02*
Y923967D01*
X72054Y920581D01*
X82210D01*
Y934123D01*
X88982D02*
Y920581D01*
Y927352D01*
X92367Y930738D01*
X95753Y934123D01*
X99138D01*
X109295Y920581D02*
X116066D01*
X112680D01*
Y934123D01*
X109295D01*
X126223Y920581D02*
Y934123D01*
X136379D01*
X139765Y930738D01*
Y920581D01*
X153307Y913810D02*
X156693D01*
X160078Y917196D01*
Y934123D01*
X149922D01*
X146536Y930738D01*
Y923967D01*
X149922Y920581D01*
X160078D01*
X187163D02*
Y940894D01*
X200705Y920581D01*
Y940894D01*
X210862Y920581D02*
X217633D01*
X221019Y923967D01*
Y930738D01*
X217633Y934123D01*
X210862D01*
X207476Y930738D01*
Y923967D01*
X210862Y920581D01*
X231175Y937509D02*
Y934123D01*
X227790D01*
X234561D01*
X231175D01*
Y923967D01*
X234561Y920581D01*
X254874D02*
X248103D01*
X244718Y923967D01*
Y930738D01*
X248103Y934123D01*
X254874D01*
X258260Y930738D01*
Y927352D01*
X244718D01*
X265031Y920581D02*
X275188D01*
X278573Y923967D01*
X275188Y927352D01*
X268417D01*
X265031Y930738D01*
X268417Y934123D01*
X278573D01*
X-246190Y900738D02*
X-232648Y887196D01*
X-246190D02*
X-232648Y900738D01*
X-246190Y893967D02*
X-232648D01*
X-239419Y887196D02*
Y900738D01*
X-225877Y883810D02*
Y887196D01*
X-222491D01*
Y883810D01*
X-225877D01*
X-195406Y900738D02*
X-198792Y904123D01*
X-205563D01*
X-208949Y900738D01*
Y887196D01*
X-205563Y883810D01*
X-198792D01*
X-195406Y887196D01*
Y893967D01*
X-202178D01*
X-188635Y883810D02*
Y904123D01*
X-181864Y897352D01*
X-175093Y904123D01*
Y883810D01*
X-158165D02*
Y904123D01*
X-168322Y893967D01*
X-154780D01*
X-127695D02*
X-114153D01*
X-87068Y904123D02*
Y883810D01*
X-73526D01*
X-66755D02*
X-59984D01*
X-63369D01*
Y897352D01*
X-66755D01*
X-36285D02*
X-46441D01*
X-49827Y893967D01*
Y887196D01*
X-46441Y883810D01*
X-36285D01*
X-19357D02*
X-26128D01*
X-29513Y887196D01*
Y893967D01*
X-26128Y897352D01*
X-19357D01*
X-15971Y893967D01*
Y890581D01*
X-29513D01*
X-9200Y883810D02*
Y897352D01*
X957D01*
X4342Y893967D01*
Y883810D01*
X24656Y897352D02*
X14499D01*
X11113Y893967D01*
Y887196D01*
X14499Y883810D01*
X24656D01*
X41583D02*
X34812D01*
X31427Y887196D01*
Y893967D01*
X34812Y897352D01*
X41583D01*
X44969Y893967D01*
Y890581D01*
X31427D01*
X-246190Y860738D02*
X-232648Y847196D01*
X-246190D02*
X-232648Y860738D01*
X-246190Y853967D02*
X-232648D01*
X-239419Y847196D02*
Y860738D01*
X-225877Y843810D02*
Y847196D01*
X-222491D01*
Y843810D01*
X-225877D01*
X-195406Y860738D02*
X-198792Y864123D01*
X-205563D01*
X-208949Y860738D01*
Y847196D01*
X-205563Y843810D01*
X-198792D01*
X-195406Y847196D01*
Y853967D01*
X-202178D01*
X-188635Y843810D02*
Y864123D01*
X-181864Y857352D01*
X-175093Y864123D01*
Y843810D01*
X-154780D02*
X-168322D01*
X-154780Y857352D01*
Y860738D01*
X-158165Y864123D01*
X-164936D01*
X-168322Y860738D01*
X-148008D02*
X-144623Y864123D01*
X-137852D01*
X-134466Y860738D01*
Y857352D01*
X-137852Y853967D01*
X-134466Y850581D01*
Y847196D01*
X-137852Y843810D01*
X-144623D01*
X-148008Y847196D01*
Y850581D01*
X-144623Y853967D01*
X-148008Y857352D01*
Y860738D01*
X-144623Y853967D02*
X-137852D01*
X-107382D02*
X-93839D01*
X-66755Y864123D02*
Y843810D01*
X-56598D01*
X-53212Y847196D01*
Y850581D01*
X-56598Y853967D01*
X-66755D01*
X-56598D01*
X-53212Y857352D01*
Y860738D01*
X-56598Y864123D01*
X-66755D01*
X-43056Y843810D02*
X-36285D01*
X-32899Y847196D01*
Y853967D01*
X-36285Y857352D01*
X-43056D01*
X-46441Y853967D01*
Y847196D01*
X-43056Y843810D01*
X-22742Y857352D02*
X-15971D01*
X-12586Y853967D01*
Y843810D01*
X-22742D01*
X-26128Y847196D01*
X-22742Y850581D01*
X-12586D01*
X-5814Y857352D02*
Y843810D01*
Y850581D01*
X-2429Y853967D01*
X957Y857352D01*
X4342D01*
X28041Y864123D02*
Y843810D01*
X17885D01*
X14499Y847196D01*
Y853967D01*
X17885Y857352D01*
X28041D01*
X65283Y864123D02*
X58511D01*
X55126Y860738D01*
Y847196D01*
X58511Y843810D01*
X65283D01*
X68668Y847196D01*
Y860738D01*
X65283Y864123D01*
X75439Y857352D02*
Y847196D01*
X78825Y843810D01*
X88982D01*
Y857352D01*
X99138Y860738D02*
Y857352D01*
X95753D01*
X102524D01*
X99138D01*
Y847196D01*
X102524Y843810D01*
X112680D02*
X119452D01*
X116066D01*
Y864123D01*
X112680D01*
X129608Y843810D02*
X136379D01*
X132994D01*
Y857352D01*
X129608D01*
X146536Y843810D02*
Y857352D01*
X156693D01*
X160078Y853967D01*
Y843810D01*
X177006D02*
X170235D01*
X166850Y847196D01*
Y853967D01*
X170235Y857352D01*
X177006D01*
X180392Y853967D01*
Y850581D01*
X166850D01*
X907352Y1364123D02*
X893810D01*
Y1353967D01*
X900581D01*
X893810D01*
Y1343810D01*
X914123D02*
X920895D01*
X917509D01*
Y1357352D01*
X914123D01*
X931051Y1343810D02*
X937822D01*
X934437D01*
Y1364123D01*
X931051D01*
X958136Y1343810D02*
X951365D01*
X947979Y1347196D01*
Y1353967D01*
X951365Y1357352D01*
X958136D01*
X961521Y1353967D01*
Y1350581D01*
X947979D01*
X968293Y1343810D02*
X978449D01*
X981835Y1347196D01*
X978449Y1350581D01*
X971678D01*
X968293Y1353967D01*
X971678Y1357352D01*
X981835D01*
X893810Y1293810D02*
Y1314123D01*
X900581Y1307352D01*
X907352Y1314123D01*
Y1293810D01*
X914123D02*
X920895D01*
X917509D01*
Y1307352D01*
X914123D01*
X931051Y1293810D02*
Y1307352D01*
X941208D01*
X944594Y1303967D01*
Y1293810D01*
X951365D02*
X958136D01*
X954750D01*
Y1307352D01*
X951365D01*
X968293Y1293810D02*
Y1307352D01*
X971678D01*
X975064Y1303967D01*
Y1293810D01*
Y1303967D01*
X978449Y1307352D01*
X981835Y1303967D01*
Y1293810D01*
X988606Y1307352D02*
Y1297196D01*
X991992Y1293810D01*
X1002148D01*
Y1307352D01*
X1008919Y1293810D02*
Y1307352D01*
X1012305D01*
X1015691Y1303967D01*
Y1293810D01*
Y1303967D01*
X1019076Y1307352D01*
X1022462Y1303967D01*
Y1293810D01*
X1049546Y1314123D02*
X1063089D01*
X1056317D01*
Y1293810D01*
X1069860Y1307352D02*
Y1293810D01*
Y1300581D01*
X1073245Y1303967D01*
X1076631Y1307352D01*
X1080016D01*
X1093559D02*
X1100330D01*
X1103715Y1303967D01*
Y1293810D01*
X1093559D01*
X1090173Y1297196D01*
X1093559Y1300581D01*
X1103715D01*
X1124029Y1307352D02*
X1113872D01*
X1110487Y1303967D01*
Y1297196D01*
X1113872Y1293810D01*
X1124029D01*
X1130800D02*
Y1314123D01*
Y1300581D02*
X1140957Y1307352D01*
X1130800Y1300581D02*
X1140957Y1293810D01*
X1151113Y1307352D02*
X1154499D01*
Y1303967D01*
X1151113D01*
Y1307352D01*
Y1297196D02*
X1154499D01*
Y1293810D01*
X1151113D01*
Y1297196D01*
X1201897Y1293810D02*
X1188355D01*
X1201897Y1307352D01*
Y1310738D01*
X1198511Y1314123D01*
X1191740D01*
X1188355Y1310738D01*
X1208668D02*
X1212054Y1314123D01*
X1218825D01*
X1222210Y1310738D01*
Y1297196D01*
X1218825Y1293810D01*
X1212054D01*
X1208668Y1297196D01*
Y1310738D01*
X1228981D02*
X1232367Y1314123D01*
X1239138D01*
X1242524Y1310738D01*
Y1297196D01*
X1239138Y1293810D01*
X1232367D01*
X1228981Y1297196D01*
Y1310738D01*
X1249295Y1307352D02*
Y1297196D01*
X1252681Y1293810D01*
X1262837D01*
Y1307352D01*
X1269608Y1293810D02*
Y1307352D01*
X1272994D01*
X1276379Y1303967D01*
Y1293810D01*
Y1303967D01*
X1279765Y1307352D01*
X1283151Y1303967D01*
Y1293810D01*
X893810Y1250581D02*
Y1270895D01*
X900581Y1264123D01*
X907352Y1270895D01*
Y1250581D01*
X914123D02*
X920895D01*
X917509D01*
Y1264123D01*
X914123D01*
X931051Y1250581D02*
Y1264123D01*
X941208D01*
X944594Y1260738D01*
Y1250581D01*
X951365D02*
X958136D01*
X954750D01*
Y1264123D01*
X951365D01*
X968293Y1250581D02*
Y1264123D01*
X971678D01*
X975064Y1260738D01*
Y1250581D01*
Y1260738D01*
X978449Y1264123D01*
X981835Y1260738D01*
Y1250581D01*
X988606Y1264123D02*
Y1253967D01*
X991992Y1250581D01*
X1002148D01*
Y1264123D01*
X1008919Y1250581D02*
Y1264123D01*
X1012305D01*
X1015691Y1260738D01*
Y1250581D01*
Y1260738D01*
X1019076Y1264123D01*
X1022462Y1260738D01*
Y1250581D01*
X1063089Y1267509D02*
X1059703Y1270895D01*
X1052932D01*
X1049546Y1267509D01*
Y1253967D01*
X1052932Y1250581D01*
X1059703D01*
X1063089Y1253967D01*
Y1260738D01*
X1056317D01*
X1073245Y1264123D02*
X1080016D01*
X1083402Y1260738D01*
Y1250581D01*
X1073245D01*
X1069860Y1253967D01*
X1073245Y1257352D01*
X1083402D01*
X1090173Y1243810D02*
Y1264123D01*
X1100330D01*
X1103715Y1260738D01*
Y1253967D01*
X1100330Y1250581D01*
X1090173D01*
X1110487Y1264123D02*
X1113872D01*
Y1260738D01*
X1110487D01*
Y1264123D01*
Y1253967D02*
X1113872D01*
Y1250581D01*
X1110487D01*
Y1253967D01*
X1161270Y1250581D02*
X1147728D01*
X1161270Y1264123D01*
Y1267509D01*
X1157885Y1270895D01*
X1151113D01*
X1147728Y1267509D01*
X1168041D02*
X1171427Y1270895D01*
X1178198D01*
X1181583Y1267509D01*
Y1253967D01*
X1178198Y1250581D01*
X1171427D01*
X1168041Y1253967D01*
Y1267509D01*
X1188355D02*
X1191740Y1270895D01*
X1198511D01*
X1201897Y1267509D01*
Y1253967D01*
X1198511Y1250581D01*
X1191740D01*
X1188355Y1253967D01*
Y1267509D01*
X1208668Y1264123D02*
Y1253967D01*
X1212054Y1250581D01*
X1222210D01*
Y1264123D01*
X1228981Y1250581D02*
Y1264123D01*
X1232367D01*
X1235753Y1260738D01*
Y1250581D01*
Y1260738D01*
X1239138Y1264123D01*
X1242524Y1260738D01*
Y1250581D01*
X893810Y1210581D02*
Y1230895D01*
X900581Y1224123D01*
X907352Y1230895D01*
Y1210581D01*
X914123D02*
X920895D01*
X917509D01*
Y1224123D01*
X914123D01*
X931051Y1210581D02*
Y1224123D01*
X941208D01*
X944594Y1220738D01*
Y1210581D01*
X951365D02*
X958136D01*
X954750D01*
Y1224123D01*
X951365D01*
X968293Y1210581D02*
Y1224123D01*
X971678D01*
X975064Y1220738D01*
Y1210581D01*
Y1220738D01*
X978449Y1224123D01*
X981835Y1220738D01*
Y1210581D01*
X988606Y1224123D02*
Y1213967D01*
X991992Y1210581D01*
X1002148D01*
Y1224123D01*
X1008919Y1210581D02*
Y1224123D01*
X1012305D01*
X1015691Y1220738D01*
Y1210581D01*
Y1220738D01*
X1019076Y1224123D01*
X1022462Y1220738D01*
Y1210581D01*
X1049546Y1230895D02*
X1063089D01*
X1056317D01*
Y1210581D01*
X1069860Y1230895D02*
Y1210581D01*
Y1220738D01*
X1073245Y1224123D01*
X1080016D01*
X1083402Y1220738D01*
Y1210581D01*
X1090173Y1224123D02*
Y1210581D01*
Y1217352D01*
X1093559Y1220738D01*
X1096944Y1224123D01*
X1100330D01*
X1113872Y1210581D02*
X1120643D01*
X1124029Y1213967D01*
Y1220738D01*
X1120643Y1224123D01*
X1113872D01*
X1110487Y1220738D01*
Y1213967D01*
X1113872Y1210581D01*
X1130800Y1224123D02*
Y1213967D01*
X1134185Y1210581D01*
X1144342D01*
Y1224123D01*
X1157885Y1203810D02*
X1161270D01*
X1164656Y1207196D01*
Y1224123D01*
X1154499D01*
X1151113Y1220738D01*
Y1213967D01*
X1154499Y1210581D01*
X1164656D01*
X1171427Y1230895D02*
Y1210581D01*
Y1220738D01*
X1174812Y1224123D01*
X1181583D01*
X1184969Y1220738D01*
Y1210581D01*
X1212054Y1230895D02*
Y1210581D01*
Y1220738D01*
X1225596D01*
Y1230895D01*
Y1210581D01*
X1235753D02*
X1242524D01*
X1245909Y1213967D01*
Y1220738D01*
X1242524Y1224123D01*
X1235753D01*
X1232367Y1220738D01*
Y1213967D01*
X1235753Y1210581D01*
X1252681D02*
X1259452D01*
X1256066D01*
Y1230895D01*
X1252681D01*
X1279765Y1210581D02*
X1272994D01*
X1269608Y1213967D01*
Y1220738D01*
X1272994Y1224123D01*
X1279765D01*
X1283151Y1220738D01*
Y1217352D01*
X1269608D01*
X1310235Y1230895D02*
Y1217352D01*
X1317006Y1210581D01*
X1323777Y1217352D01*
Y1230895D01*
X1330549D02*
X1337320D01*
X1333934D01*
Y1210581D01*
X1330549D01*
X1337320D01*
X1347476D02*
Y1224123D01*
X1354248Y1230895D01*
X1361019Y1224123D01*
Y1210581D01*
Y1220738D01*
X1347476D01*
X1367790Y1224123D02*
X1371175D01*
Y1220738D01*
X1367790D01*
Y1224123D01*
Y1213967D02*
X1371175D01*
Y1210581D01*
X1367790D01*
Y1213967D01*
X1405031Y1227509D02*
X1408417Y1230895D01*
X1415188D01*
X1418573Y1227509D01*
Y1213967D01*
X1415188Y1210581D01*
X1408417D01*
X1405031Y1213967D01*
Y1227509D01*
X1425345Y1210581D02*
Y1213967D01*
X1428730D01*
Y1210581D01*
X1425345D01*
X1455815Y1230895D02*
X1449043Y1227509D01*
X1442272Y1220738D01*
Y1213967D01*
X1445658Y1210581D01*
X1452429D01*
X1455815Y1213967D01*
Y1217352D01*
X1452429Y1220738D01*
X1442272D01*
X1462586Y1210581D02*
Y1224123D01*
X1465971D01*
X1469357Y1220738D01*
Y1210581D01*
Y1220738D01*
X1472742Y1224123D01*
X1476128Y1220738D01*
Y1210581D01*
X1482899D02*
Y1224123D01*
X1486285D01*
X1489670Y1220738D01*
Y1210581D01*
Y1220738D01*
X1493056Y1224123D01*
X1496441Y1220738D01*
Y1210581D01*
X1509984D02*
X1503213Y1217352D01*
Y1224123D01*
X1509984Y1230895D01*
X1520141Y1203810D02*
Y1224123D01*
X1530297D01*
X1533683Y1220738D01*
Y1213967D01*
X1530297Y1210581D01*
X1520141D01*
X1543840Y1224123D02*
X1550611D01*
X1553996Y1220738D01*
Y1210581D01*
X1543840D01*
X1540454Y1213967D01*
X1543840Y1217352D01*
X1553996D01*
X1574310Y1230895D02*
Y1210581D01*
X1564153D01*
X1560767Y1213967D01*
Y1220738D01*
X1564153Y1224123D01*
X1574310D01*
X1581081Y1210581D02*
X1587852Y1217352D01*
Y1224123D01*
X1581081Y1230895D01*
X1618322Y1210581D02*
X1631864Y1224123D01*
X1658949Y1227509D02*
X1662334Y1230895D01*
X1669106D01*
X1672491Y1227509D01*
Y1213967D01*
X1669106Y1210581D01*
X1662334D01*
X1658949Y1213967D01*
Y1227509D01*
X1679262Y1210581D02*
Y1213967D01*
X1682648D01*
Y1210581D01*
X1679262D01*
X1696190Y1227509D02*
X1699576Y1230895D01*
X1706347D01*
X1709733Y1227509D01*
Y1224123D01*
X1706347Y1220738D01*
X1702961D01*
X1706347D01*
X1709733Y1217352D01*
Y1213967D01*
X1706347Y1210581D01*
X1699576D01*
X1696190Y1213967D01*
X1716504Y1210581D02*
Y1224123D01*
X1719889D01*
X1723275Y1220738D01*
Y1210581D01*
Y1220738D01*
X1726660Y1224123D01*
X1730046Y1220738D01*
Y1210581D01*
X1736817D02*
Y1224123D01*
X1740203D01*
X1743588Y1220738D01*
Y1210581D01*
Y1220738D01*
X1746974Y1224123D01*
X1750359Y1220738D01*
Y1210581D01*
X1784215D02*
X1777444Y1217352D01*
Y1224123D01*
X1784215Y1230895D01*
X1807914D02*
Y1210581D01*
X1797757D01*
X1794372Y1213967D01*
Y1220738D01*
X1797757Y1224123D01*
X1807914D01*
X1814685D02*
Y1210581D01*
Y1217352D01*
X1818071Y1220738D01*
X1821456Y1224123D01*
X1824842D01*
X1834999Y1210581D02*
X1841770D01*
X1838384D01*
Y1224123D01*
X1834999D01*
X1851926Y1210581D02*
X1858698D01*
X1855312D01*
Y1230895D01*
X1851926D01*
X1868854Y1210581D02*
X1875625D01*
X1872240D01*
Y1230895D01*
X1868854D01*
X1885782Y1210581D02*
X1892553Y1217352D01*
Y1224123D01*
X1885782Y1230895D01*
X1902710Y1210581D02*
Y1213967D01*
X1906096D01*
Y1210581D01*
X1902710D01*
X1939951Y1230895D02*
Y1210581D01*
X1950108D01*
X1953494Y1213967D01*
Y1227509D01*
X1950108Y1230895D01*
X1939951D01*
X1960265Y1224123D02*
Y1210581D01*
Y1217352D01*
X1963650Y1220738D01*
X1967036Y1224123D01*
X1970421D01*
X1980578Y1210581D02*
X1987349D01*
X1983964D01*
Y1224123D01*
X1980578D01*
X1997506Y1210581D02*
X2004277D01*
X2000892D01*
Y1230895D01*
X1997506D01*
X2014434Y1210581D02*
X2021205D01*
X2017819D01*
Y1230895D01*
X2014434D01*
X2031362Y1210581D02*
X2038133D01*
X2034747D01*
Y1224123D01*
X2031362D01*
X2048289Y1210581D02*
Y1224123D01*
X2058446D01*
X2061832Y1220738D01*
Y1210581D01*
X2075374Y1203810D02*
X2078760D01*
X2082145Y1207196D01*
Y1224123D01*
X2071989D01*
X2068603Y1220738D01*
Y1213967D01*
X2071989Y1210581D01*
X2082145D01*
X2088916Y1224123D02*
X2092302D01*
Y1220738D01*
X2088916D01*
Y1224123D01*
Y1213967D02*
X2092302D01*
Y1210581D01*
X2088916D01*
Y1213967D01*
X2126158Y1230895D02*
Y1210581D01*
X2139700D01*
X2146471D02*
X2153242D01*
X2149857D01*
Y1230895D01*
X2146471Y1227509D01*
X2163399Y1220738D02*
X2176941D01*
X2183712Y1230895D02*
Y1210581D01*
X2197255D01*
X2217568D02*
X2204026D01*
X2217568Y1224123D01*
Y1227509D01*
X2214182Y1230895D01*
X2207411D01*
X2204026Y1227509D01*
X893810Y1123810D02*
X900581D01*
X897196D01*
Y1144123D01*
X893810Y1140738D01*
X910738Y1123810D02*
Y1127196D01*
X914123D01*
Y1123810D01*
X910738D01*
X961521Y1144123D02*
X947979D01*
Y1133967D01*
X954750D01*
X947979D01*
Y1123810D01*
X968293Y1144123D02*
X975064D01*
X971678D01*
Y1123810D01*
X968293D01*
X975064D01*
X985220D02*
Y1144123D01*
X998763Y1123810D01*
Y1144123D01*
X1005534D02*
X1012305D01*
X1008919D01*
Y1123810D01*
X1005534D01*
X1012305D01*
X1036004Y1140738D02*
X1032618Y1144123D01*
X1025847D01*
X1022462Y1140738D01*
Y1137352D01*
X1025847Y1133967D01*
X1032618D01*
X1036004Y1130581D01*
Y1127196D01*
X1032618Y1123810D01*
X1025847D01*
X1022462Y1127196D01*
X1042775Y1144123D02*
Y1123810D01*
Y1133967D01*
X1056317D01*
Y1144123D01*
Y1123810D01*
X1076631Y1144123D02*
X1063089D01*
Y1123810D01*
X1076631D01*
X1063089Y1133967D02*
X1069860D01*
X1083402Y1144123D02*
Y1123810D01*
X1093559D01*
X1096944Y1127196D01*
Y1140738D01*
X1093559Y1144123D01*
X1083402D01*
X1124029Y1123810D02*
Y1144123D01*
X1134185D01*
X1137571Y1140738D01*
Y1133967D01*
X1134185Y1130581D01*
X1124029D01*
X1144342Y1123810D02*
Y1137352D01*
X1151113Y1144123D01*
X1157885Y1137352D01*
Y1123810D01*
Y1133967D01*
X1144342D01*
X1164656Y1123810D02*
Y1144123D01*
X1178198Y1123810D01*
Y1144123D01*
X1198511D02*
X1184969D01*
Y1123810D01*
X1198511D01*
X1184969Y1133967D02*
X1191740D01*
X1205283Y1144123D02*
Y1123810D01*
X1218825D01*
X1245909Y1144123D02*
X1259452D01*
X1252681D01*
Y1123810D01*
X1266223Y1144123D02*
Y1123810D01*
Y1133967D01*
X1279765D01*
Y1144123D01*
Y1123810D01*
X1286536Y1144123D02*
X1293307D01*
X1289922D01*
Y1123810D01*
X1286536D01*
X1293307D01*
X1317006Y1140738D02*
X1313621Y1144123D01*
X1306850D01*
X1303464Y1140738D01*
Y1127196D01*
X1306850Y1123810D01*
X1313621D01*
X1317006Y1127196D01*
X1323777Y1144123D02*
Y1123810D01*
Y1130581D01*
X1337320Y1144123D01*
X1327163Y1133967D01*
X1337320Y1123810D01*
X1344091D02*
Y1144123D01*
X1357633Y1123810D01*
Y1144123D01*
X1377947D02*
X1364404D01*
Y1123810D01*
X1377947D01*
X1364404Y1133967D02*
X1371175D01*
X1398260Y1140738D02*
X1394874Y1144123D01*
X1388103D01*
X1384718Y1140738D01*
Y1137352D01*
X1388103Y1133967D01*
X1394874D01*
X1398260Y1130581D01*
Y1127196D01*
X1394874Y1123810D01*
X1388103D01*
X1384718Y1127196D01*
X1418573Y1140738D02*
X1415188Y1144123D01*
X1408417D01*
X1405031Y1140738D01*
Y1137352D01*
X1408417Y1133967D01*
X1415188D01*
X1418573Y1130581D01*
Y1127196D01*
X1415188Y1123810D01*
X1408417D01*
X1405031Y1127196D01*
X1445658Y1144123D02*
X1452429D01*
X1449043D01*
Y1123810D01*
X1445658D01*
X1452429D01*
X1476128Y1140738D02*
X1472742Y1144123D01*
X1465971D01*
X1462586Y1140738D01*
Y1137352D01*
X1465971Y1133967D01*
X1472742D01*
X1476128Y1130581D01*
Y1127196D01*
X1472742Y1123810D01*
X1465971D01*
X1462586Y1127196D01*
X1503213Y1123810D02*
Y1144123D01*
X1516755Y1123810D01*
Y1144123D01*
X1533683D02*
X1526912D01*
X1523526Y1140738D01*
Y1127196D01*
X1526912Y1123810D01*
X1533683D01*
X1537068Y1127196D01*
Y1140738D01*
X1533683Y1144123D01*
X1543840D02*
X1557382D01*
X1550611D01*
Y1123810D01*
X1598009Y1140738D02*
X1594623Y1144123D01*
X1587852D01*
X1584466Y1140738D01*
Y1127196D01*
X1587852Y1123810D01*
X1594623D01*
X1598009Y1127196D01*
X1604780Y1123810D02*
Y1144123D01*
X1614937D01*
X1618322Y1140738D01*
Y1133967D01*
X1614937Y1130581D01*
X1604780D01*
X1611551D02*
X1618322Y1123810D01*
X1625093Y1144123D02*
X1631864D01*
X1628479D01*
Y1123810D01*
X1625093D01*
X1631864D01*
X1642021Y1144123D02*
X1655563D01*
X1648792D01*
Y1123810D01*
X1662334Y1144123D02*
X1669106D01*
X1665720D01*
Y1123810D01*
X1662334D01*
X1669106D01*
X1692805Y1140738D02*
X1689419Y1144123D01*
X1682648D01*
X1679262Y1140738D01*
Y1127196D01*
X1682648Y1123810D01*
X1689419D01*
X1692805Y1127196D01*
X1699576Y1123810D02*
Y1137352D01*
X1706347Y1144123D01*
X1713118Y1137352D01*
Y1123810D01*
Y1133967D01*
X1699576D01*
X1719889Y1144123D02*
Y1123810D01*
X1733432D01*
X1740203Y1137352D02*
X1743588D01*
Y1133967D01*
X1740203D01*
Y1137352D01*
Y1127196D02*
X1743588D01*
Y1123810D01*
X1740203D01*
Y1127196D01*
X1777444Y1144123D02*
X1790986D01*
X1784215D01*
Y1123810D01*
X1807914Y1144123D02*
X1801143D01*
X1797757Y1140738D01*
Y1127196D01*
X1801143Y1123810D01*
X1807914D01*
X1811300Y1127196D01*
Y1140738D01*
X1807914Y1144123D01*
X1838384D02*
Y1123810D01*
X1848541D01*
X1851926Y1127196D01*
Y1130581D01*
X1848541Y1133967D01*
X1838384D01*
X1848541D01*
X1851926Y1137352D01*
Y1140738D01*
X1848541Y1144123D01*
X1838384D01*
X1872240D02*
X1858698D01*
Y1123810D01*
X1872240D01*
X1858698Y1133967D02*
X1865469D01*
X1899324Y1123810D02*
Y1137352D01*
X1906095Y1144123D01*
X1912867Y1137352D01*
Y1123810D01*
Y1133967D01*
X1899324D01*
X1919638Y1123810D02*
Y1144123D01*
X1929794D01*
X1933180Y1140738D01*
Y1133967D01*
X1929794Y1130581D01*
X1919638D01*
X1939951Y1123810D02*
Y1144123D01*
X1950108D01*
X1953493Y1140738D01*
Y1133967D01*
X1950108Y1130581D01*
X1939951D01*
X1960265Y1123810D02*
Y1144123D01*
X1970421D01*
X1973807Y1140738D01*
Y1133967D01*
X1970421Y1130581D01*
X1960265D01*
X1967036D02*
X1973807Y1123810D01*
X1990735Y1144123D02*
X1983964D01*
X1980578Y1140738D01*
Y1127196D01*
X1983964Y1123810D01*
X1990735D01*
X1994120Y1127196D01*
Y1140738D01*
X1990735Y1144123D01*
X2000892D02*
X2014434Y1123810D01*
Y1144123D02*
X2000892Y1123810D01*
X2021205Y1144123D02*
X2027976D01*
X2024590D01*
Y1123810D01*
X2021205D01*
X2027976D01*
X2038133D02*
Y1144123D01*
X2044904Y1137352D01*
X2051675Y1144123D01*
Y1123810D01*
X2058446D02*
Y1137352D01*
X2065217Y1144123D01*
X2071989Y1137352D01*
Y1123810D01*
Y1133967D01*
X2058446D01*
X2078760Y1144123D02*
X2092302D01*
X2085531D01*
Y1123810D01*
X2112615Y1144123D02*
X2099073D01*
Y1123810D01*
X2112615D01*
X2099073Y1133967D02*
X2105844D01*
X2119386Y1144123D02*
Y1123810D01*
X2132929D01*
X2139700Y1144123D02*
Y1140738D01*
X2146471Y1133967D01*
X2153242Y1140738D01*
Y1144123D01*
X2146471Y1133967D02*
Y1123810D01*
X2180327D02*
X2187098D01*
X2183712D01*
Y1144123D01*
X2180327Y1140738D01*
X2197255Y1123810D02*
Y1127196D01*
X2200640D01*
Y1123810D01*
X2197255D01*
X2227725Y1144123D02*
X2220954Y1140738D01*
X2214182Y1133967D01*
Y1127196D01*
X2217568Y1123810D01*
X2224339D01*
X2227725Y1127196D01*
Y1130581D01*
X2224339Y1133967D01*
X2214182D01*
X2234496Y1123810D02*
Y1137352D01*
X2237881D01*
X2241267Y1133967D01*
Y1123810D01*
Y1133967D01*
X2244653Y1137352D01*
X2248038Y1133967D01*
Y1123810D01*
X2254809D02*
Y1137352D01*
X2258195D01*
X2261580Y1133967D01*
Y1123810D01*
Y1133967D01*
X2264966Y1137352D01*
X2268352Y1133967D01*
Y1123810D01*
X897352Y1043810D02*
X883810D01*
X897352Y1057352D01*
Y1060738D01*
X893967Y1064123D01*
X887196D01*
X883810Y1060738D01*
X904123Y1043810D02*
Y1047196D01*
X907509D01*
Y1043810D01*
X904123D01*
X941365Y1064123D02*
Y1043810D01*
X951521D01*
X954907Y1047196D01*
Y1050581D01*
X951521Y1053967D01*
X941365D01*
X951521D01*
X954907Y1057352D01*
Y1060738D01*
X951521Y1064123D01*
X941365D01*
X971835D02*
X965064D01*
X961678Y1060738D01*
Y1047196D01*
X965064Y1043810D01*
X971835D01*
X975220Y1047196D01*
Y1060738D01*
X971835Y1064123D01*
X981992Y1043810D02*
Y1057352D01*
X988763Y1064123D01*
X995534Y1057352D01*
Y1043810D01*
Y1053967D01*
X981992D01*
X1002305Y1043810D02*
Y1064123D01*
X1012462D01*
X1015847Y1060738D01*
Y1053967D01*
X1012462Y1050581D01*
X1002305D01*
X1009076D02*
X1015847Y1043810D01*
X1022618Y1064123D02*
Y1043810D01*
X1032775D01*
X1036161Y1047196D01*
Y1060738D01*
X1032775Y1064123D01*
X1022618D01*
X1076787D02*
X1063245D01*
Y1053967D01*
X1070016D01*
X1063245D01*
Y1043810D01*
X1083559Y1064123D02*
X1090330D01*
X1086944D01*
Y1043810D01*
X1083559D01*
X1090330D01*
X1100487D02*
Y1064123D01*
X1114029Y1043810D01*
Y1064123D01*
X1120800D02*
X1127571D01*
X1124185D01*
Y1043810D01*
X1120800D01*
X1127571D01*
X1151270Y1060738D02*
X1147885Y1064123D01*
X1141113D01*
X1137728Y1060738D01*
Y1057352D01*
X1141113Y1053967D01*
X1147885D01*
X1151270Y1050581D01*
Y1047196D01*
X1147885Y1043810D01*
X1141113D01*
X1137728Y1047196D01*
X1158041Y1064123D02*
Y1043810D01*
Y1053967D01*
X1171583D01*
Y1064123D01*
Y1043810D01*
X1178355Y1057352D02*
X1181740D01*
Y1053967D01*
X1178355D01*
Y1057352D01*
Y1047196D02*
X1181740D01*
Y1043810D01*
X1178355D01*
Y1047196D01*
X1215596Y1064123D02*
X1222367D01*
X1218981D01*
Y1043810D01*
X1215596D01*
X1222367D01*
X1232524D02*
Y1064123D01*
X1239295Y1057352D01*
X1246066Y1064123D01*
Y1043810D01*
X1252837D02*
Y1064123D01*
X1259608Y1057352D01*
X1266379Y1064123D01*
Y1043810D01*
X1286693Y1064123D02*
X1273151D01*
Y1043810D01*
X1286693D01*
X1273151Y1053967D02*
X1279922D01*
X1293464Y1043810D02*
Y1064123D01*
X1303621D01*
X1307006Y1060738D01*
Y1053967D01*
X1303621Y1050581D01*
X1293464D01*
X1300235D02*
X1307006Y1043810D01*
X1327320Y1060738D02*
X1323934Y1064123D01*
X1317163D01*
X1313777Y1060738D01*
Y1057352D01*
X1317163Y1053967D01*
X1323934D01*
X1327320Y1050581D01*
Y1047196D01*
X1323934Y1043810D01*
X1317163D01*
X1313777Y1047196D01*
X1334091Y1064123D02*
X1340862D01*
X1337476D01*
Y1043810D01*
X1334091D01*
X1340862D01*
X1361175Y1064123D02*
X1354404D01*
X1351019Y1060738D01*
Y1047196D01*
X1354404Y1043810D01*
X1361175D01*
X1364561Y1047196D01*
Y1060738D01*
X1361175Y1064123D01*
X1371332Y1043810D02*
Y1064123D01*
X1384874Y1043810D01*
Y1064123D01*
X1411959Y1043810D02*
Y1057352D01*
X1418730Y1064123D01*
X1425501Y1057352D01*
Y1043810D01*
Y1053967D01*
X1411959D01*
X1432272Y1057352D02*
Y1047196D01*
X1435658Y1043810D01*
X1445815D01*
Y1057352D01*
X1452586Y1043810D02*
X1466128Y1057352D01*
X1486441Y1064123D02*
X1472899D01*
Y1043810D01*
X1486441D01*
X1472899Y1053967D02*
X1479670D01*
X1493213Y1064123D02*
Y1043810D01*
X1506755D01*
X1527068Y1064123D02*
X1513526D01*
Y1043810D01*
X1527068D01*
X1513526Y1053967D02*
X1520297D01*
X1547382Y1060738D02*
X1543996Y1064123D01*
X1537225D01*
X1533840Y1060738D01*
Y1047196D01*
X1537225Y1043810D01*
X1543996D01*
X1547382Y1047196D01*
X1554153Y1064123D02*
X1567695D01*
X1560924D01*
Y1043810D01*
X1574466D02*
Y1064123D01*
X1584623D01*
X1588009Y1060738D01*
Y1053967D01*
X1584623Y1050581D01*
X1574466D01*
X1581237D02*
X1588009Y1043810D01*
X1604937Y1064123D02*
X1598165D01*
X1594780Y1060738D01*
Y1047196D01*
X1598165Y1043810D01*
X1604937D01*
X1608322Y1047196D01*
Y1060738D01*
X1604937Y1064123D01*
X1615093D02*
Y1043810D01*
X1628636D01*
X1648949Y1064123D02*
X1635407D01*
Y1043810D01*
X1648949D01*
X1635407Y1053967D02*
X1642178D01*
X1669262Y1060738D02*
X1665877Y1064123D01*
X1659106D01*
X1655720Y1060738D01*
Y1057352D01*
X1659106Y1053967D01*
X1665877D01*
X1669262Y1050581D01*
Y1047196D01*
X1665877Y1043810D01*
X1659106D01*
X1655720Y1047196D01*
X1689576Y1060738D02*
X1686190Y1064123D01*
X1679419D01*
X1676033Y1060738D01*
Y1057352D01*
X1679419Y1053967D01*
X1686190D01*
X1689576Y1050581D01*
Y1047196D01*
X1686190Y1043810D01*
X1679419D01*
X1676033Y1047196D01*
X1716660Y1043810D02*
Y1064123D01*
X1730203Y1043810D01*
Y1064123D01*
X1736974Y1043810D02*
X1743745D01*
X1740359D01*
Y1057352D01*
X1736974D01*
X1753902D02*
X1757287D01*
Y1053967D01*
X1753902D01*
Y1057352D01*
Y1047196D02*
X1757287D01*
Y1043810D01*
X1753902D01*
Y1047196D01*
X1791143Y1060738D02*
X1794528Y1064123D01*
X1801300D01*
X1804685Y1060738D01*
Y1047196D01*
X1801300Y1043810D01*
X1794528D01*
X1791143Y1047196D01*
Y1060738D01*
X1811456Y1043810D02*
Y1047196D01*
X1814842D01*
Y1043810D01*
X1811456D01*
X1828384Y1060738D02*
X1831770Y1064123D01*
X1838541D01*
X1841926Y1060738D01*
Y1047196D01*
X1838541Y1043810D01*
X1831770D01*
X1828384Y1047196D01*
Y1060738D01*
X1862240Y1064123D02*
X1848698D01*
Y1053967D01*
X1855469Y1057352D01*
X1858854D01*
X1862240Y1053967D01*
Y1047196D01*
X1858854Y1043810D01*
X1852083D01*
X1848698Y1047196D01*
X1869011Y1053967D02*
X1882553D01*
X1889324Y1060738D02*
X1892710Y1064123D01*
X1899481D01*
X1902867Y1060738D01*
Y1047196D01*
X1899481Y1043810D01*
X1892710D01*
X1889324Y1047196D01*
Y1060738D01*
X1909638Y1043810D02*
Y1047196D01*
X1913023D01*
Y1043810D01*
X1909638D01*
X1926566D02*
X1933337D01*
X1929951D01*
Y1064123D01*
X1926566Y1060738D01*
X1957036Y1043810D02*
X1943493D01*
X1957036Y1057352D01*
Y1060738D01*
X1953650Y1064123D01*
X1946879D01*
X1943493Y1060738D01*
X1984120Y1057352D02*
Y1047196D01*
X1987506Y1043810D01*
X1997663D01*
Y1057352D01*
X2004434Y1043810D02*
Y1057352D01*
X2007819D01*
X2011205Y1053967D01*
Y1043810D01*
Y1053967D01*
X2014590Y1057352D01*
X2017976Y1053967D01*
Y1043810D01*
X2058603Y1060738D02*
X2055217Y1064123D01*
X2048446D01*
X2045061Y1060738D01*
Y1047196D01*
X2048446Y1043810D01*
X2055217D01*
X2058603Y1047196D01*
Y1053967D01*
X2051832D01*
X2075531Y1064123D02*
X2068760D01*
X2065374Y1060738D01*
Y1047196D01*
X2068760Y1043810D01*
X2075531D01*
X2078916Y1047196D01*
Y1060738D01*
X2075531Y1064123D01*
X2085688D02*
Y1043810D01*
X2099230D01*
X2106001Y1064123D02*
Y1043810D01*
X2116158D01*
X2119543Y1047196D01*
Y1060738D01*
X2116158Y1064123D01*
X2106001D01*
X2126314Y1057352D02*
X2129700D01*
Y1053967D01*
X2126314D01*
Y1057352D01*
Y1047196D02*
X2129700D01*
Y1043810D01*
X2126314D01*
Y1047196D01*
X2163556Y1060738D02*
X2166941Y1064123D01*
X2173712D01*
X2177098Y1060738D01*
Y1057352D01*
X2173712Y1053967D01*
X2170327D01*
X2173712D01*
X2177098Y1050581D01*
Y1047196D01*
X2173712Y1043810D01*
X2166941D01*
X2163556Y1047196D01*
X2183869Y1053967D02*
X2197411D01*
X2217725Y1064123D02*
X2210954Y1060738D01*
X2204182Y1053967D01*
Y1047196D01*
X2207568Y1043810D01*
X2214339D01*
X2217725Y1047196D01*
Y1050581D01*
X2214339Y1053967D01*
X2204182D01*
X2224496Y1057352D02*
Y1047196D01*
X2227881Y1043810D01*
X2238038D01*
Y1057352D01*
X2244809Y1043810D02*
Y1057352D01*
X2248195D01*
X2251580Y1053967D01*
Y1043810D01*
Y1053967D01*
X2254966Y1057352D01*
X2258352Y1053967D01*
Y1043810D01*
X2285436D02*
Y1064123D01*
X2298978Y1043810D01*
Y1064123D01*
X2305750D02*
X2312521D01*
X2309135D01*
Y1043810D01*
X2305750D01*
X2312521D01*
X2336220Y1060738D02*
X2332834Y1064123D01*
X2326063D01*
X2322677Y1060738D01*
Y1047196D01*
X2326063Y1043810D01*
X2332834D01*
X2336220Y1047196D01*
X2342991Y1064123D02*
Y1043810D01*
Y1050581D01*
X2356533Y1064123D01*
X2346376Y1053967D01*
X2356533Y1043810D01*
X2376846Y1064123D02*
X2363304D01*
Y1043810D01*
X2376846D01*
X2363304Y1053967D02*
X2370075D01*
X2383618Y1064123D02*
Y1043810D01*
X2397160D01*
X883810Y980738D02*
X887196Y984123D01*
X893967D01*
X897352Y980738D01*
Y977352D01*
X893967Y973967D01*
X890581D01*
X893967D01*
X897352Y970581D01*
Y967196D01*
X893967Y963810D01*
X887196D01*
X883810Y967196D01*
X904123Y963810D02*
Y967196D01*
X907509D01*
Y963810D01*
X904123D01*
X954907Y980738D02*
X951521Y984123D01*
X944750D01*
X941365Y980738D01*
Y977352D01*
X944750Y973967D01*
X951521D01*
X954907Y970581D01*
Y967196D01*
X951521Y963810D01*
X944750D01*
X941365Y967196D01*
X971835Y984123D02*
X965064D01*
X961678Y980738D01*
Y967196D01*
X965064Y963810D01*
X971835D01*
X975220Y967196D01*
Y980738D01*
X971835Y984123D01*
X981992D02*
Y963810D01*
X995534D01*
X1002305Y984123D02*
Y963810D01*
X1012462D01*
X1015847Y967196D01*
Y980738D01*
X1012462Y984123D01*
X1002305D01*
X1036161D02*
X1022618D01*
Y963810D01*
X1036161D01*
X1022618Y973967D02*
X1029389D01*
X1042932Y963810D02*
Y984123D01*
X1053089D01*
X1056474Y980738D01*
Y973967D01*
X1053089Y970581D01*
X1042932D01*
X1049703D02*
X1056474Y963810D01*
X1083559D02*
Y984123D01*
X1093715D01*
X1097101Y980738D01*
Y973967D01*
X1093715Y970581D01*
X1083559D01*
X1090330D02*
X1097101Y963810D01*
X1117414Y984123D02*
X1103872D01*
Y963810D01*
X1117414D01*
X1103872Y973967D02*
X1110643D01*
X1137728Y980738D02*
X1134342Y984123D01*
X1127571D01*
X1124185Y980738D01*
Y977352D01*
X1127571Y973967D01*
X1134342D01*
X1137728Y970581D01*
Y967196D01*
X1134342Y963810D01*
X1127571D01*
X1124185Y967196D01*
X1144499Y984123D02*
X1151270D01*
X1147885D01*
Y963810D01*
X1144499D01*
X1151270D01*
X1174969Y980738D02*
X1171583Y984123D01*
X1164812D01*
X1161427Y980738D01*
Y977352D01*
X1164812Y973967D01*
X1171583D01*
X1174969Y970581D01*
Y967196D01*
X1171583Y963810D01*
X1164812D01*
X1161427Y967196D01*
X1181740Y984123D02*
X1195283D01*
X1188511D01*
Y963810D01*
X1202054Y977352D02*
X1205439D01*
Y973967D01*
X1202054D01*
Y977352D01*
Y967196D02*
X1205439D01*
Y963810D01*
X1202054D01*
Y967196D01*
X1239295Y963810D02*
Y977352D01*
X1246066Y984123D01*
X1252837Y977352D01*
Y963810D01*
Y973967D01*
X1239295D01*
X1259608Y963810D02*
Y984123D01*
X1269765D01*
X1273151Y980738D01*
Y973967D01*
X1269765Y970581D01*
X1259608D01*
X1279922Y963810D02*
Y984123D01*
X1290078D01*
X1293464Y980738D01*
Y973967D01*
X1290078Y970581D01*
X1279922D01*
X1300235Y984123D02*
Y963810D01*
X1313777D01*
X1320549Y984123D02*
Y980738D01*
X1327320Y973967D01*
X1334091Y980738D01*
Y984123D01*
X1327320Y973967D02*
Y963810D01*
X1361175Y984123D02*
X1374718D01*
X1367946D01*
Y963810D01*
X1391646Y984123D02*
X1384874D01*
X1381489Y980738D01*
Y967196D01*
X1384874Y963810D01*
X1391646D01*
X1395031Y967196D01*
Y980738D01*
X1391646Y984123D01*
X1422116D02*
Y963810D01*
X1432272D01*
X1435658Y967196D01*
Y970581D01*
X1432272Y973967D01*
X1422116D01*
X1432272D01*
X1435658Y977352D01*
Y980738D01*
X1432272Y984123D01*
X1422116D01*
X1452586D02*
X1445815D01*
X1442429Y980738D01*
Y967196D01*
X1445815Y963810D01*
X1452586D01*
X1455971Y967196D01*
Y980738D01*
X1452586Y984123D01*
X1462742D02*
X1476285D01*
X1469514D01*
Y963810D01*
X1483056Y984123D02*
Y963810D01*
Y973967D01*
X1496598D01*
Y984123D01*
Y963810D01*
X1537225Y980738D02*
X1533840Y984123D01*
X1527068D01*
X1523683Y980738D01*
Y977352D01*
X1527068Y973967D01*
X1533840D01*
X1537225Y970581D01*
Y967196D01*
X1533840Y963810D01*
X1527068D01*
X1523683Y967196D01*
X1543996Y984123D02*
X1550767D01*
X1547382D01*
Y963810D01*
X1543996D01*
X1550767D01*
X1560924Y984123D02*
Y963810D01*
X1571081D01*
X1574466Y967196D01*
Y980738D01*
X1571081Y984123D01*
X1560924D01*
X1594780D02*
X1581237D01*
Y963810D01*
X1594780D01*
X1581237Y973967D02*
X1588009D01*
X1615093Y980738D02*
X1611708Y984123D01*
X1604937D01*
X1601551Y980738D01*
Y977352D01*
X1604937Y973967D01*
X1611708D01*
X1615093Y970581D01*
Y967196D01*
X1611708Y963810D01*
X1604937D01*
X1601551Y967196D01*
X1655720Y980738D02*
X1652334Y984123D01*
X1645563D01*
X1642178Y980738D01*
Y967196D01*
X1645563Y963810D01*
X1652334D01*
X1655720Y967196D01*
X1672648Y984123D02*
X1665877D01*
X1662491Y980738D01*
Y967196D01*
X1665877Y963810D01*
X1672648D01*
X1676033Y967196D01*
Y980738D01*
X1672648Y984123D01*
X1682805D02*
Y963810D01*
X1696347D01*
X1713275Y984123D02*
X1706504D01*
X1703118Y980738D01*
Y967196D01*
X1706504Y963810D01*
X1713275D01*
X1716660Y967196D01*
Y980738D01*
X1713275Y984123D01*
X1723431D02*
Y967196D01*
X1726817Y963810D01*
X1733588D01*
X1736974Y967196D01*
Y984123D01*
X1743745Y963810D02*
Y984123D01*
X1753902D01*
X1757287Y980738D01*
Y973967D01*
X1753902Y970581D01*
X1743745D01*
X1750516D02*
X1757287Y963810D01*
X1784372Y973967D02*
X1797914D01*
X1824998Y984123D02*
Y963810D01*
X1835155D01*
X1838541Y967196D01*
Y970581D01*
X1835155Y973967D01*
X1824998D01*
X1835155D01*
X1838541Y977352D01*
Y980738D01*
X1835155Y984123D01*
X1824998D01*
X1845312D02*
Y963810D01*
X1858854D01*
X1865625D02*
Y977352D01*
X1872397Y984123D01*
X1879168Y977352D01*
Y963810D01*
Y973967D01*
X1865625D01*
X1899481Y980738D02*
X1896095Y984123D01*
X1889324D01*
X1885939Y980738D01*
Y967196D01*
X1889324Y963810D01*
X1896095D01*
X1899481Y967196D01*
X1906252Y984123D02*
Y963810D01*
Y970581D01*
X1919794Y984123D01*
X1909638Y973967D01*
X1919794Y963810D01*
X893967Y883810D02*
Y904123D01*
X883810Y893967D01*
X897352D01*
X904123Y883810D02*
Y887196D01*
X907509D01*
Y883810D01*
X904123D01*
X954907Y900738D02*
X951521Y904123D01*
X944750D01*
X941365Y900738D01*
Y887196D01*
X944750Y883810D01*
X951521D01*
X954907Y887196D01*
X971835Y904123D02*
X965064D01*
X961678Y900738D01*
Y887196D01*
X965064Y883810D01*
X971835D01*
X975220Y887196D01*
Y900738D01*
X971835Y904123D01*
X981992Y883810D02*
Y904123D01*
X988763Y897352D01*
X995534Y904123D01*
Y883810D01*
X1002305D02*
Y904123D01*
X1012462D01*
X1015847Y900738D01*
Y893967D01*
X1012462Y890581D01*
X1002305D01*
X1032775Y904123D02*
X1026004D01*
X1022618Y900738D01*
Y887196D01*
X1026004Y883810D01*
X1032775D01*
X1036161Y887196D01*
Y900738D01*
X1032775Y904123D01*
X1042932Y883810D02*
Y904123D01*
X1056474Y883810D01*
Y904123D01*
X1076787D02*
X1063245D01*
Y883810D01*
X1076787D01*
X1063245Y893967D02*
X1070016D01*
X1083559Y883810D02*
Y904123D01*
X1097101Y883810D01*
Y904123D01*
X1103872D02*
X1117414D01*
X1110643D01*
Y883810D01*
X1144499Y904123D02*
X1151270D01*
X1147885D01*
Y883810D01*
X1144499D01*
X1151270D01*
X1161427Y904123D02*
Y883810D01*
X1171583D01*
X1174969Y887196D01*
Y900738D01*
X1171583Y904123D01*
X1161427D01*
X1195283D02*
X1181740D01*
Y883810D01*
X1195283D01*
X1181740Y893967D02*
X1188511D01*
X1202054Y883810D02*
Y904123D01*
X1215596Y883810D01*
Y904123D01*
X1222367D02*
X1235909D01*
X1229138D01*
Y883810D01*
X1242680Y897352D02*
X1246066D01*
Y893967D01*
X1242680D01*
Y897352D01*
Y887196D02*
X1246066D01*
Y883810D01*
X1242680D01*
Y887196D01*
X1293464Y900738D02*
X1290078Y904123D01*
X1283307D01*
X1279922Y900738D01*
Y887196D01*
X1283307Y883810D01*
X1290078D01*
X1293464Y887196D01*
X1310392Y904123D02*
X1303621D01*
X1300235Y900738D01*
Y887196D01*
X1303621Y883810D01*
X1310392D01*
X1313777Y887196D01*
Y900738D01*
X1310392Y904123D01*
X1320549D02*
Y883810D01*
X1334091D01*
X1351019Y904123D02*
X1344248D01*
X1340862Y900738D01*
Y887196D01*
X1344248Y883810D01*
X1351019D01*
X1354404Y887196D01*
Y900738D01*
X1351019Y904123D01*
X1361175D02*
Y887196D01*
X1364561Y883810D01*
X1371332D01*
X1374718Y887196D01*
Y904123D01*
X1381489Y883810D02*
Y904123D01*
X1391646D01*
X1395031Y900738D01*
Y893967D01*
X1391646Y890581D01*
X1381489D01*
X1388260D02*
X1395031Y883810D01*
X1422116Y904123D02*
X1435658D01*
X1428887D01*
Y883810D01*
X1452586Y904123D02*
X1445815D01*
X1442429Y900738D01*
Y887196D01*
X1445815Y883810D01*
X1452586D01*
X1455971Y887196D01*
Y900738D01*
X1452586Y904123D01*
X1483056D02*
Y883810D01*
X1493213D01*
X1496598Y887196D01*
Y890581D01*
X1493213Y893967D01*
X1483056D01*
X1493213D01*
X1496598Y897352D01*
Y900738D01*
X1493213Y904123D01*
X1483056D01*
X1516912D02*
X1503369D01*
Y883810D01*
X1516912D01*
X1503369Y893967D02*
X1510141D01*
X1543996Y904123D02*
Y883810D01*
X1550767Y890581D01*
X1557538Y883810D01*
Y904123D01*
X1564310D02*
Y883810D01*
Y893967D01*
X1577852D01*
Y904123D01*
Y883810D01*
X1584623Y904123D02*
X1591394D01*
X1588009D01*
Y883810D01*
X1584623D01*
X1591394D01*
X1601551Y904123D02*
X1615093D01*
X1608322D01*
Y883810D01*
X1635407Y904123D02*
X1621864D01*
Y883810D01*
X1635407D01*
X1621864Y893967D02*
X1628636D01*
X897352Y824123D02*
X883810D01*
Y813967D01*
X890581Y817352D01*
X893967D01*
X897352Y813967D01*
Y807196D01*
X893967Y803810D01*
X887196D01*
X883810Y807196D01*
X904123Y803810D02*
Y807196D01*
X907509D01*
Y803810D01*
X904123D01*
X941365D02*
Y824123D01*
X951521D01*
X954907Y820738D01*
Y813967D01*
X951521Y810581D01*
X941365D01*
X961678Y803810D02*
Y817352D01*
X968449Y824123D01*
X975220Y817352D01*
Y803810D01*
Y813967D01*
X961678D01*
X981992Y803810D02*
Y824123D01*
X995534Y803810D01*
Y824123D01*
X1015847D02*
X1002305D01*
Y803810D01*
X1015847D01*
X1002305Y813967D02*
X1009076D01*
X1022618Y824123D02*
Y803810D01*
X1036161D01*
X1042932Y824123D02*
X1049703D01*
X1046317D01*
Y803810D01*
X1042932D01*
X1049703D01*
X1059860Y824123D02*
X1073402D01*
Y820738D01*
X1059860Y807196D01*
Y803810D01*
X1073402D01*
X1093715Y824123D02*
X1080173D01*
Y803810D01*
X1093715D01*
X1080173Y813967D02*
X1086944D01*
X1120800Y824123D02*
X1134342D01*
X1127571D01*
Y803810D01*
X1141113Y824123D02*
Y803810D01*
Y813967D01*
X1154656D01*
Y824123D01*
Y803810D01*
X1174969Y824123D02*
X1161427D01*
Y803810D01*
X1174969D01*
X1161427Y813967D02*
X1168198D01*
X1202054Y824123D02*
Y803810D01*
X1212210D01*
X1215596Y807196D01*
Y810581D01*
X1212210Y813967D01*
X1202054D01*
X1212210D01*
X1215596Y817352D01*
Y820738D01*
X1212210Y824123D01*
X1202054D01*
X1232524D02*
X1225753D01*
X1222367Y820738D01*
Y807196D01*
X1225753Y803810D01*
X1232524D01*
X1235909Y807196D01*
Y820738D01*
X1232524Y824123D01*
X1242680Y803810D02*
Y817352D01*
X1249452Y824123D01*
X1256223Y817352D01*
Y803810D01*
Y813967D01*
X1242680D01*
X1262994Y803810D02*
Y824123D01*
X1273151D01*
X1276536Y820738D01*
Y813967D01*
X1273151Y810581D01*
X1262994D01*
X1269765D02*
X1276536Y803810D01*
X1283307Y824123D02*
Y803810D01*
X1293464D01*
X1296850Y807196D01*
Y820738D01*
X1293464Y824123D01*
X1283307D01*
X1330705Y803810D02*
X1323934Y810581D01*
Y817352D01*
X1330705Y824123D01*
X1351019Y803810D02*
Y824123D01*
X1340862Y813967D01*
X1354404D01*
X1361175Y803810D02*
Y824123D01*
X1371332D01*
X1374718Y820738D01*
Y813967D01*
X1371332Y810581D01*
X1361175D01*
X1395031Y820738D02*
X1391646Y824123D01*
X1384874D01*
X1381489Y820738D01*
Y807196D01*
X1384874Y803810D01*
X1391646D01*
X1395031Y807196D01*
X1415345Y820738D02*
X1411959Y824123D01*
X1405188D01*
X1401802Y820738D01*
Y817352D01*
X1405188Y813967D01*
X1411959D01*
X1415345Y810581D01*
Y807196D01*
X1411959Y803810D01*
X1405188D01*
X1401802Y807196D01*
X1442429Y803810D02*
Y824123D01*
X1452586D01*
X1455971Y820738D01*
Y813967D01*
X1452586Y810581D01*
X1442429D01*
X1476285Y824123D02*
X1462742D01*
Y803810D01*
X1476285D01*
X1462742Y813967D02*
X1469514D01*
X1483056Y803810D02*
Y824123D01*
X1493213D01*
X1496598Y820738D01*
Y813967D01*
X1493213Y810581D01*
X1483056D01*
X1489827D02*
X1496598Y803810D01*
X1523683D02*
Y824123D01*
X1533840D01*
X1537225Y820738D01*
Y813967D01*
X1533840Y810581D01*
X1523683D01*
X1543996Y803810D02*
Y817352D01*
X1550767Y824123D01*
X1557538Y817352D01*
Y803810D01*
Y813967D01*
X1543996D01*
X1564310Y803810D02*
Y824123D01*
X1577852Y803810D01*
Y824123D01*
X1598165D02*
X1584623D01*
Y803810D01*
X1598165D01*
X1584623Y813967D02*
X1591394D01*
X1604937Y824123D02*
Y803810D01*
X1618479D01*
X1625250D02*
X1632021Y810581D01*
Y817352D01*
X1625250Y824123D01*
X1642178Y803810D02*
Y807196D01*
X1645563D01*
Y803810D01*
X1642178D01*
X1679419D02*
Y824123D01*
X1689576D01*
X1692961Y820738D01*
Y813967D01*
X1689576Y810581D01*
X1679419D01*
X1699732Y824123D02*
Y803810D01*
X1713275D01*
X1720046D02*
Y817352D01*
X1726817Y824123D01*
X1733588Y817352D01*
Y803810D01*
Y813967D01*
X1720046D01*
X1753902Y820738D02*
X1750516Y824123D01*
X1743745D01*
X1740359Y820738D01*
Y807196D01*
X1743745Y803810D01*
X1750516D01*
X1753902Y807196D01*
X1774215Y824123D02*
X1760673D01*
Y803810D01*
X1774215D01*
X1760673Y813967D02*
X1767444D01*
X1814842Y824123D02*
X1801299D01*
Y813967D01*
X1808071D01*
X1801299D01*
Y803810D01*
X1821613Y824123D02*
X1828384D01*
X1824998D01*
Y803810D01*
X1821613D01*
X1828384D01*
X1838541Y824123D02*
Y803810D01*
X1848698D01*
X1852083Y807196D01*
Y820738D01*
X1848698Y824123D01*
X1838541D01*
X1858854D02*
Y807196D01*
X1862240Y803810D01*
X1869011D01*
X1872397Y807196D01*
Y824123D01*
X1892710Y820738D02*
X1889324Y824123D01*
X1882553D01*
X1879168Y820738D01*
Y807196D01*
X1882553Y803810D01*
X1889324D01*
X1892710Y807196D01*
X1899481Y824123D02*
X1906252D01*
X1902867D01*
Y803810D01*
X1899481D01*
X1906252D01*
X1916409D02*
Y817352D01*
X1923180Y824123D01*
X1929951Y817352D01*
Y803810D01*
Y813967D01*
X1916409D01*
X1936722Y824123D02*
Y803810D01*
X1950265D01*
X1970578Y820738D02*
X1967193Y824123D01*
X1960421D01*
X1957036Y820738D01*
Y817352D01*
X1960421Y813967D01*
X1967193D01*
X1970578Y810581D01*
Y807196D01*
X1967193Y803810D01*
X1960421D01*
X1957036Y807196D01*
X2007819Y824123D02*
X2001048D01*
X1997663Y820738D01*
Y807196D01*
X2001048Y803810D01*
X2007819D01*
X2011205Y807196D01*
Y820738D01*
X2007819Y824123D01*
X2017976Y803810D02*
Y824123D01*
X2031518Y803810D01*
Y824123D01*
X2058603D02*
X2072145D01*
X2065374D01*
Y803810D01*
X2078916Y824123D02*
Y803810D01*
Y813967D01*
X2092459D01*
Y824123D01*
Y803810D01*
X2112772Y824123D02*
X2099230D01*
Y803810D01*
X2112772D01*
X2099230Y813967D02*
X2106001D01*
X2139857Y803810D02*
Y824123D01*
X2150013D01*
X2153399Y820738D01*
Y813967D01*
X2150013Y810581D01*
X2139857D01*
X2160170Y803810D02*
Y817352D01*
X2166941Y824123D01*
X2173712Y817352D01*
Y803810D01*
Y813967D01*
X2160170D01*
X2180483Y803810D02*
Y824123D01*
X2194026Y803810D01*
Y824123D01*
X2214339D02*
X2200797D01*
Y803810D01*
X2214339D01*
X2200797Y813967D02*
X2207568D01*
X2221110Y824123D02*
Y803810D01*
X2234653D01*
X2275279Y820738D02*
X2271894Y824123D01*
X2265123D01*
X2261737Y820738D01*
Y817352D01*
X2265123Y813967D01*
X2271894D01*
X2275279Y810581D01*
Y807196D01*
X2271894Y803810D01*
X2265123D01*
X2261737Y807196D01*
X2282050Y824123D02*
X2295593D01*
X2288822D01*
Y803810D01*
X2302364D02*
Y824123D01*
X2312521D01*
X2315906Y820738D01*
Y813967D01*
X2312521Y810581D01*
X2302364D01*
X2309135D02*
X2315906Y803810D01*
X2322677Y824123D02*
X2329449D01*
X2326063D01*
Y803810D01*
X2322677D01*
X2329449D01*
X2339605D02*
Y824123D01*
X2349762D01*
X2353147Y820738D01*
Y813967D01*
X2349762Y810581D01*
X2339605D01*
X2373461Y820738D02*
X2370075Y824123D01*
X2363304D01*
X2359919Y820738D01*
Y817352D01*
X2363304Y813967D01*
X2370075D01*
X2373461Y810581D01*
Y807196D01*
X2370075Y803810D01*
X2363304D01*
X2359919Y807196D01*
X2400546Y803810D02*
Y817352D01*
X2407317Y824123D01*
X2414088Y817352D01*
Y803810D01*
Y813967D01*
X2400546D01*
X2434401Y820738D02*
X2431016Y824123D01*
X2424245D01*
X2420859Y820738D01*
Y817352D01*
X2424245Y813967D01*
X2431016D01*
X2434401Y810581D01*
Y807196D01*
X2431016Y803810D01*
X2424245D01*
X2420859Y807196D01*
X2475028Y824123D02*
X2461486D01*
Y813967D01*
X2468257D01*
X2461486D01*
Y803810D01*
X2491956Y824123D02*
X2485185D01*
X2481799Y820738D01*
Y807196D01*
X2485185Y803810D01*
X2491956D01*
X2495341Y807196D01*
Y820738D01*
X2491956Y824123D01*
X2502113D02*
Y803810D01*
X2515655D01*
X2522426Y824123D02*
Y803810D01*
X2535968D01*
X2552896Y824123D02*
X2546125D01*
X2542739Y820738D01*
Y807196D01*
X2546125Y803810D01*
X2552896D01*
X2556282Y807196D01*
Y820738D01*
X2552896Y824123D01*
X2563053D02*
Y803810D01*
X2569824Y810581D01*
X2576595Y803810D01*
Y824123D01*
X2596909Y820738D02*
X2593523Y824123D01*
X2586752D01*
X2583366Y820738D01*
Y817352D01*
X2586752Y813967D01*
X2593523D01*
X2596909Y810581D01*
Y807196D01*
X2593523Y803810D01*
X2586752D01*
X2583366Y807196D01*
X2603680Y817352D02*
X2607065D01*
Y813967D01*
X2603680D01*
Y817352D01*
Y807196D02*
X2607065D01*
Y803810D01*
X2603680D01*
Y807196D01*
X943810Y780738D02*
X957352D01*
X997979Y790895D02*
X984437D01*
Y780738D01*
X991208D01*
X984437D01*
Y770581D01*
X1004750Y790895D02*
X1011521D01*
X1008136D01*
Y770581D01*
X1004750D01*
X1011521D01*
X1021678Y790895D02*
Y770581D01*
X1031835D01*
X1035220Y773967D01*
Y787509D01*
X1031835Y790895D01*
X1021678D01*
X1041992D02*
Y773967D01*
X1045377Y770581D01*
X1052148D01*
X1055534Y773967D01*
Y790895D01*
X1075847Y787509D02*
X1072462Y790895D01*
X1065691D01*
X1062305Y787509D01*
Y773967D01*
X1065691Y770581D01*
X1072462D01*
X1075847Y773967D01*
X1082618Y790895D02*
X1089389D01*
X1086004D01*
Y770581D01*
X1082618D01*
X1089389D01*
X1099546D02*
Y784123D01*
X1106317Y790895D01*
X1113089Y784123D01*
Y770581D01*
Y780738D01*
X1099546D01*
X1119860Y790895D02*
Y770581D01*
X1133402D01*
X1160487Y790895D02*
Y770581D01*
X1170643D01*
X1174029Y773967D01*
Y787509D01*
X1170643Y790895D01*
X1160487D01*
X1180800D02*
X1187571D01*
X1184185D01*
Y770581D01*
X1180800D01*
X1187571D01*
X1197728D02*
Y784123D01*
X1204499Y790895D01*
X1211270Y784123D01*
Y770581D01*
Y780738D01*
X1197728D01*
X1218041Y770581D02*
Y790895D01*
X1224812Y784123D01*
X1231583Y790895D01*
Y770581D01*
X1251897Y790895D02*
X1238355D01*
Y770581D01*
X1251897D01*
X1238355Y780738D02*
X1245126D01*
X1258668Y790895D02*
X1272210D01*
X1265439D01*
Y770581D01*
X1292524Y790895D02*
X1278981D01*
Y770581D01*
X1292524D01*
X1278981Y780738D02*
X1285753D01*
X1299295Y770581D02*
Y790895D01*
X1309452D01*
X1312837Y787509D01*
Y780738D01*
X1309452Y777352D01*
X1299295D01*
X1306066D02*
X1312837Y770581D01*
X1339922D02*
X1346693D01*
X1343307D01*
Y790895D01*
X1339922Y787509D01*
X1356850Y780738D02*
X1370392D01*
X1377163Y770581D02*
X1383934D01*
X1380549D01*
Y790895D01*
X1377163Y787509D01*
X1394091Y770581D02*
Y773967D01*
X1397476D01*
Y770581D01*
X1394091D01*
X1424561Y790895D02*
X1411019D01*
Y780738D01*
X1417790Y784123D01*
X1421175D01*
X1424561Y780738D01*
Y773967D01*
X1421175Y770581D01*
X1414404D01*
X1411019Y773967D01*
X1431332Y770581D02*
Y790895D01*
X1438103Y784123D01*
X1444874Y790895D01*
Y770581D01*
X1451646D02*
Y790895D01*
X1458417Y784123D01*
X1465188Y790895D01*
Y770581D01*
X1475345Y767196D02*
X1478730Y770581D01*
Y773967D01*
X1475345D01*
Y770581D01*
X1478730D01*
X1475345Y767196D01*
X1471959Y763810D01*
X1526128Y787509D02*
X1522742Y790895D01*
X1515971D01*
X1512586Y787509D01*
Y784123D01*
X1515971Y780738D01*
X1522742D01*
X1526128Y777352D01*
Y773967D01*
X1522742Y770581D01*
X1515971D01*
X1512586Y773967D01*
X1543056Y790895D02*
X1536285D01*
X1532899Y787509D01*
Y773967D01*
X1536285Y770581D01*
X1543056D01*
X1546441Y773967D01*
Y787509D01*
X1543056Y790895D01*
X1553213D02*
Y770581D01*
X1566755D01*
X1573526Y790895D02*
Y770581D01*
X1583683D01*
X1587068Y773967D01*
Y787509D01*
X1583683Y790895D01*
X1573526D01*
X1607382D02*
X1593840D01*
Y770581D01*
X1607382D01*
X1593840Y780738D02*
X1600611D01*
X1614153Y770581D02*
Y790895D01*
X1624310D01*
X1627695Y787509D01*
Y780738D01*
X1624310Y777352D01*
X1614153D01*
X1620924D02*
X1627695Y770581D01*
X1654780D02*
Y790895D01*
X1661551Y784123D01*
X1668322Y790895D01*
Y770581D01*
X1675093D02*
Y784123D01*
X1681864Y790895D01*
X1688636Y784123D01*
Y770581D01*
Y780738D01*
X1675093D01*
X1708949Y787509D02*
X1705563Y790895D01*
X1698792D01*
X1695407Y787509D01*
Y784123D01*
X1698792Y780738D01*
X1705563D01*
X1708949Y777352D01*
Y773967D01*
X1705563Y770581D01*
X1698792D01*
X1695407Y773967D01*
X1715720Y790895D02*
Y770581D01*
Y777352D01*
X1729262Y790895D01*
X1719106Y780738D01*
X1729262Y770581D01*
X1766504Y790895D02*
X1759732D01*
X1756347Y787509D01*
Y773967D01*
X1759732Y770581D01*
X1766504D01*
X1769889Y773967D01*
Y787509D01*
X1766504Y790895D01*
X1776660Y770581D02*
Y790895D01*
X1786817D01*
X1790203Y787509D01*
Y780738D01*
X1786817Y777352D01*
X1776660D01*
X1810516Y790895D02*
X1796974D01*
Y770581D01*
X1810516D01*
X1796974Y780738D02*
X1803745D01*
X1817287Y770581D02*
Y790895D01*
X1830829Y770581D01*
Y790895D01*
X1837601D02*
X1844372D01*
X1840986D01*
Y770581D01*
X1837601D01*
X1844372D01*
X1854528D02*
Y790895D01*
X1868071Y770581D01*
Y790895D01*
X1888384Y787509D02*
X1884999Y790895D01*
X1878227D01*
X1874842Y787509D01*
Y773967D01*
X1878227Y770581D01*
X1884999D01*
X1888384Y773967D01*
Y780738D01*
X1881613D01*
X1915469Y770581D02*
Y784123D01*
X1922240Y790895D01*
X1929011Y784123D01*
Y770581D01*
Y780738D01*
X1915469D01*
X1935782Y790895D02*
X1949324D01*
X1942553D01*
Y770581D01*
X1976409Y790895D02*
Y770581D01*
X1989951D01*
X2010265Y790895D02*
X1996722D01*
Y770581D01*
X2010265D01*
X1996722Y780738D02*
X2003493D01*
X2017036Y770581D02*
Y784123D01*
X2023807Y790895D01*
X2030578Y784123D01*
Y770581D01*
Y780738D01*
X2017036D01*
X2050892Y787509D02*
X2047506Y790895D01*
X2040735D01*
X2037349Y787509D01*
Y784123D01*
X2040735Y780738D01*
X2047506D01*
X2050892Y777352D01*
Y773967D01*
X2047506Y770581D01*
X2040735D01*
X2037349Y773967D01*
X2057663Y790895D02*
X2071205D01*
X2064434D01*
Y770581D01*
X2098289D02*
X2105061D01*
X2101675D01*
Y790895D01*
X2098289Y787509D01*
X2115217Y770581D02*
Y790895D01*
X2121989Y784123D01*
X2128760Y790895D01*
Y770581D01*
X2135531D02*
Y790895D01*
X2142302Y784123D01*
X2149073Y790895D01*
Y770581D01*
X2189700Y787509D02*
X2186314Y790895D01*
X2179543D01*
X2176158Y787509D01*
Y773967D01*
X2179543Y770581D01*
X2186314D01*
X2189700Y773967D01*
Y780738D01*
X2182929D01*
X2196471Y770581D02*
Y790895D01*
X2206628D01*
X2210013Y787509D01*
Y780738D01*
X2206628Y777352D01*
X2196471D01*
X2203242D02*
X2210013Y770581D01*
X2230327Y790895D02*
X2216784D01*
Y770581D01*
X2230327D01*
X2216784Y780738D02*
X2223556D01*
X2237098Y770581D02*
Y784123D01*
X2243869Y790895D01*
X2250640Y784123D01*
Y770581D01*
Y780738D01*
X2237098D01*
X2257411Y790895D02*
X2270954D01*
X2264182D01*
Y770581D01*
X2291267Y790895D02*
X2277725D01*
Y770581D01*
X2291267D01*
X2277725Y780738D02*
X2284496D01*
X2298038Y770581D02*
Y790895D01*
X2308195D01*
X2311580Y787509D01*
Y780738D01*
X2308195Y777352D01*
X2298038D01*
X2304809D02*
X2311580Y770581D01*
X2338665Y790895D02*
X2352207D01*
X2345436D01*
Y770581D01*
X2358978Y790895D02*
Y770581D01*
Y780738D01*
X2372521D01*
Y790895D01*
Y770581D01*
X2379292D02*
Y784123D01*
X2386063Y790895D01*
X2392834Y784123D01*
Y770581D01*
Y780738D01*
X2379292D01*
X2399605Y770581D02*
Y790895D01*
X2413147Y770581D01*
Y790895D01*
X2453774D02*
X2440232D01*
Y780738D01*
X2447003D01*
X2440232D01*
Y770581D01*
X2460546Y790895D02*
X2467317D01*
X2463931D01*
Y770581D01*
X2460546D01*
X2467317D01*
X2477473Y790895D02*
Y770581D01*
X2487630D01*
X2491016Y773967D01*
Y787509D01*
X2487630Y790895D01*
X2477473D01*
X2497787D02*
Y773967D01*
X2501172Y770581D01*
X2507944D01*
X2511329Y773967D01*
Y790895D01*
X2531642Y787509D02*
X2528257Y790895D01*
X2521486D01*
X2518100Y787509D01*
Y773967D01*
X2521486Y770581D01*
X2528257D01*
X2531642Y773967D01*
X2538414Y790895D02*
X2545185D01*
X2541799D01*
Y770581D01*
X2538414D01*
X2545185D01*
X2555341D02*
Y784123D01*
X2562113Y790895D01*
X2568884Y784123D01*
Y770581D01*
Y780738D01*
X2555341D01*
X2575655Y790895D02*
Y770581D01*
X2589197D01*
X943810Y743967D02*
X957352D01*
X984437Y733810D02*
Y754123D01*
X991208Y747352D01*
X997979Y754123D01*
Y733810D01*
X1004750Y754123D02*
X1011521D01*
X1008136D01*
Y733810D01*
X1004750D01*
X1011521D01*
X1021678D02*
Y754123D01*
X1035220Y733810D01*
Y754123D01*
X1041992D02*
X1048763D01*
X1045377D01*
Y733810D01*
X1041992D01*
X1048763D01*
X1058919D02*
Y754123D01*
X1065691Y747352D01*
X1072462Y754123D01*
Y733810D01*
X1079233Y754123D02*
Y737196D01*
X1082618Y733810D01*
X1089389D01*
X1092775Y737196D01*
Y754123D01*
X1099546Y733810D02*
Y754123D01*
X1106317Y747352D01*
X1113089Y754123D01*
Y733810D01*
X1150330D02*
Y754123D01*
X1140173Y743967D01*
X1153715D01*
X1160487Y733810D02*
Y754123D01*
X1167258Y747352D01*
X1174029Y754123D01*
Y733810D01*
X1180800D02*
Y754123D01*
X1187571Y747352D01*
X1194342Y754123D01*
Y733810D01*
X1221427Y754123D02*
Y733810D01*
X1231583D01*
X1234969Y737196D01*
Y750738D01*
X1231583Y754123D01*
X1221427D01*
X1241740D02*
X1248511D01*
X1245126D01*
Y733810D01*
X1241740D01*
X1248511D01*
X1272210Y750738D02*
X1268825Y754123D01*
X1262054D01*
X1258668Y750738D01*
Y747352D01*
X1262054Y743967D01*
X1268825D01*
X1272210Y740581D01*
Y737196D01*
X1268825Y733810D01*
X1262054D01*
X1258668Y737196D01*
X1278981Y754123D02*
X1292524D01*
X1285753D01*
Y733810D01*
X1299295D02*
Y747352D01*
X1306066Y754123D01*
X1312837Y747352D01*
Y733810D01*
Y743967D01*
X1299295D01*
X1319608Y733810D02*
Y754123D01*
X1333151Y733810D01*
Y754123D01*
X1353464Y750738D02*
X1350078Y754123D01*
X1343307D01*
X1339922Y750738D01*
Y737196D01*
X1343307Y733810D01*
X1350078D01*
X1353464Y737196D01*
X1373777Y754123D02*
X1360235D01*
Y733810D01*
X1373777D01*
X1360235Y743967D02*
X1367006D01*
X1414404Y754123D02*
X1400862D01*
Y743967D01*
X1407633D01*
X1400862D01*
Y733810D01*
X1421175D02*
Y754123D01*
X1431332D01*
X1434718Y750738D01*
Y743967D01*
X1431332Y740581D01*
X1421175D01*
X1427946D02*
X1434718Y733810D01*
X1451646Y754123D02*
X1444874D01*
X1441489Y750738D01*
Y737196D01*
X1444874Y733810D01*
X1451646D01*
X1455031Y737196D01*
Y750738D01*
X1451646Y754123D01*
X1461802Y733810D02*
Y754123D01*
X1468573Y747352D01*
X1475345Y754123D01*
Y733810D01*
X1502429Y754123D02*
X1515971D01*
X1509200D01*
Y733810D01*
X1522742Y754123D02*
Y733810D01*
Y743967D01*
X1536285D01*
Y754123D01*
Y733810D01*
X1556598Y754123D02*
X1543056D01*
Y733810D01*
X1556598D01*
X1543056Y743967D02*
X1549827D01*
X1583683Y733810D02*
Y754123D01*
X1593840D01*
X1597225Y750738D01*
Y743967D01*
X1593840Y740581D01*
X1583683D01*
X1603996Y733810D02*
Y747352D01*
X1610767Y754123D01*
X1617538Y747352D01*
Y733810D01*
Y743967D01*
X1603996D01*
X1624310Y733810D02*
Y754123D01*
X1637852Y733810D01*
Y754123D01*
X1644623Y733810D02*
Y754123D01*
X1658165Y733810D01*
Y754123D01*
X1678479D02*
X1664937D01*
Y733810D01*
X1678479D01*
X1664937Y743967D02*
X1671708D01*
X1685250Y754123D02*
Y733810D01*
X1698792D01*
X1739419Y754123D02*
X1725877D01*
Y733810D01*
X1739419D01*
X1725877Y743967D02*
X1732648D01*
X1746190Y754123D02*
Y733810D01*
X1756347D01*
X1759732Y737196D01*
Y750738D01*
X1756347Y754123D01*
X1746190D01*
X1780046Y750738D02*
X1776660Y754123D01*
X1769889D01*
X1766504Y750738D01*
Y737196D01*
X1769889Y733810D01*
X1776660D01*
X1780046Y737196D01*
Y743967D01*
X1773275D01*
X1800359Y754123D02*
X1786817D01*
Y733810D01*
X1800359D01*
X1786817Y743967D02*
X1793588D01*
X943810Y713967D02*
X957352D01*
X984437Y720738D02*
X987822Y724123D01*
X994594D01*
X997979Y720738D01*
Y717352D01*
X994594Y713967D01*
X991208D01*
X994594D01*
X997979Y710581D01*
Y707196D01*
X994594Y703810D01*
X987822D01*
X984437Y707196D01*
X1038606Y724123D02*
X1025064D01*
Y713967D01*
X1031835D01*
X1025064D01*
Y703810D01*
X1045377Y724123D02*
X1052148D01*
X1048763D01*
Y703810D01*
X1045377D01*
X1052148D01*
X1062305Y724123D02*
Y703810D01*
X1072462D01*
X1075847Y707196D01*
Y720738D01*
X1072462Y724123D01*
X1062305D01*
X1082618D02*
Y707196D01*
X1086004Y703810D01*
X1092775D01*
X1096161Y707196D01*
Y724123D01*
X1116474Y720738D02*
X1113089Y724123D01*
X1106317D01*
X1102932Y720738D01*
Y707196D01*
X1106317Y703810D01*
X1113089D01*
X1116474Y707196D01*
X1123245Y724123D02*
X1130016D01*
X1126631D01*
Y703810D01*
X1123245D01*
X1130016D01*
X1140173D02*
Y717352D01*
X1146944Y724123D01*
X1153715Y717352D01*
Y703810D01*
Y713967D01*
X1140173D01*
X1160487Y724123D02*
Y703810D01*
X1174029D01*
X1194342Y720738D02*
X1190957Y724123D01*
X1184185D01*
X1180800Y720738D01*
Y717352D01*
X1184185Y713967D01*
X1190957D01*
X1194342Y710581D01*
Y707196D01*
X1190957Y703810D01*
X1184185D01*
X1180800Y707196D01*
X1234969Y720738D02*
X1231583Y724123D01*
X1224812D01*
X1221427Y720738D01*
Y717352D01*
X1224812Y713967D01*
X1231583D01*
X1234969Y710581D01*
Y707196D01*
X1231583Y703810D01*
X1224812D01*
X1221427Y707196D01*
X1241740Y724123D02*
Y703810D01*
Y713967D01*
X1255283D01*
Y724123D01*
Y703810D01*
X1272210Y724123D02*
X1265439D01*
X1262054Y720738D01*
Y707196D01*
X1265439Y703810D01*
X1272210D01*
X1275596Y707196D01*
Y720738D01*
X1272210Y724123D01*
X1282367D02*
Y707196D01*
X1285753Y703810D01*
X1292524D01*
X1295909Y707196D01*
Y724123D01*
X1302681D02*
Y703810D01*
X1316223D01*
X1322994Y724123D02*
Y703810D01*
X1333151D01*
X1336536Y707196D01*
Y720738D01*
X1333151Y724123D01*
X1322994D01*
X1363621D02*
Y703810D01*
X1377163D01*
X1383934Y724123D02*
X1390705D01*
X1387320D01*
Y703810D01*
X1383934D01*
X1390705D01*
X1414404Y724123D02*
X1400862D01*
Y703810D01*
X1414404D01*
X1400862Y713967D02*
X1407633D01*
X1451646Y724123D02*
X1444874D01*
X1441489Y720738D01*
Y707196D01*
X1444874Y703810D01*
X1451646D01*
X1455031Y707196D01*
Y720738D01*
X1451646Y724123D01*
X1461802Y703810D02*
Y724123D01*
X1475345Y703810D01*
Y724123D01*
X1502429D02*
X1515971D01*
X1509200D01*
Y703810D01*
X1522742Y724123D02*
Y703810D01*
X1529514Y710581D01*
X1536285Y703810D01*
Y724123D01*
X1553213D02*
X1546441D01*
X1543056Y720738D01*
Y707196D01*
X1546441Y703810D01*
X1553213D01*
X1556598Y707196D01*
Y720738D01*
X1553213Y724123D01*
X1583683D02*
Y703810D01*
X1597225D01*
X1603996Y724123D02*
X1610767D01*
X1607382D01*
Y703810D01*
X1603996D01*
X1610767D01*
X1620924D02*
Y724123D01*
X1634466Y703810D01*
Y724123D01*
X1654780D02*
X1641237D01*
Y703810D01*
X1654780D01*
X1641237Y713967D02*
X1648009D01*
X1675093Y720738D02*
X1671708Y724123D01*
X1664937D01*
X1661551Y720738D01*
Y717352D01*
X1664937Y713967D01*
X1671708D01*
X1675093Y710581D01*
Y707196D01*
X1671708Y703810D01*
X1664937D01*
X1661551Y707196D01*
X1702178Y724123D02*
X1715720D01*
X1708949D01*
Y703810D01*
X1722491Y724123D02*
Y703810D01*
Y713967D01*
X1736033D01*
Y724123D01*
Y703810D01*
X1742805D02*
Y717352D01*
X1749576Y724123D01*
X1756347Y717352D01*
Y703810D01*
Y713967D01*
X1742805D01*
X1763118Y724123D02*
X1776660D01*
X1769889D01*
Y703810D01*
X1803745Y724123D02*
X1810516D01*
X1807130D01*
Y703810D01*
X1803745D01*
X1810516D01*
X1820673D02*
Y724123D01*
X1834215Y703810D01*
Y724123D01*
X1840986D02*
X1854528D01*
X1847757D01*
Y703810D01*
X1874842Y724123D02*
X1861300D01*
Y703810D01*
X1874842D01*
X1861300Y713967D02*
X1868071D01*
X1881613Y703810D02*
Y724123D01*
X1891770D01*
X1895155Y720738D01*
Y713967D01*
X1891770Y710581D01*
X1881613D01*
X1888384D02*
X1895155Y703810D01*
X1915469Y720738D02*
X1912083Y724123D01*
X1905312D01*
X1901926Y720738D01*
Y717352D01*
X1905312Y713967D01*
X1912083D01*
X1915469Y710581D01*
Y707196D01*
X1912083Y703810D01*
X1905312D01*
X1901926Y707196D01*
X1935782Y724123D02*
X1922240D01*
Y703810D01*
X1935782D01*
X1922240Y713967D02*
X1929011D01*
X1956095Y720738D02*
X1952710Y724123D01*
X1945939D01*
X1942553Y720738D01*
Y707196D01*
X1945939Y703810D01*
X1952710D01*
X1956095Y707196D01*
X1962867Y724123D02*
X1976409D01*
X1969638D01*
Y703810D01*
X2003493D02*
Y717352D01*
X2010265Y724123D01*
X2017036Y717352D01*
Y703810D01*
Y713967D01*
X2003493D01*
X2023807Y724123D02*
X2037349D01*
X2030578D01*
Y703810D01*
X2064434D02*
Y717352D01*
X2071205Y724123D01*
X2077976Y717352D01*
Y703810D01*
Y713967D01*
X2064434D01*
X2105061Y703810D02*
Y724123D01*
X2115217D01*
X2118603Y720738D01*
Y713967D01*
X2115217Y710581D01*
X2105061D01*
X2111832D02*
X2118603Y703810D01*
X2125374Y724123D02*
X2132145D01*
X2128760D01*
Y703810D01*
X2125374D01*
X2132145D01*
X2155844Y720738D02*
X2152459Y724123D01*
X2145688D01*
X2142302Y720738D01*
Y707196D01*
X2145688Y703810D01*
X2152459D01*
X2155844Y707196D01*
Y713967D01*
X2149073D01*
X2162615Y724123D02*
Y703810D01*
Y713967D01*
X2176158D01*
Y724123D01*
Y703810D01*
X2182929Y724123D02*
X2196471D01*
X2189700D01*
Y703810D01*
X2223556D02*
Y717352D01*
X2230327Y724123D01*
X2237098Y717352D01*
Y703810D01*
Y713967D01*
X2223556D01*
X2243869Y703810D02*
Y724123D01*
X2257411Y703810D01*
Y724123D01*
X2277725Y720738D02*
X2274339Y724123D01*
X2267568D01*
X2264182Y720738D01*
Y707196D01*
X2267568Y703810D01*
X2274339D01*
X2277725Y707196D01*
Y713967D01*
X2270954D01*
X2284496Y724123D02*
Y703810D01*
X2298038D01*
X2318351Y724123D02*
X2304809D01*
Y703810D01*
X2318351D01*
X2304809Y713967D02*
X2311580D01*
X943810Y673967D02*
X957352D01*
X984437Y663810D02*
Y684123D01*
X994594D01*
X997979Y680738D01*
Y673967D01*
X994594Y670581D01*
X984437D01*
X1004750Y684123D02*
Y663810D01*
X1018293D01*
X1025064D02*
Y677352D01*
X1031835Y684123D01*
X1038606Y677352D01*
Y663810D01*
Y673967D01*
X1025064D01*
X1058919Y680738D02*
X1055534Y684123D01*
X1048763D01*
X1045377Y680738D01*
Y667196D01*
X1048763Y663810D01*
X1055534D01*
X1058919Y667196D01*
X1079233Y684123D02*
X1065691D01*
Y663810D01*
X1079233D01*
X1065691Y673967D02*
X1072462D01*
X1116474Y684123D02*
X1109703D01*
X1106317Y680738D01*
Y667196D01*
X1109703Y663810D01*
X1116474D01*
X1119860Y667196D01*
Y680738D01*
X1116474Y684123D01*
X1126631Y663810D02*
Y684123D01*
X1140173Y663810D01*
Y684123D01*
X1160487D02*
X1146944D01*
Y663810D01*
X1160487D01*
X1146944Y673967D02*
X1153715D01*
X1201113Y684123D02*
X1187571D01*
Y673967D01*
X1194342D01*
X1187571D01*
Y663810D01*
X1207885Y684123D02*
X1214656D01*
X1211270D01*
Y663810D01*
X1207885D01*
X1214656D01*
X1224812Y684123D02*
Y663810D01*
X1234969D01*
X1238355Y667196D01*
Y680738D01*
X1234969Y684123D01*
X1224812D01*
X1245126D02*
Y667196D01*
X1248511Y663810D01*
X1255283D01*
X1258668Y667196D01*
Y684123D01*
X1278981Y680738D02*
X1275596Y684123D01*
X1268825D01*
X1265439Y680738D01*
Y667196D01*
X1268825Y663810D01*
X1275596D01*
X1278981Y667196D01*
X1285753Y684123D02*
X1292524D01*
X1289138D01*
Y663810D01*
X1285753D01*
X1292524D01*
X1302681D02*
Y677352D01*
X1309452Y684123D01*
X1316223Y677352D01*
Y663810D01*
Y673967D01*
X1302681D01*
X1322994Y684123D02*
Y663810D01*
X1336536D01*
X1363621Y684123D02*
X1370392D01*
X1367006D01*
Y663810D01*
X1363621D01*
X1370392D01*
X1380549D02*
Y684123D01*
X1394091Y663810D01*
Y684123D01*
X1400862D02*
X1414404D01*
X1407633D01*
Y663810D01*
X1431332Y684123D02*
X1424561D01*
X1421175Y680738D01*
Y667196D01*
X1424561Y663810D01*
X1431332D01*
X1434718Y667196D01*
Y680738D01*
X1431332Y684123D01*
X1475345D02*
X1461802D01*
Y663810D01*
X1475345D01*
X1461802Y673967D02*
X1468573D01*
X1482116Y663810D02*
Y677352D01*
X1488887Y684123D01*
X1495658Y677352D01*
Y663810D01*
Y673967D01*
X1482116D01*
X1515971Y680738D02*
X1512586Y684123D01*
X1505815D01*
X1502429Y680738D01*
Y667196D01*
X1505815Y663810D01*
X1512586D01*
X1515971Y667196D01*
X1522742Y684123D02*
Y663810D01*
Y673967D01*
X1536285D01*
Y684123D01*
Y663810D01*
X1563369D02*
Y684123D01*
X1573526D01*
X1576912Y680738D01*
Y673967D01*
X1573526Y670581D01*
X1563369D01*
X1583683Y663810D02*
Y677352D01*
X1590454Y684123D01*
X1597225Y677352D01*
Y663810D01*
Y673967D01*
X1583683D01*
X1603996Y663810D02*
Y684123D01*
X1617538Y663810D01*
Y684123D01*
X1637852D02*
X1624310D01*
Y663810D01*
X1637852D01*
X1624310Y673967D02*
X1631081D01*
X1644623Y684123D02*
Y663810D01*
X1658165D01*
X1698792Y680738D02*
X1695407Y684123D01*
X1688636D01*
X1685250Y680738D01*
Y667196D01*
X1688636Y663810D01*
X1695407D01*
X1698792Y667196D01*
X1715720Y684123D02*
X1708949D01*
X1705563Y680738D01*
Y667196D01*
X1708949Y663810D01*
X1715720D01*
X1719106Y667196D01*
Y680738D01*
X1715720Y684123D01*
X1725877Y663810D02*
Y684123D01*
X1736033D01*
X1739419Y680738D01*
Y673967D01*
X1736033Y670581D01*
X1725877D01*
X1732648D02*
X1739419Y663810D01*
X1746190D02*
Y684123D01*
X1759732Y663810D01*
Y684123D01*
X1780046D02*
X1766504D01*
Y663810D01*
X1780046D01*
X1766504Y673967D02*
X1773275D01*
X1786817Y663810D02*
Y684123D01*
X1796974D01*
X1800359Y680738D01*
Y673967D01*
X1796974Y670581D01*
X1786817D01*
X1793588D02*
X1800359Y663810D01*
X1834215D02*
X1827444Y670581D01*
Y677352D01*
X1834215Y684123D01*
X1857914D02*
X1844372D01*
Y673967D01*
X1851143D01*
X1844372D01*
Y663810D01*
X1874842Y684123D02*
X1868071D01*
X1864685Y680738D01*
Y667196D01*
X1868071Y663810D01*
X1874842D01*
X1878227Y667196D01*
Y680738D01*
X1874842Y684123D01*
X1884998D02*
Y667196D01*
X1888384Y663810D01*
X1895155D01*
X1898541Y667196D01*
Y684123D01*
X1905312Y663810D02*
Y684123D01*
X1915469D01*
X1918854Y680738D01*
Y673967D01*
X1915469Y670581D01*
X1905312D01*
X1912083D02*
X1918854Y663810D01*
X1956095Y684123D02*
X1949324D01*
X1945939Y680738D01*
Y667196D01*
X1949324Y663810D01*
X1956095D01*
X1959481Y667196D01*
Y680738D01*
X1956095Y684123D01*
X1966252Y663810D02*
Y684123D01*
X1979794Y663810D01*
Y684123D01*
X2006879D02*
X2020421D01*
X2013650D01*
Y663810D01*
X2027193Y684123D02*
Y663810D01*
Y673967D01*
X2040735D01*
Y684123D01*
Y663810D01*
X2061048Y684123D02*
X2047506D01*
Y663810D01*
X2061048D01*
X2047506Y673967D02*
X2054277D01*
X2088133Y684123D02*
X2101675D01*
X2094904D01*
Y663810D01*
X2118603Y684123D02*
X2111832D01*
X2108446Y680738D01*
Y667196D01*
X2111832Y663810D01*
X2118603D01*
X2121989Y667196D01*
Y680738D01*
X2118603Y684123D01*
X2128760Y663810D02*
Y684123D01*
X2138916D01*
X2142302Y680738D01*
Y673967D01*
X2138916Y670581D01*
X2128760D01*
X2169386Y684123D02*
Y663810D01*
X2182929D01*
X2189700D02*
Y677352D01*
X2196471Y684123D01*
X2203242Y677352D01*
Y663810D01*
Y673967D01*
X2189700D01*
X2210013Y684123D02*
Y680738D01*
X2216784Y673967D01*
X2223556Y680738D01*
Y684123D01*
X2216784Y673967D02*
Y663810D01*
X2243869Y684123D02*
X2230327D01*
Y663810D01*
X2243869D01*
X2230327Y673967D02*
X2237098D01*
X2250640Y663810D02*
Y684123D01*
X2260797D01*
X2264182Y680738D01*
Y673967D01*
X2260797Y670581D01*
X2250640D01*
X2257411D02*
X2264182Y663810D01*
X2270954D02*
X2277725Y670581D01*
Y677352D01*
X2270954Y684123D01*
D87*
X48622Y-454920D02*
X35080D01*
X48622Y-441378D01*
Y-437992D01*
X45237Y-434607D01*
X38466D01*
X35080Y-437992D01*
X55393D02*
X58779Y-434607D01*
X65550D01*
X68936Y-437992D01*
Y-441378D01*
X65550Y-444763D01*
X68936Y-448149D01*
Y-451534D01*
X65550Y-454920D01*
X58779D01*
X55393Y-451534D01*
Y-448149D01*
X58779Y-444763D01*
X55393Y-441378D01*
Y-437992D01*
X58779Y-444763D02*
X65550D01*
X75707Y-454920D02*
Y-434607D01*
X85864D01*
X89249Y-437992D01*
Y-444763D01*
X85864Y-448149D01*
X75707D01*
X96020Y-454920D02*
X102791D01*
X99406D01*
Y-441378D01*
X96020D01*
X112948Y-454920D02*
Y-441378D01*
X123105D01*
X126490Y-444763D01*
Y-454920D01*
X133261D02*
X143418D01*
X146804Y-451534D01*
X143418Y-448149D01*
X136647D01*
X133261Y-444763D01*
X136647Y-441378D01*
X146804D01*
X715080Y-434607D02*
Y-448149D01*
X721851Y-454920D01*
X728622Y-448149D01*
Y-434607D01*
X735393Y-454920D02*
X742165D01*
X738779D01*
Y-434607D01*
X735393Y-437992D01*
X752321Y-434607D02*
X759092D01*
X755707D01*
Y-454920D01*
X752321D01*
X759092D01*
X769249D02*
X776020D01*
X772635D01*
Y-434607D01*
X769249Y-437992D01*
X48622Y-551221D02*
X45237Y-547835D01*
X38466D01*
X35080Y-551221D01*
Y-564763D01*
X38466Y-568149D01*
X45237D01*
X48622Y-564763D01*
X58779Y-568149D02*
X65550D01*
X68936Y-564763D01*
Y-557992D01*
X65550Y-554607D01*
X58779D01*
X55393Y-557992D01*
Y-564763D01*
X58779Y-568149D01*
X75707Y-574920D02*
Y-554607D01*
X85864D01*
X89249Y-557992D01*
Y-564763D01*
X85864Y-568149D01*
X75707D01*
X96020Y-554607D02*
Y-564763D01*
X99406Y-568149D01*
X109563D01*
Y-571534D01*
X106177Y-574920D01*
X102791D01*
X109563Y-568149D02*
Y-554607D01*
X116334D02*
Y-568149D01*
Y-561378D01*
X119719Y-557992D01*
X123105Y-554607D01*
X126490D01*
X136647Y-568149D02*
X143418D01*
X140033D01*
Y-554607D01*
X136647D01*
X160346Y-574920D02*
X163732D01*
X167117Y-571534D01*
Y-554607D01*
X156960D01*
X153575Y-557992D01*
Y-564763D01*
X156960Y-568149D01*
X167117D01*
X173888Y-547835D02*
Y-568149D01*
Y-557992D01*
X177274Y-554607D01*
X184045D01*
X187431Y-557992D01*
Y-568149D01*
X197587Y-551221D02*
Y-554607D01*
X194202D01*
X200973D01*
X197587D01*
Y-564763D01*
X200973Y-568149D01*
X244985D02*
X231443D01*
X244985Y-554607D01*
Y-551221D01*
X241600Y-547835D01*
X234829D01*
X231443Y-551221D01*
X251756D02*
X255142Y-547835D01*
X261913D01*
X265299Y-551221D01*
Y-564763D01*
X261913Y-568149D01*
X255142D01*
X251756Y-564763D01*
Y-551221D01*
X285612Y-568149D02*
X272070D01*
X285612Y-554607D01*
Y-551221D01*
X282227Y-547835D01*
X275455D01*
X272070Y-551221D01*
X305926Y-568149D02*
X292383D01*
X305926Y-554607D01*
Y-551221D01*
X302540Y-547835D01*
X295769D01*
X292383Y-551221D01*
X35080Y-594607D02*
Y-614920D01*
Y-608149D01*
X48622Y-594607D01*
X38466Y-604763D01*
X48622Y-614920D01*
X55393Y-594607D02*
X62165D01*
X58779D01*
Y-614920D01*
X55393D01*
X62165D01*
X85864Y-597992D02*
X82478Y-594607D01*
X75707D01*
X72321Y-597992D01*
Y-601378D01*
X75707Y-604763D01*
X82478D01*
X85864Y-608149D01*
Y-611534D01*
X82478Y-614920D01*
X75707D01*
X72321Y-611534D01*
X92635Y-594607D02*
Y-614920D01*
Y-604763D01*
X106177D01*
Y-594607D01*
Y-614920D01*
X112948D02*
Y-601378D01*
X119719Y-594607D01*
X126490Y-601378D01*
Y-614920D01*
Y-604763D01*
X112948D01*
X133261Y-614920D02*
Y-594607D01*
X146804Y-614920D01*
Y-594607D01*
X515080Y-527835D02*
Y-548149D01*
X525237D01*
X528622Y-544763D01*
Y-531221D01*
X525237Y-527835D01*
X515080D01*
X545550Y-548149D02*
X538779D01*
X535393Y-544763D01*
Y-537992D01*
X538779Y-534607D01*
X545550D01*
X548936Y-537992D01*
Y-541378D01*
X535393D01*
X555707Y-548149D02*
X565864D01*
X569249Y-544763D01*
X565864Y-541378D01*
X559092D01*
X555707Y-537992D01*
X559092Y-534607D01*
X569249D01*
X576020Y-548149D02*
X582791D01*
X579406D01*
Y-534607D01*
X576020D01*
X599719Y-554920D02*
X603105D01*
X606490Y-551534D01*
Y-534607D01*
X596334D01*
X592948Y-537992D01*
Y-544763D01*
X596334Y-548149D01*
X606490D01*
X613261D02*
Y-534607D01*
X623418D01*
X626804Y-537992D01*
Y-548149D01*
X643732D02*
X636960D01*
X633575Y-544763D01*
Y-537992D01*
X636960Y-534607D01*
X643732D01*
X647117Y-537992D01*
Y-541378D01*
X633575D01*
X667431Y-527835D02*
Y-548149D01*
X657274D01*
X653888Y-544763D01*
Y-537992D01*
X657274Y-534607D01*
X667431D01*
X694515Y-527835D02*
Y-548149D01*
X704672D01*
X708057Y-544763D01*
Y-541378D01*
Y-537992D01*
X704672Y-534607D01*
X694515D01*
X714829D02*
Y-544763D01*
X718214Y-548149D01*
X728371D01*
Y-551534D01*
X724985Y-554920D01*
X721600D01*
X728371Y-548149D02*
Y-534607D01*
X755455Y-527835D02*
Y-548149D01*
Y-541378D01*
X768998Y-527835D01*
X758841Y-537992D01*
X768998Y-548149D01*
X775769Y-527835D02*
X782540D01*
X779155D01*
Y-548149D01*
X775769D01*
X782540D01*
X806239Y-531221D02*
X802853Y-527835D01*
X796082D01*
X792697Y-531221D01*
Y-534607D01*
X796082Y-537992D01*
X802853D01*
X806239Y-541378D01*
Y-544763D01*
X802853Y-548149D01*
X796082D01*
X792697Y-544763D01*
X813010Y-527835D02*
Y-548149D01*
Y-537992D01*
X826553D01*
Y-527835D01*
Y-548149D01*
X833324D02*
Y-534607D01*
X840095Y-527835D01*
X846866Y-534607D01*
Y-548149D01*
Y-537992D01*
X833324D01*
X853637Y-548149D02*
Y-527835D01*
X867179Y-548149D01*
Y-527835D01*
X515080Y-577835D02*
Y-598149D01*
X525237D01*
X528622Y-594763D01*
Y-591378D01*
Y-587992D01*
X525237Y-584607D01*
X515080D01*
X535393Y-598149D02*
X542164D01*
X538779D01*
Y-584607D01*
X535393D01*
X555707Y-581221D02*
Y-584607D01*
X552321D01*
X559092D01*
X555707D01*
Y-594763D01*
X559092Y-598149D01*
X569249D02*
Y-594763D01*
X572635D01*
Y-598149D01*
X569249D01*
X586177D02*
X592948D01*
X589562D01*
Y-577835D01*
X586177D01*
X603105Y-584607D02*
Y-594763D01*
X606490Y-598149D01*
X616647D01*
Y-601534D01*
X613262Y-604920D01*
X609876D01*
X616647Y-598149D02*
Y-584607D01*
X623418Y-598149D02*
X636960Y-584607D01*
X643732Y-598149D02*
Y-577835D01*
Y-591378D02*
X653888Y-584607D01*
X643732Y-591378D02*
X653888Y-598149D01*
X664045D02*
X670816D01*
X667431D01*
Y-584607D01*
X664045D01*
X680973Y-598149D02*
X691130D01*
X694515Y-594763D01*
X691130Y-591378D01*
X684359D01*
X680973Y-587992D01*
X684359Y-584607D01*
X694515D01*
X701286Y-577835D02*
Y-598149D01*
Y-587992D01*
X704672Y-584607D01*
X711443D01*
X714829Y-587992D01*
Y-598149D01*
X724985Y-584607D02*
X731757D01*
X735142Y-587992D01*
Y-598149D01*
X724985D01*
X721600Y-594763D01*
X724985Y-591378D01*
X735142D01*
X741913Y-598149D02*
Y-584607D01*
X752070D01*
X755455Y-587992D01*
Y-598149D01*
X762227D02*
Y-577835D01*
Y-591378D02*
X772383Y-584607D01*
X762227Y-591378D02*
X772383Y-598149D01*
X782540Y-584607D02*
Y-598149D01*
Y-591378D01*
X785926Y-587992D01*
X789311Y-584607D01*
X792697D01*
X802853Y-598149D02*
X813010D01*
X816396Y-594763D01*
X813010Y-591378D01*
X806239D01*
X802853Y-587992D01*
X806239Y-584607D01*
X816396D01*
X58622Y-721221D02*
X55237Y-717835D01*
X48466D01*
X45080Y-721221D01*
Y-734763D01*
X48466Y-738149D01*
X55237D01*
X58622Y-734763D01*
X68779Y-738149D02*
X75550D01*
X78936Y-734763D01*
Y-727992D01*
X75550Y-724607D01*
X68779D01*
X65393Y-727992D01*
Y-734763D01*
X68779Y-738149D01*
X85707D02*
Y-724607D01*
X95864D01*
X99249Y-727992D01*
Y-738149D01*
X109406Y-721221D02*
Y-724607D01*
X106020D01*
X112791D01*
X109406D01*
Y-734763D01*
X112791Y-738149D01*
X126334Y-724607D02*
X133105D01*
X136490Y-727992D01*
Y-738149D01*
X126334D01*
X122948Y-734763D01*
X126334Y-731378D01*
X136490D01*
X156804Y-724607D02*
X146647D01*
X143261Y-727992D01*
Y-734763D01*
X146647Y-738149D01*
X156804D01*
X166961Y-721221D02*
Y-724607D01*
X163575D01*
X170346D01*
X166961D01*
Y-734763D01*
X170346Y-738149D01*
X180503Y-724607D02*
X183888D01*
Y-727992D01*
X180503D01*
Y-724607D01*
Y-734763D02*
X183888D01*
Y-738149D01*
X180503D01*
Y-734763D01*
X217744Y-738149D02*
Y-717835D01*
Y-731378D02*
X227901Y-724607D01*
X217744Y-731378D02*
X227901Y-738149D01*
X238057D02*
X244829D01*
X241443D01*
Y-724607D01*
X238057D01*
X254985Y-738149D02*
X265142D01*
X268528Y-734763D01*
X265142Y-731378D01*
X258371D01*
X254985Y-727992D01*
X258371Y-724607D01*
X268528D01*
X275299Y-717835D02*
Y-738149D01*
Y-727992D01*
X278684Y-724607D01*
X285455D01*
X288841Y-727992D01*
Y-738149D01*
X298998Y-724607D02*
X305769D01*
X309154Y-727992D01*
Y-738149D01*
X298998D01*
X295612Y-734763D01*
X298998Y-731378D01*
X309154D01*
X315926Y-738149D02*
Y-724607D01*
X326082D01*
X329468Y-727992D01*
Y-738149D01*
X336239D02*
Y-717835D01*
Y-731378D02*
X346396Y-724607D01*
X336239Y-731378D02*
X346396Y-738149D01*
X356553Y-724607D02*
Y-738149D01*
Y-731378D01*
X359938Y-727992D01*
X363324Y-724607D01*
X366709D01*
X376866Y-738149D02*
X387023D01*
X390408Y-734763D01*
X387023Y-731378D01*
X380252D01*
X376866Y-727992D01*
X380252Y-724607D01*
X390408D01*
X410722Y-738149D02*
X397179D01*
X410722Y-724607D01*
Y-721221D01*
X407336Y-717835D01*
X400565D01*
X397179Y-721221D01*
X417493Y-738149D02*
X424264D01*
X420878D01*
Y-717835D01*
X417493Y-721221D01*
X444577Y-731378D02*
Y-727992D01*
X441192D01*
Y-731378D01*
X444577D01*
X447963Y-727992D01*
Y-721221D01*
X444577Y-717835D01*
X437806D01*
X434421Y-721221D01*
Y-734763D01*
X437806Y-738149D01*
X447963D01*
X461505Y-744920D02*
X464891D01*
X468276Y-741534D01*
Y-724607D01*
X458120D01*
X454734Y-727992D01*
Y-734763D01*
X458120Y-738149D01*
X468276D01*
X475047D02*
Y-724607D01*
X478433D01*
X481819Y-727992D01*
Y-738149D01*
Y-727992D01*
X485204Y-724607D01*
X488590Y-727992D01*
Y-738149D01*
X498746Y-724607D02*
X505518D01*
X508903Y-727992D01*
Y-738149D01*
X498746D01*
X495361Y-734763D01*
X498746Y-731378D01*
X508903D01*
X515674Y-738149D02*
X522445D01*
X519060D01*
Y-724607D01*
X515674D01*
X532602Y-738149D02*
X539373D01*
X535988D01*
Y-717835D01*
X532602D01*
X549530Y-738149D02*
Y-734763D01*
X552916D01*
Y-738149D01*
X549530D01*
X580000Y-724607D02*
X569843D01*
X566458Y-727992D01*
Y-734763D01*
X569843Y-738149D01*
X580000D01*
X590157D02*
X596928D01*
X600314Y-734763D01*
Y-727992D01*
X596928Y-724607D01*
X590157D01*
X586771Y-727992D01*
Y-734763D01*
X590157Y-738149D01*
X607085D02*
Y-724607D01*
X610470D01*
X613856Y-727992D01*
Y-738149D01*
Y-727992D01*
X617241Y-724607D01*
X620627Y-727992D01*
Y-738149D01*
M02*
